<?xml version="1.0" encoding="utf-8"?>
<svg version="1.1" xmlns="http://www.w3.org/2000/svg" xmlns:xlink="http://www.w3.org/1999/xlink" x="0px" y="0px"
	 viewBox="0 0 1920 400" style="enable-background:new 0 0 1920 400;" xml:space="preserve">
<style type="text/css">
	.st0{clip-path:url(#SVGID_2_);}
	.st1{fill:#CFF2FF;}
	.st2{fill:#FFFFFF;}
	.st3{fill:#83ACFF;}
	.st4{fill:#013bb2;}
	.st5{fill:#003BB2;}
	.st6{fill:#003BB2;}
	.st7{fill-rule:evenodd;clip-rule:evenodd;fill:#013bb2;}
	.st8{fill:#013bb2;}
	.st9{fill:#013bb2;}
	.st10{fill:#E7F275;}
	.st11{fill:#29C18E;}
	.st12{fill:#003BB2;}
	.st13{fill:#013bb2;}
	.st14{fill-rule:evenodd;clip-rule:evenodd;fill:#013ba2;}
</style>
<g id="Layer_1">
	<g>
		<defs>
			<rect id="SVGID_1_" x="0" width="1920" height="400"/>
		</defs>
		<clipPath id="SVGID_2_">
			<use xlink:href="#SVGID_1_"  style="overflow:visible;"/>
		</clipPath>
		<g class="st0">
			<g>
				<g>
					<path class="st1" d="M-152.5,220l53.5-39.7l17.8-4l13.2-19l19.6,17.3l19.6-1.7l15,6.9c0,0,55.3-66.8,62.2-70.2
						c6.9-3.5,24.2,14.4,24.2,14.4s6.9-0.6,9.2-0.6c2.3,0,0-5.2,7.5-4.6c7.5,0.6,16.7,5.2,16.7,5.2l17.3-4c0,0,23.6,20.2,30.5,23.6
						c6.9,3.5,46.1-24.2,51.2-28.8c5.2-4.6,29.9,1.2,29.9,1.2s32.2-32.8,36.8-35.1c4.6-2.3,11.5,8.1,11.5,8.1l9.2-1.2
						c0,0,27.1,32.8,34.5,32.8s21.9-9.2,39.7,1.2s40.3,17.8,46.1,18.4c5.8,0.6,40.3-20.2,53-20.2c12.7,0,29.9-23.6,39.1-25.3
						c9.2-1.7,42.6,21.3,54.1,35.7c11.5,14.4,28.2,38,39.1,35.1c10.9-2.9,43.8-21.3,54.1-16.1c10.4,5.2,27.6,28.8,36.8,24.2
						c9.2-4.6,28.8-30.5,46.1-24.8c17.3,5.8,27.1-6.3,41.5-21.3s18.4-17.8,27.6-8.1c9.2,9.8,46.1,47.8,50.1,48.9
						c4,1.2,24.2-12.1,35.1-19.6c10.9-7.5,17.8-4.6,17.8-4.6s17.3-18.4,26.5-13.8c9.2,4.6,15.5,20.7,34,24.8
						c18.4,4,207.2,138.9,213.5,142.9s-183.6,62.6-183.6,62.6H-168.6L-152.5,220z"/>
				</g>
				<path class="st1" d="M1011.8,201.6l75.2-42.2l207.1,40.8c0,0,103.6-14.3,133.8-21.6c30.2-7.3,135.6,12.9,164.9,23
					s-33.8,34.8-33.8,34.8s132.9,21.1,153.1,25.7c20.2,4.6,37.6,57.7,37.6,57.7l-676.5,25.7L1011.8,201.6z"/>
				<g>
					<path class="st2" d="M-66.4,163.3c0,0,5.5,11.2,0,17.3c-5.5,6,11.2,25.3,11.8,26.2c0.6,0.9-0.3-8.9-2.3-14.1
						c-2-5.2,5.8-1.7,5.8-1.7l2.3-5.2c0,0-4.9-7.2-5.8-10.9S-66.4,163.3-66.4,163.3z"/>
					<path class="st2" d="M-30.5,179.7c0,0,21.9,11.8,25,15.5c3.2,3.7,6,8.9,6,8.9l-18.7-6.9L-30.5,179.7z"/>
					<path class="st2" d="M53.3,112.6c0,0,3.2,17,3.2,19c0,2,10.9,13,17.3,19c6.3,6,10.7,27.3,10.7,27.3l26.8,15.5
						c0,0,0.6-9.8-8.3-20.4c-8.9-10.7-11.5-14.1-14.7-20.2c-3.2-6-6-12.1-0.3-6.9c5.8,5.2,29.4,27.6,29.4,27.6s-0.6-12.1-4.6-17.6
						s-15.5-12.4-20.2-19c-4.6-6.6-8.9-10.1-8.9-10.1l-6.9,0.3l5.5,9.8c0,0-18.4-17.8-22.7-21.6C55,111.8,53.3,112.6,53.3,112.6z"/>
					<path class="st2" d="M53,146.3c0,0-0.9,18.1-5.5,24.2c-4.6,6,3.7,16.1,3.7,16.1L79.5,199c0,0-3.7-9.5-11.2-16.1
						s2.3-6.3,3.5-10.4c1.2-4-6.9-12.7-7.2-15.3C64.2,154.6,57.3,146.9,53,146.3z"/>
					<path class="st2" d="M127.3,130.2c0,0,42.3,37.7,44.9,43.2c2.6,5.5-15.5-5.2-19.9-7.5c-4.3-2.3-0.9,4.9-9.8,1.7
						s-21.6-10.1-21.9-18.4c-0.3-8.3-3.2-8.9-7.5-15.5c-4.3-6.6,6.3-10.4,6.3-10.4L127.3,130.2z"/>
					<path class="st2" d="M216.8,119l40.3,32c0,0-13.2,4-17.3,0.9c-4-3.2-10.9,5.2-15.5,1.4c-4.6-3.7-7.8-13.2-7.2-18.1
						C217.7,130.2,216.8,119,216.8,119z"/>
					<path class="st2" d="M268.9,88.4c0,0-13.2,12.1-10.9,18.4c2.3,6.3,9.2,17.3,9.5,25.6c0.3,8.3,4.3,11.8,8.9,13.8
						s21.3,16.4,22.5,17.3c1.2,0.9-14.7-15-15.3-20.4c-0.6-5.5,3.2-9.5,6.9-8.6c3.7,0.9,5.2,10.7,4.9,12.4c-0.3,1.7,6.3-3.5,8.9-5.8
						s-18.4-40.3-18.4-40.3l0.6,15c0,0-6-1.4-6-3.7c0-2.3-2.9-14.4-3.2-16.4C277,93.6,268.9,88.4,268.9,88.4z"/>
					<path class="st2" d="M311.8,112.3l18.1,26.8l4.3,25l12.4,12.4c0,0-4.6,6-9.2,4c-4.6-2-21.3-10.7-21.3-10.7l7.2-19.3
						c0,0-4.3-9.2-8.6-16.7c-4.3-7.5-15.3-19.9-15.5-22.7c-0.3-2.9,1.2-12.1,1.2-12.1L311.8,112.3z"/>
					<path class="st2" d="M357.3,121.3l47.8,24.8l34,30.5l-43.5-21.6l8.3,13l-4,3.7l8.6,20.7l11.5,7.8c0,0-21.3-6-25.9-7.5
						c-4.6-1.4-12.7-9.8-13.5-11.2s-2.9-23-2.9-23l-26.5-30.5L357.3,121.3z"/>
					<polygon class="st2" points="468.7,125.9 461.5,142.3 451.7,147.5 446.5,154.6 451.1,130.5 					"/>
					<path class="st2" d="M512.4,100c0,0,7.5,9.5,5.5,18.7s8.3,25.3,2.3,31.1c-6,5.8-25.6,12.7-39.4,19.9s-23.6,14.1-23.6,14.1
						s4.9,9.5,15.5,14.4c0,0-4.9-5.2-1.2-7.8c3.7-2.6,11.8,1.7,16.7,2s6.3-20.2,10.1-19.6c3.7,0.6,33.1,23.3,43.2,28.8
						s-11.8-26.8-12.7-30.2s6.3-4.3,10.4-3.2c4,1.2,39.4,19.3,39.4,19.3s-13.8-20.4-23.3-29.9s-21.6-23-21.6-23.9
						c0-0.9,18.1,5.2,21.6,7.5c3.5,2.3-27.9-21-29.1-25.9s8.6-3.5,8.6-3.5L512.4,100z"/>
					<path class="st2" d="M645.7,150.3c0,0-15.3,13-19.6,15.3c-4.3,2.3-2,6,3.2,12.1s2.6,12.1,1.2,14.1c-1.4,2,8.9,6,20.2,12.7
						c11.2,6.6,21.3,17.6,21.3,17.6s5.2-4-3.2-12.7c-8.3-8.6-19.6-13-19.6-17.3c0-4.3,4.6-4.6,0.6-12.1c-4-7.5-5.8-13.5-5.2-14.4
						c0.6-0.9,6.6,9.2,8.1,11.8c1.4,2.6,4.9-2,0.9-11.5s-3.7-13-3.7-13L645.7,150.3z"/>
					<path class="st2" d="M672.8,169l15.3,12.7c0,0-0.3,15,6.6,22.5c6.9,7.5,4.9,8.3,4.9,8.3s-7.5-2.6-12.4-9.5s-5.5-14.4-5.5-14.4
						s-4,3.5-6-5.5C673.6,174.2,672.8,169,672.8,169z"/>
					<path class="st2" d="M794.5,118.1c0,0,13.2,16.4,16.1,19.3s13,18.1,16.4,20.4c3.5,2.3-8.6-3.7-13.2-8.3s-11.8-9.8-11.8-9.8
						s6.9,17.3,10.4,20.7c3.5,3.5-2.6,6.3-2.6,6.3s-6.6-10.9-7.5-11.8c-0.9-0.9-11.8,0-11.8,0l-10.1-8.1L794.5,118.1z"/>
					<path class="st2" d="M929.1,137.5c0,0-0.8,6.9,0.4,13.8c1.2,6.9-3.5,10,6.9,17.7c10.4,7.7,10,19.2,10,20.3s6.1-3.1,4.2-10.7
						c-1.9-7.7-3.5-13-3.5-13s5.8-0.4,13.8,5.8c8.1,6.1,8.4,14.2,8.4,14.2s3.1-10.7,0.4-15.4c-2.7-4.6,1.5-5,5.4-4.6
						c3.8,0.4,12.7,1.5,12.7,1.5s-19.2-6.9-31.5-11.5c-12.3-4.6-18.4-15-18.4-15L929.1,137.5z"/>
					<path class="st2" d="M927.5,171.6l-5.8,21.1l8.1,23.8c0,0-1.5-13.8-0.8-19.6c0.8-5.8,6.1-7.7,6.1-7.7L927.5,171.6z"/>
				</g>
			</g>
			<path class="st3" d="M-28.4,250.3c0,0,89.8-25.3,130.7-31.4c41-6.1,122,20,169.1,26.1s106.3-61,217.9-33.1s189.1,52.3,274.5,20
				s149.9,21.8,192.6,30.5c42.7,8.7,71.5-47.1,163-27s284.6,88.9,284.6,88.9l-159.1-6.1H-41.4L-28.4,250.3z"/>
			<path class="st3" d="M846.2,308.1c0,0,155.1-75,257.6-99.4s276.8,9.1,354.9,20.3s162.2-75,291-63.9c128.8,11.2,209.9,74,209.9,74
				s-8.1,56.8-4.1,67.9C1959.6,318.3,846.2,308.1,846.2,308.1z"/>
			<path class="st4" d="M1371.1,264.9h2.5l-3.3-3h-1.6v-5.7l2.3-2.6h1.6l-7.6-8c0,0-6.6,0-10,0c-3,0-10.3,0-10.3,0l-7.4,8h1.6
				l2.4,2.7l0.5-0.5l-2-2.2h2.2v8.3h-1.7l-3.3,3h2.5l2.5,2.8l0,0v5h-0.9v0.7h0.9v35.1h26.7v-35.1h0.9v-0.7h-0.9v-5L1371.1,264.9z
				 M1368.7,255.1v-1.6h1.4L1368.7,255.1z M1370.2,264.9l-1.5,1.7v-1.7H1370.2z M1340.4,264.9h1.6v1.8L1340.4,264.9z"/>
			<path class="st5" d="M1302.1,275.4h2.5l-3.3-3h-1.6v-5.7l2.3-2.6h1.6l-7.6-8c0,0-6.6,0-10,0c-3,0-10.3,0-10.3,0l-7.4,8h1.6
				l2.4,2.7l0.5-0.5l-2-2.2h2.2v8.3h-1.7l-3.3,3h2.5l2.5,2.8l0,0v5h-0.9v0.7h0.9v35.1h26.7v-35.1h0.9v-0.7h-0.9v-5L1302.1,275.4z
				 M1299.6,265.6v-1.6h1.4L1299.6,265.6z M1301.1,275.4l-1.5,1.7v-1.7H1301.1z M1271.4,275.4h1.6v1.8L1271.4,275.4z"/>
			<path class="st5" d="M1788.9,255.4h2.5l-3.3-3h-1.6v-5.7l2.3-2.6h1.6l-7.6-8c0,0-6.6,0-10,0c-3,0-10.3,0-10.3,0l-7.4,8h1.6
				l2.4,2.7l0.5-0.5l-2-2.2h2.2v8.3h-1.7l-3.3,3h2.5l2.5,2.8l0,0v5h-0.9v0.7h0.9v35.1h26.7v-35.1h0.9v-0.7h-0.9v-5L1788.9,255.4z
				 M1786.5,245.6v-1.6h1.4L1786.5,245.6z M1788,255.4l-1.5,1.7v-1.7H1788z M1758.2,255.4h1.6v1.8L1758.2,255.4z"/>
			<path class="st5" d="M1852.5,269.6h2.5l-3.3-3h-1.6v-5.7l2.3-2.6h1.6l-7.6-8c0,0-6.6,0-10,0c-3,0-10.3,0-10.3,0l-7.4,8h1.6
				l2.4,2.7l0.5-0.5l-2-2.2h2.2v8.3h-1.7l-3.3,3h2.5l2.5,2.8l0,0v5h-0.9v0.7h0.9v35.1h26.7v-35.1h0.9v-0.7h-0.9v-5L1852.5,269.6z
				 M1850.1,259.8v-1.6h1.4L1850.1,259.8z M1851.5,269.6l-1.5,1.7v-1.7H1851.5z M1821.8,269.6h1.6v1.8L1821.8,269.6z"/>
			<path class="st5" d="M1508.1,254.4h2.5l-3.3-3h-1.6v-5.7l2.3-2.6h1.6l-7.6-8c0,0-6.6,0-10,0c-3,0-10.3,0-10.3,0l-7.4,8h1.6
				l2.4,2.7l0.5-0.5l-2-2.2h2.2v8.3h-1.7l-3.3,3h2.5l2.5,2.8l0,0v5h-0.9v0.7h0.9v35.1h26.7v-35.1h0.9v-0.7h-0.9v-5L1508.1,254.4z
				 M1505.6,244.6V243h1.4L1505.6,244.6z M1507.1,254.4l-1.5,1.7v-1.7H1507.1z M1477.4,254.4h1.6v1.8L1477.4,254.4z"/>
			<path class="st6" d="M411.6,226.4c2.7-1.5,5.4-3,8.2-4.6c-0.3-0.5-0.5-0.9-0.8-1.3c1.6-0.9,1.4-2.8,1.6-4.2
				c0.2-1.4,0.8-2.5,1.2-3.8c1.5-0.4,2.8-0.7,4,0.6c0.5,0.5,1.2,0.6,1.9,0.1c0.8-0.5,1.8-0.8,2.7-1c0.5-0.1,1.2-0.2,1.6,0
				c0.6,0.3,0.9,0.4,1.6,0.1c0.5-0.3,1.5,0.4,2.4,0.8c-0.2,0.3-0.4,0.6-0.6,0.9c1,1.5,2.9,1,4,1.7c0.2,1.2,0.6,2.1,0.5,3
				c-0.1,0.9-0.8,1.6-1.2,2.6c-1.7-0.3-3.3,1.2-5.1,0.4c-0.7,0.5-1.5,1-2.3,1.5c-0.7-0.5-1.3-1-2-1.5c-1.3,0.6-1.1,1.6-0.9,2.6
				c-1.3,1-2.6,1.3-4.1,0.4c-0.6-0.4-1.4-0.2-2.2-0.3c-0.5-0.6-1.2-1.2-1.9-2c-1.4,0.9-2.5,1.7-3.8,2.5c0.3,0.8,0.5,1.5,0.8,2.3
				c-0.5,0.9-1.1,2-1.6,2.9c1.1,1,1.4-0.4,2-0.3c0.9,0.3,1.9,0.6,3,1c-0.3,2,1.7,1.4,2.7,2.4c-0.3,1.2-0.7,2.4-1,3.6
				c-2.9,0.1-3.3,0.5-3.6,2.8c-1.7,0.2-3.4,0.4-5.3,0.7c-0.1-0.3-0.3-0.7-0.5-1.1c-1.7,0.6-2.9,3-5,0.9c-0.3,0.4-0.4,0.6-0.6,0.9
				c-0.2,0.2-0.4,0.4-0.6,0.7c-0.2-0.1-0.4-0.1-0.6-0.2c-0.8-0.3-1.7-0.5-2.3-1c-1.4-1.2-2.5-0.5-3.8,0.3c-3.6,2.3-6,5.7-7.7,9.7
				c-0.1,0.3-0.2,0.5-0.3,0.8c-0.7,6.4-3.1,12.3-4.8,18.5c-0.6,2-1.2,4.1-1.7,6.1c-0.8,3.1-0.6,6.1,0.6,9.1c0.6,1.6,1.4,3.2,2.3,4.7
				c1.3,2.6,2.7,5.1,4.1,7.7c-1.6,0.4-14.1,0.2-17.1-0.4c-0.1-0.9-0.2-1.9-0.2-2.9c-0.1-3.2-0.3-6.5-0.3-9.7c0-6.1,1.7-11.7,4.6-17
				c1.1-2,2-4.1,2.6-6.2c1.2-4,0.8-8-1-11.8c-0.3-0.6-0.6-1.2-0.9-1.7c-4.5-7.7-16.4-17.5-26.1-19.4c-0.7,0.7-1.6,1.1-1.7,2.4
				c-0.1,0.9-1.1,1.8-1.6,2.5c-1.4,0.3-2.7,0.6-4,0.9c-0.4-0.6-0.7-1.2-1.2-1.9c-0.7,0.4-1.5,0.8-2.3,1.2c-0.6-0.5-1.3-0.9-2.3-0.6
				c-0.3,0.1-0.9-1.2-1.5-2c-1.3,1.1-2-0.5-3.1-0.9c-0.4,0.3-0.9,0.6-1.3,0.9c-1.2-0.3-2.4-0.5-3.7-0.8c-0.1-0.5-0.2-1-0.4-1.8
				c-1.1,0.8-1.9,1.8-3,2c-1,0.3-2.2-0.2-3.4-0.4c0-0.2,0.1-0.6,0-0.7c-1.1-1.6-0.9-3.3-0.6-5.1c0.2-1.4,0.5-2.9,2.1-3.2
				c1-0.2,1.8-1.7,3-0.5c0.7-0.4,1.4-0.9,2.1-1.3c-0.7-1.7-1.7-3.4-0.1-5.5c1-0.1,2.3-0.2,4-0.4c0.1-0.2,0.5-0.7,1.1-1.5
				c0.9,0.5,1.9,0.9,2.9,1.4c1.1,0.5,2.2,1.1,3.5,0.4c-1.6-2.1-4.1-2.3-6.3-2.9c-0.2-0.1-0.5,0.1-0.8,0.2c-1.4,0.8-2.9,1.1-4.5,1.4
				c-1.2,0.3-2.1,0.5-3.3-0.1c-0.5-0.2-1.2,0.3-1.8,0.3c-0.6,0-1.2-0.3-1.9-0.6c-0.1-1,1.4-2.4-0.4-3.1c0.6-1.9,1.1-3.8,2.9-5
				c-0.7-0.6-1.2-1.1-1.7-1.6c1.9-2.7,1.9-2.7,4-2.5c0.1-1.2,0.4-2.3,1.9-2.4c0.3,0,0.6-0.9,0.9-1.4c-0.8-0.4-1.6-0.8-2.3-1.2
				c0.2-0.7,0.4-1.2,0.6-1.9c-0.9-0.2-1.8-0.5-2.7-0.7c-0.5-1.2-1-2.4-1.5-3.6c1.1-1.1-0.5-2.9,0.7-3.6c1.2-0.3,2-0.6,2.8-0.8
				c0.7,0.6,1.6,1.2,2.7,2.1c0-0.7,0-1.2,0-1.7c0.4-0.2,1.2-0.3,1.5-0.8c0.7-1,1.5-1.6,2.8-1.4c0.3,0,1.4-0.3,0.7-1.3
				c-0.1-0.1-0.2-0.3-0.2-0.4c0.7-1.3-0.1-2.7,0.2-4c0.8-0.7,2.4-0.6,1.7-2.5c0.8-0.3,1.7-0.6,2.7-1c-0.4-1.1,0.1-2,1-2.7
				c-0.4-1.4,1-1.9,1.3-3c1.4,0.1,2.7,0.1,3.7,1.4c0.5,0.6,1,0.3,1.4-0.2c0.3-0.4,0.4-0.9,0.7-1.6c-0.9-0.8-1.7-1.6-2.6-2.4
				c0.6-0.7,1.9-1.2,1.1-2.7c-0.1-0.2,0.3-0.6,0.4-0.9c0.5-0.8,1.1-1.7,1.7-2.6c1,0.3,2,0.7,3.2,0.8c0.9,0.1,1.5-0.7,1.4-1.6
				c-0.3-1.5,0.9-1.8,1.6-1.7c1.3,0.1,2.7-0.2,3.7,1.3c0.4,0.6,1.5,0.8,2.5,1.3c0.1,0.4,0.3,1.2,0.4,2c1.2,0.1,2.3,0.2,3.4,0.4
				c0.1,0.2,0.1,0.4,0.2,0.6c0.3,1.7,1,2.2,2.4,1.7c0.6-0.2,1.4-0.6,1.7-0.4c0.7,0.6,1.3,1.5,1.8,2.4c0.1,0.2,0,0.5,0,1
				c0.4,0,0.7-0.1,1.2-0.1c0.6,0.5,0.6,1.9,2,1.9c0.5,0,0.5,3.2,0,3.8c-0.5,0.7-1.1,1.3-1.6,2c0.1,0.1,0.2,0.2,0.3,0.3
				c0.6-0.4,1.2-0.9,1.9-1.4c1.4,1.1,3.2,0.9,5.2,0.7c-0.5,1.5-0.6,2.9,1.2,3.5c0.6-0.8,1.2-1.6,1.9-2.6c1.3,0.1,2.7,0.3,4,0.4
				c0-0.2,0-0.3,0-0.5c-1.3-0.2-2.4-1.4-3.8-0.5c-0.2,0.1-0.7-0.1-0.9-0.2c-0.5-0.4-2.3-1.5-2.7-1.5c-1.8,0.1-3.1-1-3.6-2.6
				c-0.4-1.2-1.1-2.2-1.4-3.4c0.4-0.1,0.8-0.3,1.3-0.4c0.1-0.9,0.1-1.7,0.8-2.5c0.7-0.9,0.6-2.3,0.9-3.6c2.2-0.5,4.6-0.8,6.9-2.4
				c1.3,0.5,2.8,1.7,4.6,1.6c0.8,0,1.8-0.2,2.4-0.8c0.9-0.9,1.9-1.8,2.1-3.3c0-0.2,0.3-0.4,0.5-0.5c1-0.4,1.9-1.1,3-0.6
				c1,0.5,1.3-0.6,2.1-1.1c0.3,1.9,2.7,1.8,3,3.8c1.9,0.1,1.6,3,3.5,3.3c0.3,0,0.4,1.1,0.5,1.8c0.2,0.8,0.2,1.6,0.4,2.7
				c0.1,0.1,0.6,0.3,1.4,0.6c-0.1-0.8-0.2-1.5-0.3-2.3c0.7-0.3,1.5-0.5,2.3-0.9c0.4-0.2,0.8-0.6,1-1c0.3-0.5,0.4-1.2,0.7-1.8
				c0.3-0.5,0.8-0.9,1.3-1.5c0.5,0.2,1,0.5,1.5,0.6c0.8,0.1,1,0.5,1.1,1.3c0.1,1.3,0.1,2.7,0.9,3.9c0.3,0.4,0.1,1.1,0.1,1.7
				c0,0.6-0.2,1.1-0.4,1.9c0.7-0.2,1.2-0.3,1.2-0.3c1.4,0.9,2.6,1.6,3.7,2.3c0.4-0.4,0.6-0.6,0.9-0.9c0.5,0.4,1,0.8,1.5,1.2
				c-0.2,0.9-0.7,1.9,0.5,2.5c-1,1.3-1.9,2.5-2.7,3.5c0.3,1.7,0.6,3.2,0.9,4.9c0.5-0.4,1.1-0.7,1.5-1.2c0.9-1.1,2-1.3,3.1-0.5
				c0.4,0.3,0.9,0.9,1.1,0.8c1.8-1,2.5,0.9,3.6,1.5c1.2-1.7,3.2-1.3,4.4-2.1c1,0.7,1.9,1,2.3,1.7c0.5,0.7,0.5,1.7,0.8,2.8
				c1-0.4,2.2-0.9,3.5-1.4c1.2,1.2,3,1.3,4.9,1.9c-0.4,0.5-0.7,0.8-1,1.2c0.9,0.7,0.6,1.5,0.3,2.4c-0.4,0.9-0.7,1.9-1,2.8
				c-0.4,1-0.8,2-1.3,3.2c-1.5,0-2.9,0-4.3,0c-0.6,1.2,0.1,2,0.9,2.9c-1.1,0.7-2.5,1-2,2.8c0.1,0.2-1.1,0.9-1.7,1.3
				c-0.6,0.4-1.2,0.6-1.7,0.9c-0.8-0.3-1.6-0.7-2.4-1.1c-0.6,0.6-1.2,1.1-1.7,1.6c0.9,0.3,1.9,1,2.8,0.9c1.1-0.1,1.9,0,2.8,0.7
				c-0.7,2.3,0.9,3,2.4,3.9c-1.3,1.2-0.2,3.5-2.1,4.1c-1-0.1-1.9-0.2-2.9-0.3c-0.9-0.2-1.8-0.4-2.6-0.7c-0.9-0.4-1.8-1.1-2.5,0.3
				c-0.1,0.1-0.5,0.2-0.7,0.1c-0.9-0.1-1.7-0.3-2.6-0.4c-0.3-0.1-0.6-0.2-0.8-0.4c-1.1-1.1-1.9-1.1-2.9,0c-1.3,1.4-2.5,3-3.7,4.5
				c-2.2,2.9-4.3,5.8-6.5,8.7c-0.2,0.2-0.5,0.5-0.5,0.7c0,1.1-0.6,1.6-1.4,2.1c-0.3,0.2-0.5,0.8-0.7,1.2
				C411.4,226.2,411.5,226.3,411.6,226.4z M360.6,196.3c0.4,0.3,0.9,0.6,1.4,0.9C362,195.7,361.3,196,360.6,196.3
				c0.8-1.6-0.1-3.2-0.4-4.8c0-0.1-0.2-0.2-0.3-0.3c-0.3,0.2-0.7,0.4-1,0.6C359.2,193.4,359.2,195.1,360.6,196.3z M405.1,226.4
				c1.4-0.5,2.4-1.6,3.1-2.6c-0.1-1.3-0.5-2.4-0.2-3.3c0.7-2,0.1-3.8,0.1-5.6c-1-0.7-1.9-1.3-2.8-1.9c-0.2,0.5-0.4,0.9-0.5,1.3
				c-0.2,2-0.2,3.8,0.8,5.7c0.9,1.8,1.3,3.8-0.4,5.5C405,225.8,405.2,226.2,405.1,226.4c-1.3,0.7-3.2,0.6-3.5,3.2
				c1.2-1,2.1-1.8,3-2.5C404.9,227,405,226.7,405.1,226.4z M389.8,242.5c0.1-0.1,0.3-0.1,0.4-0.2c1.8-3.2,4.2-5.9,6.7-8.4
				c1.7-1.7,2.6-4,3.8-6.5c-1-0.2-1.7-0.4-2.4-0.5c0-0.7,0.3-1.9-0.1-2.2c-0.9-0.7-0.4-1.5-0.4-2.2c0-0.7,0.2-1.4,0.4-2.1
				c1.9-0.3,1.9-0.3,2.2-2.6c0-0.3,0.2-0.6,0.4-0.9c0.6-1.1,1.6-1.1,2.7-0.9c-0.1-1.4-0.1-2.6-0.2-4.3c-0.8,1.1-1.3,1.9-1.9,2.6
				c-0.8,0-1.8,0.1-2.8,0.1c0.3,0.4,0.5,0.7,0.6,0.9c-0.4,0.8-0.9,1.5-1.2,2.2c0.3,0.4,0.6,0.7,0.9,1c-2.6,1.6-2.9,2.7-5.9,2
				c-0.7-0.2-1-0.2-1.3-1c-0.4-1.1-2.8-0.9-3.6,0.2c-2.8,4.1-5.2,8.3-3.2,13.6c0.2,0.5,0.2,1,0.3,1.5c0.2,0.8,0.3,1.6,0.8,2.3
				C387.1,239.1,388.5,240.8,389.8,242.5z M384.9,249c0.1-3.9-1.1-7.2-3.5-10.1c-1.9-2.2-3.5-4.5-5.1-7c-1.3-2-1.9-4.2-2-6.6
				c-0.1-1.9-0.5-3.8-0.9-5.6c-0.9-4-4.1-4.9-7.3-6.3c-0.2,1.1-0.3,1.9-0.4,2.7c0,0.3-0.1,0.7-0.2,0.8c-1.6,0.7-0.6,1.8-0.4,2.7
				c0.2,0.8,1.7,1.1,2.8,0.6c0.7-0.3,1.3-0.7,2-1c0.2,0.7,0.2,1.5,0.6,1.8c1.4,1,1.4,2.5,1.8,3.8c-1.4,0.9-2.5,2.2-4.3,2.1
				c0.4,0.8,0.9,1.4,1.4,2c1.4,1.4,3,2.7,4.3,4.2c3.1,4.1,6.1,8.4,9.1,12.6c0.6,0.8,1.1,1.7,1.6,2.6
				C384.4,248.4,384.7,248.7,384.9,249z M379.8,229.1c0-2.1-0.2-4.2,0-6.3c0.4-4.2,1-8.4,1.5-12.6c0.2-1.4,0.6-2.9-1.4-3.2
				c-0.1,0-0.1-0.4-0.2-0.5c-0.5-0.6-1.1-1-1.9-0.9c-0.4,0.1-0.8-0.4-1.3-0.7c-0.5,0.1-1.2,0.3-1.8,0.4c-0.6,0.1-1,0.5-0.9,1.2
				c0.7,2.9,1.1,5.9,2.1,8.7c1.2,3.3,2.3,6.4,2.2,10C378,226.7,378.5,228,379.8,229.1z M352,218.1c1.6,3.6,13.8,13.4,17.6,14.3
				c-1.8-1.7-3.5-3.3-5.2-5c-0.6-0.6-1.2-1.1-2.2-1c-0.6,0-1.5-0.4-1.7-0.8c-0.3-0.7-1.2-1.6-0.2-2.5c0.2-0.2,0.2-0.9,0.1-1.2
				c-0.3-1.1-0.7-2.2-1.1-3.3c-0.2-0.5-0.5-1-1-1.9C356.4,219.8,354.3,218.5,352,218.1z M363.4,202.2c-2.4-2.1-4.3-4.5-7.5-4.9
				c-0.4,0.6-0.7,1.1-0.8,1.3c-1.7,0.6-3,1.1-4.4,1.5c0.9,2,2.1,3.1,4.5,4.2c0.1-0.3,0.4-0.7,0.3-0.9c-0.4-0.8,0.3-0.8,0.6-1.1
				c0.2-0.1,2.6,0.1,2.8,0.3C360.1,203.4,361.9,203.3,363.4,202.2z M345.2,220.4c0.4,1.5,0.7,2.9,1,4.1c4.2,1,8.3,1.9,12.7,2.9
				c-1.9-1.6-3.7-2.9-5.3-4.4c-1.7-1.6-3.6-2.4-5.8-2.8c-1.2-0.2-2.5-0.4-3.7-0.6c-0.1,0-0.2,0.1-0.4,0.4
				C344.2,220.2,344.6,220.3,345.2,220.4z M368.6,194c-0.2,0.5-0.2,0.8-0.4,1.1c-1.4,1.9-1.1,3.8-0.2,5.7c0.5,1,0.9,2,1.1,3.1
				c0.5,2.5,2.3,4.1,3.8,6.1c0.1-0.5,0.2-0.7,0.1-0.9c-0.3-1.6-0.3-3.3-0.9-4.7c-0.6-1.4,0.2-3.3-1.4-4.4c-0.2-0.1-0.2-0.7-0.2-1
				c0-1.1,0.1-2.2,0.3-3.2c0.3-1.4,0.2-1.5-1.1-1.7C369.4,194.1,369.1,194.1,368.6,194z M347.3,203.6c1.6-2.2,2.6,0.1,3.7,0.2
				c0.2,0.9,0.4,1.7,0.5,2.5c0.6-0.6,1-1,1.4-1.5c-2.3-2.2-4.2-4.7-5.6-7.7c-0.5-1.1-0.8-2.5-2.5-1.8c-0.1,0-0.4-0.5-0.6-0.5
				c-0.3,0-0.6,0.2-1.1,0.3c0.5,0.5,0.8,0.8,1.1,1.1c-0.1,0.7-0.1,1.3-0.3,1.9c-0.3,0.8,0,1.4,0.5,2
				C345.4,201.3,346.2,202.3,347.3,203.6z M412.5,189c-1.3,0.5-2.5,1-3.8,1.5c-0.8-0.8-2-1.5-2.5-2.5c-0.3-0.6-0.5-1.1-1-1.3
				c-1.8-0.9-2.3-0.6-3.8,1.6c1.1,1.3,2.9,1.4,3.9,2.8c0.5,0.7,1.2,1.3,1.9,1.6c0.7,0.3,1.6,0.5,2.3,0.4c0.4-0.1,0.7-1.1,1-1.6
				c1-0.2,1.9-0.4,3.1-0.6C413.3,190.2,413,189.7,412.5,189z M416,206.7c-0.1-1.3-0.2-2.7-0.3-4.2c-0.7,0.3-1.4,0.7-2.2,1.1
				c0.6,1.3-0.3,3.1,1.6,3.6c0.1,0,0.2,0.5,0.3,0.7c0.3,0.9,0.6,1.7,0.8,2.6c-1.6,1.4-2,3.4-1.1,6.2c1.8-3,4.1-5.7,3.6-9.5
				C417.9,207,417.2,206.9,416,206.7z M389.6,213.1c-1.5,0.4-3.2,0.7-4.1,2.2c-1.6,2.8-2.1,5.9-1.8,9.6c0.4-0.6,0.6-0.9,0.8-1.2
				c1.2-1.7,2.3-3.5,3.5-5.2c0.3-0.5,0.4-1,0.6-1.6C388.9,215.7,389.3,214.5,389.6,213.1z M406,233.3c-1.1,0-2.2,0-3.5,0
				c-2.3,2.5-4.5,5.4-6.1,8.7c1.3-0.7,2.5-1.6,3.7-2.4c1.1-0.7,2.3-1.4,3-2.6c0.2-0.4,0.8-0.7,1.3-0.9c0.6-0.2,1.2-0.3,1.8-0.5
				C406.2,234.8,406.1,234,406,233.3z M388.3,207.1c0.8-0.8,1.6-1.5,2.3-2.4c0.3-0.4,0.6-1.1,0.5-1.6c-0.3-1.7-0.8-3.5-1.2-5.2
				c-1.4,0.4-2.3,1.6-3.5,0.8C387,201.6,387.7,204.3,388.3,207.1z M348.4,215c0.1-2.1-0.3-3.9-2.2-5c-1.1-0.7-2.2-1.5-3.3-2.2
				c-0.3-0.2-0.6-0.2-1-0.2c0.2,0.9,0.3,1.7,0.5,2.4c0.1,0.4,0.3,0.8,0.6,1.1C344.8,212.4,346.6,213.6,348.4,215z M412.3,202.3
				c-0.6,1.9-1.7,2.4-3.2,2.5c-1.9,0.1-2.1,0.5-2.8,3.6c0.6,0.2,1.4,0.9,1.7,0.7c0.6-0.4,1-1.3,1.4-1.8c0.8-0.5,1.6-0.8,2.2-1.2
				C413.5,205,413.6,204.8,412.3,202.3z M365.2,187.5c-1.2-0.5-2.3-1-3.4-1.5c-0.1-0.3-0.2-0.8-0.3-1.3c-0.2,0-0.3,0.1-0.5,0.1
				c-0.1,2.2-0.9,4.5,0.7,6.4c1-0.4,1.9-0.9,3.1-1.4C364.9,189.4,365,188.6,365.2,187.5z M412.5,220c1.1-1.8,1.1-3.8,1.1-5.8
				c0-0.5-0.4-0.9-0.6-1.3c-2.5,1.5-3.6,3.5-2.7,6.4C411,219.5,411.7,219.7,412.5,220z M386.7,204.8c-2.3,0-2.9,1.9-3.5,3.1
				c-0.6,1.3,0.4,2.5,1.3,3.6C386.6,209.7,386.8,207.4,386.7,204.8z M406.9,204.5c-1.1,0-2,0-2.9,0c-0.2-1.1-0.3-2.1-0.5-3.4
				c-1.2,0.9-2.3,1.6-3.5,2.4c0.4,0.8,0.7,1.3,1,1.8c1.6,0.1,3.1,0.2,4.5,0.3c0.1,0.6,0.2,1,0.2,1.4c0.1,0,0.2,0,0.3,0
				C406.3,206.4,406.5,205.7,406.9,204.5z M339.6,203.2c1.3,1.6,1.6,3.7,3.6,4.1c0.2-0.7,0.1-1.5,0.5-1.8c0.7-0.8,0.4-1.5,0.1-2.1
				c-0.3-0.6-0.8-1.1-1.3-1.8C341.6,202.1,340.8,202.5,339.6,203.2z M349.4,220c0.1-0.1,0.2-0.3,0.2-0.4c-1.8-1.4-2.9-3.7-5.1-5
				c0.4,1.8,0.8,3.2,1.1,4.7C347,219.5,348.2,219.7,349.4,220z M386.8,204.2c-0.3-1.5-0.6-2.6-0.9-3.8c-0.3-1.1-0.9-1.4-1.9-1
				c-0.3,0.1-0.7,0.2-1.2,0.3c0.3,0.9,0.4,1.9,1,2.5C384.5,203,385.5,203.4,386.8,204.2z M364.5,209.4c2,0.7,3.5,1.3,5,1.9
				c0.1-0.1,0.2-0.2,0.3-0.3c-0.8-1.2-1.6-2.3-2.4-3.4C366.4,208.2,365.6,208.7,364.5,209.4z M403.6,176.8c-0.8,1.6-1.5,2.9-2.1,4.2
				c-0.5,0-0.8,0.1-1.4,0.1c0.4,0.8,0.7,1.3,1.3,2.3C402.1,180.9,404.6,179.8,403.6,176.8z M400.8,206.1c-0.7-0.8-1.4-1.7-2.2-2.5
				c-0.5-0.5-1.2-0.2-1.3,0.4c-0.2,1.3,0.9,2,1.6,2.8C399.7,207.6,400.1,206.8,400.8,206.1z M391.2,196.8c0.6,2,1,3.5,1.5,5.1
				c1.1-1.2,1.5-2.4,1.2-3.4C392.9,197.9,392.2,197.5,391.2,196.8z M395.8,184.6c-1.4-0.7-1.4-1.4-0.9-2.4c0.1-0.1-0.4-0.6-0.6-0.9
				c-0.2,0.2-0.6,0.7-0.6,0.7c1,1.1-0.2,1.9-0.3,2.9c-0.1,0.5,0.2,1.1,0.4,1.7c-0.1-0.2-0.2-0.3-0.2-0.5
				C394.2,185.6,394.8,185.3,395.8,184.6z M417.8,195.8c-0.1,0.1-0.3,0.2-0.5,0.2c-0.6,0.2-1.2,0.5-1,1.3c0.1,0.6,1.2,1.1,1.9,0.8
				c0.6-0.2,1.2-0.4,2.2-0.6C419.4,196.9,418.6,196.4,417.8,195.8z M420.4,211.1c0.1,0,0.2,0.1,0.3,0.1c0.8-1.1,1.6-2.3,2.3-3.4
				c-0.4-0.5-0.8-1-1.3-1.7C421.2,208,420.8,209.5,420.4,211.1z M382.8,210.4c-0.1,0-0.3,0-0.4,0c-0.2,1.5-0.5,3.1-0.7,4.6
				c0.1,0.1,0.2,0.1,0.4,0.2c0.6-1,1.3-1.9,1.9-2.9C383.5,211.5,383.1,211,382.8,210.4z M392,209.8c-1.8,1-3.5,1.5-4.8,3.6
				C389.1,212.2,391.3,212.6,392,209.8z M404.5,196.3c-1.6,0.9-0.3,2.3-1,3.6C406,198.3,406,198.3,404.5,196.3z M364.2,197.1
				c-0.1,2.8-0.1,2.8,1.8,4C365.4,199.7,365.8,198.1,364.2,197.1z M398.5,193.4c-0.5,1.4-0.8,2.5-1.3,3.9c1-0.3,1.5-0.5,2-0.7
				C399,195.6,398.8,194.7,398.5,193.4z M403.4,181.9c1.1,0.1,1.8,0.1,2.6,0.2c-0.4-0.9-0.6-1.6-1-2.6
				C404.4,180.4,404,181,403.4,181.9z M381.6,194.6c0.3,1,0.7,2,1.1,3.4c0.2-1.4,0.3-2.4,0.4-3.4
				C382.6,194.6,382.2,194.6,381.6,194.6z M352.9,214.5c-0.7,0.1-1.5,0.1-1.6,0.4c-0.3,0.9-0.1,1.8,0.9,2.4
				C352.5,216.4,352.6,215.7,352.9,214.5z M409.9,214.1c-0.2-0.1-0.4-0.1-0.6-0.2c-1.2,1.3-0.2,2.8-0.2,4.3
				C409.4,216.8,409.7,215.4,409.9,214.1z M396,201.7c-0.6,0.7-1.1,1.5-1.2,2.6C396.9,202.9,396.9,202.9,396,201.7z M349.1,216
				c0.7,0.7,1.2,1.2,1.8,1.7c0.1,0,0.2-0.1,0.2-0.1c-0.2-0.7-0.4-1.4-0.6-2.3C350,215.6,349.6,215.8,349.1,216z M356.2,193.7
				c0,2,0.8,2.8,2.5,2.9C357.8,195.6,357.2,194.8,356.2,193.7z M364.2,223.3c0-1.3,0-2.1,0-3.2C362.9,221.8,362.9,221.8,364.2,223.3
				z M425,196.6c-0.4-0.9-0.6-1.5-0.9-1.9c-0.1-0.1-0.7,0.1-0.9,0.3c-0.2,0.3-0.2,0.8-0.4,1.2C423.4,196.3,423.9,196.4,425,196.6z
				 M334.7,196.2c0.4,0.6,0.7,1.1,1.1,1.6c0.1-0.1,0.2-0.1,0.4-0.2c0.1-0.7,0.1-1.4,0.2-2.2C335.7,195.8,335.2,195.9,334.7,196.2z
				 M348.6,177.8c-0.3-1.4-0.3-1.4-1.8-0.7C347.2,178,347.7,178.3,348.6,177.8z M379.2,187.4c0.3-0.7,0.7-1.3,1-2
				C378.8,185.2,378.6,185.6,379.2,187.4z M339.3,184.1c-0.2-0.7-0.3-1.3-0.5-1.8C338.2,183.1,338.2,183.1,339.3,184.1z M346.4,178
				c-0.3-0.3-0.6-0.6-0.8-0.9c-0.2,0.3-0.6,0.6-0.6,0.9c0,0.3,0.5,0.6,0.8,0.7C345.8,178.9,346.1,178.4,346.4,178z M345.1,202.9
				c0.1-0.1,0.2-0.3,0.3-0.4c-0.5-0.4-0.9-0.9-1.4-1.3c-0.1,0.1-0.1,0.1-0.2,0.2C344.3,202,344.7,202.5,345.1,202.9z M424.4,201.7
				c0.1-0.2,0.2-0.3,0.2-0.5c-0.2-0.1-0.5-0.3-0.7-0.3c-0.2,0-0.4,0.3-0.6,0.4c0.2,0.2,0.3,0.5,0.5,0.5
				C424,202,424.2,201.8,424.4,201.7z M395.1,195.4c-0.2,0-0.3,0-0.5,0c0,0.6,0,1.3,0,1.9c0.1,0,0.1,0,0.2,0
				C394.9,196.7,395,196.1,395.1,195.4z M399.2,184.9c1.3,0.5,1.5-0.3,1.9-1.4C400.2,184.1,399.8,184.5,399.2,184.9z M345.2,179.4
				c-0.2,0.8-0.3,1.5,1.1,1.7C345.9,180.3,345.6,179.8,345.2,179.4z M352.5,192.3c0.1-0.9,0-1.3-1-0.8
				C351.9,191.8,352.2,192,352.5,192.3z M350,199.5c0.1-0.1,0.2-0.1,0.3-0.2c-0.2-0.4-0.4-0.8-0.6-1.3c-0.1,0.1-0.2,0.1-0.4,0.2
				C349.5,198.7,349.7,199.1,350,199.5z M335.3,219.5c0-0.1-0.1-0.2-0.1-0.4c-0.3,0.1-0.6,0.2-0.9,0.4c0,0.1,0.1,0.2,0.1,0.3
				C334.7,219.7,335,219.6,335.3,219.5z M352.3,184.3c0.1,0.5,0.2,0.8,0.3,1.3C352.9,185,353.6,184.5,352.3,184.3z M378.4,189.4
				c-0.1-0.2-0.2-0.3-0.2-0.5c-0.3,0.2-0.6,0.4-0.8,0.6c0,0,0.1,0.2,0.1,0.4C377.8,189.7,378.1,189.6,378.4,189.4z"/>
			<path class="st6" d="M172.4,276.7c-0.2-0.5-0.8-0.7-1.3-0.5c-0.6,0.2-0.9,0.9-0.7,1.5c0.2,0.5,0.5,1.1,0.8,1.8l-3,0l-0.6-2
				l-24.7-2.9c0.2-0.3,0.3-0.7,0.1-1l-6.6-13.8c-0.2-0.5-0.9-0.7-1.4-0.5c-0.5,0.2-0.7,0.9-0.5,1.4l6.6,13.8l0,0l-5.6,0.1
				c0,0,0,0,0,0c1.2-1.1,1.8-2.4,1-3.1c0.1-0.1,0.3-0.2,0.3-0.2s-0.2-0.4-1.3-0.8c-1.1-0.4-2.7,1.6-2.7,1.6l-3.4,2.1l-0.8-0.3
				l-2.9-2.6l-0.1-0.1l1.3-2c0,0,1.2,0.5,1.3-0.5c0.1-0.7-0.1-2.3-0.2-3.1c0.3-0.1,0.5-0.2,0.6-0.3c0.2-0.3,0.1-0.8,0.1-0.8
				s-0.4,0.2-0.9-0.2c-0.5-0.4-2.7-1.2-3.7-0.4c-1,0.8-1.2,2.2-0.9,3c0.3,0.8,0.2,1.8,0.2,1.8l0.1,0c-0.1,0.3-0.1,0.6-0.1,0.7l0,0
				c-2.6,0.6-3.7,3.6-4.1,5.6l-5.8,0.1l-0.2-22.6c0-0.3-0.2-0.6-0.4-0.8l25.7-0.2l2.8,0l-3.1-1.6c0,0-13.6-4.1-15.7-5.2
				c-2.1-1.2-4.7,1.4-9.3,0.9c-4.6-0.4-6.1-0.5-10.7,0.7c-4.5,1.2-6.8-2.1-10.9-0.5c-4.1,1.6-10.7,2.6-15.8,0.6
				c-5.1-2-4.3,1.3-11.5,2.1c-4.9,0.5-6.9-0.2-7.7-0.8c0-0.4,0-0.8,0-1.2c0-0.6-0.5-1-1-1c0,0,0,0,0,0c-0.6,0-1,0.5-1,1
				c0.1,7,0.2,16,0.2,22.5c0,0.1,0,0.2,0,0.2c0,0.1,0,0.2,0,0.2c0,2.7,0,4.9,0,6.3l-2.5,0l0,1.4l-7.6,0.1c-0.4,0-0.6,0.3-0.6,0.7
				c0,0,0,0.1,0,0.1c0,0.1,0,0.1,0,0.2l0.1,13.6c0,0.1,0,0.1,0,0.2c0,0.4,0.3,0.6,0.7,0.6l7.6-0.1l0,3.3l6.2-0.1l0,1l17.9-0.2
				c-0.3,0.8-0.5,1.8-0.5,2.7c0,4.2,3.5,7.6,7.7,7.6c4.2,0,7.6-3.5,7.6-7.7c0-1-0.2-1.9-0.5-2.7l56.1-0.5c-0.3,0.8-0.5,1.8-0.5,2.7
				c0,4.2,3.5,7.6,7.7,7.6s7.6-3.5,7.6-7.7c0-1-0.2-1.9-0.5-2.7l4.1,0l0-0.1l6.7-0.1c0,0,1.6-0.4,2.9-6.3
				C175.8,284.1,173.4,278.7,172.4,276.7z M171.7,280.5c0.2,0.4,0.3,0.9,0.4,1.3l-3.1,0l-0.4-1.3L171.7,280.5z M89.9,259.3
				c0,0-0.1,0.1-0.2,0.1C89.8,259.3,89.8,259.3,89.9,259.3z M87.9,267l-0.1-0.6c0.1-0.1,0.3-0.2,0.4-0.3l0.3,1.1
				C88.2,267.1,87.9,267,87.9,267z M52.2,283.6l-6.9,0.1l0-2.2l6.9-0.1L52.2,283.6z M45.3,285l6.9-0.1l0,2.2l-6.9,0.1L45.3,285z
				 M133.7,272.5c0,0,0.9-0.4,1.4-0.5c0.2,0.4,0.3,1-0.4,1.9c-0.2,0.2-0.3,0.4-0.4,0.5l-3.1,0L133.7,272.5z M123.7,274.4
				c0,0,0.1,0,0.3,0.1l-0.3,0C123.7,274.4,123.7,274.4,123.7,274.4z M110.9,274.6c-0.1-0.5-0.3-0.9-0.6-1.3c0.3,0,0.6,0,0.9,0l0,1.3
				L110.9,274.6z M111,252l0.2,20c-0.7-0.1-1.5,0.1-1.5,0.1l-3.8-3.8l-0.3-2c0.2-0.3,0.2-0.8,0-1.4c-0.3-0.7-0.5-2.5-0.9-3.1
				c-0.4-0.7-1.6-0.9-2.4-0.7c0.1-0.1,0.2-0.3,0.3-0.4c0.3,0,0.5-0.1,0.6-0.5c0.1-0.2,0.1-0.4,0.1-0.6c0-0.1,0.1-0.1,0.1-0.1
				s0.7-3.7-1.5-4.8c-1,0.3-2.2,0.2-3,1.3c-0.4,0.5-0.4,2.1-0.2,3.7c0,0.1-0.4,0.9-0.4,1.8c0,0-0.1,0-0.1,0
				c-0.8,0.3-1.4,1.1-1.4,2.9c0.1,2.4,0.4,2.7,0.4,2.7l0.1,0c0.1,0.9,0.4,3.2,0.9,3.7c0.2,0.3,0.8,0.7,1.4,1.1
				c0.1,0.4,0.4,0.6,0.8,0.7c-0.3,0.6-0.3,1.4-0.2,2.1l-7.3,0.1c0.5-1.2,0.9-2.6,1-3.4c0-0.2,0-0.4,0-0.6c0,0,0.5,0.4,0.8,0.7
				c0.3,0.3,1.2,0,1.4-0.3s0.5-1.4-0.3-2c-0.8-0.6-1.8-0.6-3.2-0.8c-0.4-0.1-0.9-0.2-1.4-0.3l0.3,0l-0.8-3.2l0.1,0l-0.5-2.3
				c0.3-1.2,0.1-2,0.1-2s0,0-0.4-0.3c-0.2-0.1-0.1-0.5,0.1-0.9c0.4,0.1,1.2,0.3,1.6-1.2c0.3-1.1,0.2-2.4,0-3.1c0,0,0,0,0,0
				c0.3,0.1,2.7-1,1.5-1.5c-0.4-0.2-1.7-0.6-2.2-0.9c-1.1-0.7-3.2-0.5-3.9,1.2c-0.7,1.8,0,2.5,0,2.5l0.3,0.6c0,0,0,0,0.1-0.1
				c0,0.3,0.1,0.5,0.1,0.5l-0.4,0.6c-0.5-0.1-1-0.1-1.5,0.2c-0.4,0.2-0.8,0.5-1.3,0.7c-1.7,0.7-3.4,3.8-4.5,5.2
				c-1.1,1.4-2.1,5-2.1,5s0,0.1,0.3,0.2c0.1,0.6,0.2,1.7,0.9,2.8c0.2,0.4,0.7,0.6,1.4,0.8l-1.9,0L73.3,260c-0.2-0.5-0.8-0.8-1.3-0.6
				c-0.5,0.2-0.8,0.8-0.6,1.3l5.6,14.2l-7.8,0.1c-0.1-0.6-0.3-2-0.9-3.5c-1.4-3.4-3.6-4.1-5.2-4.1l-6.5,0.1c0-3.7-0.1-8.8-0.2-15.9
				l55-0.5C111.2,251.3,111,251.6,111,252z M56.7,269.6l6.5-0.1c2.8,0,3.7,4,4,5.5l-10.5,0.1C56.7,274,56.7,272.3,56.7,269.6z
				 M52.2,280.1l-6.9,0.1l0-2.2l6.9-0.1L52.2,280.1z M45.3,290.7l0-2.2l6.9-0.1l0,2.2L45.3,290.7z M171.3,292.4l-2.3,0.2l2.7-3.2
				l0.5-3.1l-2-0.8l-0.8-2.6l3,0c0.2,1,0.4,2,0.4,3C172.9,290.3,171.3,292.4,171.3,292.4z"/>
			<path class="st6" d="M413.1,291.8c-0.1,0-0.2,0.1-0.3,0.1c-0.8,0.4-1.6,0.8-2.5,1.2c-0.3,0.2-0.4,0.4-0.5,0.7
				c-0.1,1.5-0.1,3.1,0,4.6c0,1,0.1,1.9,0.1,2.9c0,0.8,0.4,1.3,1.1,1.7c0.3,0.2,0.5,0.4,0.8,0.5c0.1,0.1,0.2,0.2,0.3,0.3
				c0.1,0.2,0.1,0.3,0,0.4c-0.1,0.1-0.2,0.3-0.3,0.4c-0.1,0.1-0.2,0.2-0.4,0.2c-0.6,0-1.2,0-1.8-0.2c-0.2-0.1-0.4-0.2-0.5-0.4
				c-0.1-0.4-0.2-0.7-0.3-1.1c0-0.1-0.1-0.3-0.1-0.4c0-0.1-0.1-0.1-0.2,0c-0.1,0.1-0.1,0.1-0.2,0.2c-0.1,0.1-0.2,0.1-0.2,0
				c-0.1-0.1-0.1-0.2-0.1-0.3c0-0.5,0-1,0-1.4c0.2-1.6,0.2-3.3,0.1-4.9c-0.1-1.6-0.2-3.3-0.3-4.9c0-0.3,0.4-0.9,0.8-1.1
				c0.4-0.2,0.9-0.4,1.3-0.6c0.9-0.4,1.4-1.1,1.6-2c0.1-0.3,0.1-0.5,0.2-0.8c0.1-0.5,0-0.9-0.1-1.3c-0.4-1.2-0.7-2.5-0.9-3.8
				c-0.1-0.3-0.1-0.6-0.1-0.9c0-0.1,0-0.2-0.1-0.3c0,0,0,0-0.1,0c-0.1,0.1-0.1,0.1-0.2,0.2c-0.2,0.2-0.3,0.5-0.5,0.7
				c-0.1,0.1-0.2,0.2-0.3,0.2c-0.1,0-0.1,0.1-0.2,0.1c-0.1,0.1-0.1,0.2-0.2,0.3c-0.2,0.3-0.4,0.6-0.7,0.8c-0.3,0.2-0.5,0.3-0.7,0.5
				c0,0-0.1,0.1-0.1,0c0,0,0-0.1,0-0.1c0-0.4,0.1-0.8,0.1-1.2c0.1-0.7,0.2-1.5,0.3-2.2c0.1-0.6,0.3-1.2,0.7-1.6
				c0.6-0.7,1.3-1.3,1.9-2c0,0,0.1-0.1,0.1-0.1c1.3-0.4,2.4-1.1,3.6-1.8c0.3-0.1,0.5-0.3,0.8-0.4c0.4-0.1,0.8-0.1,1.2-0.1
				c1.3,0,2.6,0,4-0.1c1.4,0,2.9-0.1,4.3-0.2c2-0.1,4.1,0,6.1,0.1c0.6,0,1.2,0.1,1.7,0.1c0.6,0,1.3-0.2,1.9-0.3
				c0.9-0.2,1.8-0.2,2.7-0.1c0.2,0,0.5,0.1,0.7,0.1c0.6,0,1.3,0,1.9,0c0.1,0,0.3-0.1,0.4-0.1c0.3-0.1,0.5-0.2,0.8-0.3
				c0.2-0.1,0.3-0.2,0.3-0.4c0.1-0.4,0.3-0.8,0.4-1.1c0.2-0.7,0.5-1.5,0.7-2.2c0-0.1,0.1-0.3,0.1-0.4c0-0.3-0.1-0.5-0.4-0.6
				c-0.2,0-0.3-0.1-0.5-0.1c-0.2,0-0.4,0-0.6-0.1c-0.2,0-0.5-0.1-0.6-0.3c-0.6-0.6-1.1-1.2-1.3-2c-0.1-0.4-0.2-0.9-0.2-1.3
				c0-0.2-0.1-0.4-0.1-0.6c0-0.1,0-0.1,0-0.2c0-0.2,0-0.3,0.2-0.4c0.2-0.1,0.3,0.1,0.4,0.2c0.4,0.3,0.8,0.6,1.3,0.7
				c0.6,0.2,1.1,0.6,1.6,1c0.2,0.2,0.5,0.5,0.8,0.6c0.1,0,0.2,0,0.2,0.1c0.2,0,0.3,0,0.2-0.2c-0.1-0.4-0.3-0.8-0.6-1.1
				c-0.9-1-1.8-1.9-2.9-2.7c-1.4-1-2.6-2.1-3.8-3.3c-1.2-1.2-1.2-1.2-1.7-2.9c-0.1-0.5-0.1-0.9-0.1-1.4c0-0.1,0-0.1,0-0.2
				c0.1-0.1,0.1-0.1,0.2-0.1c0.1,0,0.2,0.1,0.2,0.1c0.1,0.3,0.2,0.5,0.2,0.8c0.1,0.6,0.4,1.2,0.7,1.8c0.2,0.4,0.6,0.6,1,0.8
				c0.1,0,0.1,0,0.2,0c0-0.1,0-0.1,0-0.2c-0.1-0.5-0.3-1-0.4-1.5c-0.2-1-0.1-2,0.2-3c0-0.1,0.1-0.3,0.2-0.4c0.1-0.1,0.2-0.1,0.2,0.1
				c0,0.2,0.1,0.4,0.1,0.6c0,0.8,0.1,1.5,0.1,2.3c0,0.1,0,0.2,0.1,0.3c0,0,0.1,0.1,0.1,0.1c0,0,0.1-0.1,0.1-0.1
				c0.1-0.3,0.1-0.6,0.1-0.8c0.2-1,0.7-1.9,1.5-2.6c0.2-0.1,0.4-0.2,0.6-0.2c0.1,0,0.2,0,0.2,0.2c0,0.2,0,0.4-0.1,0.5
				c-0.3,0.4-0.5,0.8-0.8,1.2c-0.4,0.7-0.7,1.5-0.7,2.3c0,0.5,0.1,0.7,0.6,0.6c0.8-0.1,1.6-0.4,2.3-0.9c0.2-0.2,0.5-0.4,0.8-0.4
				c0.1,0,0.2,0,0.4,0c0.2,0,0.2,0.1,0.2,0.3c-0.1,0.3-0.3,0.6-0.5,0.8c-0.7,0.6-1.5,0.9-2.3,1.2c-0.3,0.1-0.6,0.1-0.8,0.3
				c-0.5,0.4-0.5,0.9-0.2,1.4c0.1,0.2,0.3,0.4,0.5,0.6c0.4,0.3,0.8,0.6,1.2,0.9c0.7,0.5,1.4,1,2.1,1.5c0.4,0.3,0.4,0.3,0.7-0.1
				c0.5-0.8,0.9-1.6,0.9-2.5c0-0.3,0-0.5,0.1-0.7c0-0.2,0.1-0.2,0.3-0.1c0.1,0.1,0.2,0.3,0.2,0.4c0,0.6,0,1.3,0,1.9
				c0,0.1,0,0.1-0.1,0.2c-0.2,0.4-0.4,0.7-0.5,1.1c-0.1,0.3-0.2,0.5-0.2,0.8c0,0.2,0,0.3,0.1,0.5c0.2,0.3,0.4,0.5,0.6,0.8
				c0.1,0.1,0.2,0.1,0.4,0.2c0.6,0.3,1.3,0.3,2,0.2c0,0,0.1,0,0.1,0c0.5-0.1,0.5-0.1,0.6-0.6c0.1-0.3,0.1-0.6-0.1-0.9
				c-0.3-0.5-0.6-1.1-0.8-1.6c0,0,0-0.1-0.1-0.2c0-0.6,0-1.2,0-1.7c0-0.3,0.1-0.6,0.2-0.8c0.1-0.2,0.2-0.3,0.4-0.4
				c0.1-0.1,0.2-0.1,0.3,0c0.1,0.1,0.2,0.2,0.2,0.4c0,0.3-0.1,0.7-0.1,1c-0.1,0.4-0.1,0.8,0.1,1.3c0.2,0.5,0.4,1,0.7,1.4
				c0,0,0.1,0.1,0.1,0.1c0.1,0.1,0.2,0.1,0.3,0c0.1-0.1,0.2-0.2,0.2-0.3c0.4-0.5,0.9-1.1,1.3-1.6c0.2-0.3,0.4-0.5,0.6-0.8
				c0.2-0.2,0.3-0.5,0.3-0.7c0.1-0.9-0.1-1.7-0.2-2.5c-0.1-0.7-0.2-1.4-0.4-2.1c-0.1-0.5-0.3-1-0.4-1.5c0-0.1-0.1-0.2,0-0.3
				c0-0.1,0.1-0.2,0.1-0.2c0.1,0,0.2,0,0.2,0.1c0.1,0.1,0.2,0.3,0.3,0.5c0.5,1,0.8,2.1,1,3.2c0.1,0.7,0.3,1.5,0.4,2.2
				c0,0,0,0.1,0,0.1c0.1,0.2,0.1,0.2,0.3,0.1c0.4-0.3,0.7-0.6,1.1-1c0.1-0.1,0.2-0.3,0.2-0.5c0-0.5-0.1-1-0.1-1.5
				c-0.1-0.8-0.1-1.6,0-2.4c0-0.3,0.1-0.7,0.2-1c0-0.1,0.1-0.2,0.2-0.2c0.1,0,0.2,0.1,0.2,0.2c0,0.3,0,0.6,0.1,0.8
				c0,0.7,0,1.3,0.1,2c0,0.4,0.1,0.7,0.2,1c0.1,0.2,0.2,0.2,0.3,0.1c0.3-0.3,0.4-0.7,0.5-1.1c0.2-0.6,0.2-1.1,0.2-1.7
				c0-0.2,0-0.5,0.1-0.7c0-0.2,0.1-0.4,0.3-0.5c0.1-0.1,0.2-0.1,0.3,0c0.2,0.1,0.2,0.3,0.2,0.5c0.2,0.9,0.1,1.9-0.2,2.8
				c0,0.2-0.1,0.3-0.1,0.5c-0.2,0.9-0.7,1.5-1.2,2.2c-0.7,0.8-1.5,1.4-2.3,2.1c-0.4,0.4-0.9,0.7-1.3,1.1c-0.8,0.7-1.4,1.5-1.9,2.4
				c-0.1,0.3-0.3,0.5-0.4,0.8c0,0.1-0.1,0.2-0.1,0.3c0,0,0,0,0,0c0,0,0.1,0,0.1,0c0.4-0.3,0.8-0.4,1.2-0.6c0.4-0.1,0.8-0.3,1.1-0.5
				c0.3-0.1,0.5-0.3,0.8-0.4c0.1,0,0.2,0,0.2,0c0.2,0,0.3,0.1,0.3,0.3c0,0.1,0,0.2-0.1,0.3c-0.3,0.7-0.6,1.3-1,2
				c-0.2,0.4-0.6,0.8-0.9,1.2c-0.1,0.1-0.2,0.1-0.3,0.1c-0.1,0-0.2,0.1-0.3,0.2c0,0.1-0.1,0.2-0.1,0.3c-0.1,0.2-0.2,0.3-0.1,0.5
				c0,0.1,0.1,0.3,0.1,0.4c0,0,0,0.1,0,0.1c0,0-0.1,0-0.1,0c-0.1-0.1-0.2,0-0.3,0.1c-0.1,0.4-0.3,0.7-0.4,1.1
				c-0.1,0.5-0.1,0.9,0.2,1.3c0.1,0.2,0.1,0.3,0.1,0.5c0,0.3,0,0.5,0,0.8c0,0.2-0.1,0.3-0.2,0.4c-0.3,0.3-0.7,0.5-1.1,0.6
				c-0.2,0.1-0.3,0.2-0.3,0.4c-0.1,0.7-0.1,1.4-0.2,2.1c-0.1,0.9-0.4,1.8-0.8,2.7c-0.5,1.1-1.3,2-2,2.9c-0.6,0.8-1.2,1.6-1.8,2.5
				c-0.3,0.4-0.5,0.8-0.7,1.1c-0.1,0.1-0.1,0.2-0.2,0.2c-0.7,0.5-1.3,1-2.1,1.4c-0.3,0.1-0.6,0.3-0.9,0.4c-0.3,0.1-0.4,0.3-0.4,0.6
				c0,0.7,0,1.4,0.1,2.1c0.1,1,0.2,1.9,0.3,2.9c0.1,0.6,0.2,1.2,0.3,1.8c0.1,0.4,0,0.8,0.1,1.2c0.1,0.8,0.3,1.6,0.5,2.3
				c0.3,1,0.6,1.9,0.9,2.9c0.1,0.4,0.2,0.7,0.3,1.1c0.1,0.4,0.3,0.7,0.7,1c0.4,0.3,0.7,0.6,1,0.9c0.2,0.2,0.1,0.2,0,0.4
				c-0.1,0.1-0.1,0.2-0.2,0.4c0,0.1-0.1,0.1-0.2,0.1c-0.5,0.1-1,0.1-1.5,0c-0.1,0-0.3-0.1-0.4-0.1c-0.4-0.1-0.6-0.4-0.6-0.8
				c0-0.3,0-0.6,0-0.9c0-0.3-0.2-0.5-0.3-0.7c0,0-0.1,0-0.1,0c0,0-0.1,0.1-0.1,0.1c-0.1,0.1-0.2,0.1-0.3,0c0-0.1-0.1-0.2-0.1-0.3
				c-0.1-1.3-0.2-2.5-0.4-3.8c-0.1-0.4-0.2-0.9-0.4-1.3c-0.3-0.8-0.6-1.5-0.8-2.4c-0.3-1.1-0.9-2.1-1.5-3.1c0-0.1-0.1-0.1-0.2-0.1
				c-0.1,0-0.1,0.1-0.1,0.2c-0.4,1-0.9,2-1.3,3c-0.2,0.4-0.3,0.8-0.4,1.2c-0.1,0.6-0.2,1.2-0.3,1.8c-0.1,0.5-0.1,0.9-0.1,1.4
				c0,0.7,0,1.4,0,2.1c0,0.1,0,0.2,0.1,0.2c0.4,0.4,0.8,0.9,1.2,1.3c0,0,0.1,0.1,0.1,0.1c0.1,0.1,0.1,0.1,0,0.2
				c-0.2,0.1-0.3,0.3-0.3,0.4c0,0.1-0.1,0.2-0.3,0.2c-0.7,0.1-1.4,0-2.1-0.2c-0.3-0.1-0.4-0.3-0.5-0.6c0-0.4,0-0.9,0.2-1.3
				c0.1-0.3,0-0.5-0.1-0.8c0,0-0.1-0.1-0.1-0.1c0,0.1-0.1,0.2-0.1,0.3c0,0.1-0.1,0.1-0.1,0.1c0,0-0.1-0.1-0.1-0.1
				c0-0.4-0.1-0.8,0.1-1.2c0.3-0.7,0.4-1.4,0.5-2.1c0.1-0.9,0.2-1.8,0.3-2.7c0.1-0.5,0.1-1.1,0.1-1.6c0.1-0.9,0.3-1.7,0.4-2.6
				c0.2-1.1,0.4-2.1,0.6-3.2c0-0.2,0-0.2-0.2-0.2c-0.6,0-1.1,0.1-1.7,0.1c-1.3,0.1-2.5,0.2-3.8,0.2c-1.1,0-2.2,0-3.3,0
				c-0.7,0-1.3-0.2-2-0.3c-0.4-0.1-0.8-0.2-1.2-0.3c-0.1,0-0.2,0-0.3,0.1c-0.2,0.3-0.4,0.7-0.6,1c-0.6,0.9-1.2,1.7-2.1,2.3
				c-0.9,0.7-1.8,1.4-2.7,2.1c-0.6,0.4-0.8,1.1-0.5,1.8c0.1,0.3,0.3,0.6,0.5,0.9c1,1.3,2,2.6,2.9,3.8c0.2,0.3,0.4,0.5,0.5,0.9
				c0.1,0.3,0.3,0.5,0.6,0.7c0.5,0.3,1,0.6,1.5,0.8c0.2,0.1,0.3,0.2,0.4,0.3c0.1,0.1,0.1,0.2,0,0.3c-0.1,0.1-0.2,0.3-0.1,0.4
				c0,0,0,0.1,0,0.1c-0.2,0.1-0.3,0.2-0.5,0.3c-0.6,0.1-1.3,0-1.8-0.3c-0.3-0.2-0.5-0.4-0.6-0.7c-0.1-0.2-0.2-0.4-0.2-0.6
				c0-0.1-0.1-0.1-0.1-0.2c-0.1,0-0.1-0.1-0.1,0c0,0,0,0.1,0,0.1c-0.1,0.2-0.3,0.2-0.4,0c-0.1-0.1-0.1-0.2-0.2-0.4
				c-0.2-0.8-0.6-1.5-1.1-2.2c-1-1.6-2.2-3.1-3.4-4.5c-0.2-0.3-0.5-0.6-0.7-0.9c-0.2-0.2-0.2-0.5,0-0.8c0.3-0.5,0.5-0.9,0.7-1.4
				C413.1,292,413.1,291.9,413.1,291.8C413.1,291.8,413.1,291.8,413.1,291.8z"/>
			<path class="st7" d="M581.4,283c0,0-13.8-10.3-29.5-0.7c-0.4-0.1-0.8-0.1-1.4-0.1c0.4-0.7-0.9-0.9-1.3-0.8c0,0-0.3-0.4-1.4-0.4
				c0.6-0.9-0.6-1-2.1-0.5c0-0.9-1.3-0.8-2.8,0c0.3-1.4-1.8-0.8-2.6,0.1c-0.1-0.8-1.5-0.4-1.6-0.1c-0.5-0.7-1.5-0.3-2.2,0.9
				c0,0-1.4-0.9-2.2-0.7c-0.8,0.2-0.5,0.7-0.1,1c-0.1-0.1-1.4,0.3-1.2,0.8c0,0-1.2-0.1-1.8,0c-1.4,0.2-1.3,1.1,0.2,1.4
				c-0.4,0-2.7,0.7-1.3,1.7c-0.2,0.1-0.6,0-0.9,0c0.3-0.5-0.5-0.7-0.8-0.6c0,0-0.2-0.3-0.9-0.3c0.4-0.6-0.3-0.8-1.3-0.3
				c0.1-0.7-0.8-0.6-1.8,0c0.2-1-1.1-0.6-1.7,0.1c-0.1-0.6-0.9-0.3-1-0.1c-0.3-0.6-0.9-0.2-1.4,0.7c0,0-0.9-0.6-1.4-0.5
				c-0.5,0.2-0.4,0.6-0.1,0.8c0,0-0.3,0.1-0.5,0.2c0.4-0.6-0.3-0.9-1.3-0.4c0.1-0.7-0.8-0.7-1.8,0.1c0.3-1.1-1-0.8-1.6,0.1
				c0,0,0,0-0.1,0c0-0.1-0.2-0.4-0.5-0.3c0.2-0.4-0.5-0.5-0.5-0.4c0.4-0.6-0.2-1.3-1.2-1.1c0.3-0.5-0.4-0.8-0.8-0.6
				c0,0-0.2-0.4-0.9-0.3c0.4-0.6-0.3-0.9-1.3-0.4c0.1-0.7-0.8-0.7-1.8,0.1c0.3-1.2-1-0.7-1.7,0.1c-0.1-0.7-0.9-0.3-1-0.1
				c-0.3-0.6-0.9-0.2-1.4,0.8c0,0-0.9-0.7-1.4-0.5c-0.5,0.2-0.4,0.7-0.1,0.9c-0.1,0-0.9,0.4-0.8,0.7c-0.7-0.2-3,0.5-1.1,1.3
				c-0.1,0-1.3,0.5-1.1,1.1c-0.3,0-0.5,0-0.9,0c0.3-0.6-1-0.7-1.3-0.6c0,0-0.3-0.3-1.4-0.3c0.5-0.7-0.7-0.7-2.1-0.4
				c0-0.7-1.3-0.5-2.6-0.1c0.9-0.5-0.1-1-0.6-0.7c0.3-0.2,0.4-0.6-0.1-0.6c0.3-0.4-0.1-0.9-0.8-0.8c0.2-0.3-0.3-0.6-0.6-0.5
				c0,0-0.1-0.3-0.6-0.2c0.3-0.5-0.2-0.7-0.9-0.3c0.1-0.5-0.6-0.5-1.3,0.1c0.2-0.8-0.8-0.6-1.2,0.1c0-0.5-0.6-0.2-0.7,0
				c-0.2-0.5-0.7-0.2-1,0.6c0,0-0.6-0.5-1-0.4c-0.4,0.1-0.3,0.5-0.1,0.6c-0.1,0-0.7,0.3-0.6,0.5c-0.5-0.2-2.2,0.4-0.8,0.9
				c-0.3,0-1.2,0.6-0.6,1.1c0-0.1-0.8,0.4-0.9,0.8c-1,0.1-1.3,0.6-0.2,0.9c-0.1,0.1-0.1,0.2-0.2,0.3c-0.8,0.1-1.5,0.6-0.6,1.1
				c-0.1-0.1-3.3,1.2-1.2,1.5c0,0-1.3,0.4-1.4,0.9c-0.3,0-0.7,0.1-1.2,0.3c0-0.9-1.3-0.8-2.8,0c0.3-1.4-1.8-0.8-2.6,0.1
				c-0.1-0.8-1.5-0.4-1.6-0.1c-0.5-0.7-1.5-0.3-2.2,0.9c0,0-1.4-0.9-2.2-0.7c-0.8,0.2-0.5,0.7-0.1,1c-0.1-0.1-1.4,0.3-1.2,0.8
				c0,0-1.2-0.1-1.8,0c-1.4,0.2-1.3,1.1,0.2,1.4c-0.4,0-2.7,0.7-1.3,1.7c-0.2,0.1-0.6,0-0.9,0c0.3-0.5-0.5-0.7-0.8-0.6
				c0,0-0.2-0.3-0.9-0.3c0.4-0.6-0.3-0.8-1.3-0.3c0.1-0.7-0.8-0.6-1.8,0c0.2-1-1.1-0.6-1.7,0.1c-0.1-0.6-0.9-0.3-1-0.1
				c-0.3-0.6-0.9-0.2-1.4,0.7c0,0-0.9-0.6-1.4-0.5c-0.5,0.2-0.4,0.6-0.1,0.8c0,0-0.3,0.1-0.5,0.2c0.4-0.6-0.3-0.9-1.3-0.4
				c0.1-0.7-0.8-0.7-1.8,0.1c0.3-1.1-1-0.8-1.6,0.1c0,0,0,0-0.1,0c0-0.1-0.2-0.4-0.5-0.3c0.2-0.4-0.5-0.5-0.5-0.4
				c0.4-0.6-0.2-1.3-1.2-1.1c0.3-0.5-0.4-0.8-0.8-0.6c0,0-0.2-0.4-0.9-0.3c0.4-0.6-0.3-0.9-1.3-0.4c0.1-0.7-0.8-0.7-1.8,0.1
				c0.3-1.2-1-0.7-1.7,0.1c-0.1-0.7-0.9-0.3-1-0.1c-0.3-0.6-0.9-0.2-1.4,0.8c0,0-0.9-0.7-1.4-0.5c-0.5,0.2-0.4,0.7-0.1,0.9
				c-0.1,0-0.9,0.4-0.8,0.7c-0.7-0.2-3,0.5-1.1,1.3c0,0-0.7,0.2-1,0.6c-0.2-0.2-0.5-0.4-0.7-0.5c0.7-0.7-0.6-1.7-1.8-2.2
				c0.9-1.1-0.8-1.5-2-1.4c0,0,0.9-0.3,0.6-0.9c-0.3-0.6-2-0.2-2-0.2c1-0.5,0.3-1-0.4-0.9c0.7-0.9-0.6-1.3-1.9-1.1
				c0.4-0.7-0.9-0.8-1.3-0.7c0,0-0.3-0.4-1.4-0.3c0.5-0.9-0.7-0.9-2.1-0.4c0-0.9-1.4-0.7-2.8,0.2c0.2-1.4-1.9-0.7-2.6,0.2
				c-0.1-0.7-1.5-0.3-1.6,0c-0.5-0.7-1.5-0.2-2.1,1c0,0-1.4-0.8-2.2-0.5c-0.8,0.2-0.5,0.8-0.1,1c-0.1-0.1-1.4,0.4-1.1,0.8
				c0,0-1.2,0-1.8,0.1c-1.4,0.3-1.3,1.2,0.3,1.4c-0.4,0-2.7,0.9-1.2,1.7c-0.2,0.1-0.6,0-0.9,0.1c0.2-0.5-0.5-0.7-0.8-0.5
				c0,0-0.2-0.3-0.9-0.2c0.3-0.6-0.4-0.8-1.3-0.3c0-0.7-0.8-0.6-1.8,0.1c0.2-1-1.1-0.6-1.7,0.2c-0.1-0.6-0.9-0.2-1,0
				c-0.3-0.5-1-0.2-1.4,0.8c0,0-0.9-0.6-1.4-0.4c-0.5,0.2-0.3,0.6-0.1,0.8c0,0-0.3,0.1-0.5,0.2c0.3-0.7-0.3-0.9-1.3-0.3
				c0.1-0.7-0.8-0.7-1.8,0.2c0.2-1.1-1-0.7-1.6,0.2c0,0,0,0-0.1,0c0-0.1-0.3-0.4-0.5-0.3c0.1-0.4-0.5-0.4-0.5-0.4
				c0.4-0.6-0.2-1.3-1.2-1c0.2-0.6-0.5-0.7-1-0.7c-0.1-0.1-0.4-0.2-0.8-0.1c0.5-0.7-0.5-0.8-0.7-0.7c0.7-0.9-0.5-1.4-1.9-1.2
				c0.4-0.7-0.9-0.9-1.3-0.8c0,0-0.3-0.4-1.4-0.4c0.6-0.9-0.6-1-2.1-0.5c0-0.9-1.3-0.8-2.8,0c0.3-1.4-1.8-0.8-2.6,0.1
				c-0.1-0.8-1.5-0.4-1.6-0.1c-0.5-0.7-1.5-0.3-2.2,0.9c0,0-1.4-0.9-2.2-0.7c-0.8,0.2-0.5,0.7-0.1,1c-0.1-0.1-1.4,0.3-1.2,0.8
				c0,0-1.2-0.1-1.8,0c-1.4,0.2-1.3,1.1,0.2,1.4c0,0-1.6,0.3-1.7,0.9c-0.1,0-0.2,0.1-0.2,0.1c0-0.5-0.5-0.5-1.1,0
				c0,0-0.1-0.1-0.2-0.1c0-0.3-0.3-0.3-0.6-0.2c0.2-0.6-0.4-0.6-1.4-0.2c0.1-0.7-0.8-0.6-1.8,0c0.2-1-1.1-0.6-1.7,0.1
				c-0.1-0.6-0.9-0.3-1-0.1c-0.3-0.6-0.9-0.2-1.4,0.7c0,0-0.9-0.6-1.4-0.5c-0.5,0.2-0.4,0.6-0.1,0.8c0,0-0.3,0.1-0.5,0.2
				c0.4-0.6-0.3-0.9-1.3-0.4c0.1-0.7-0.8-0.7-1.8,0.1c0.3-1.1-1-0.8-1.6,0.1c0,0,0,0-0.1,0c0-0.1-0.2-0.4-0.5-0.3
				c0.2-0.4-0.5-0.5-0.5-0.4c0.4-0.6-0.2-1.3-1.2-1.1c0.3-0.5-0.4-0.8-0.8-0.6c0,0-0.2-0.4-0.9-0.3c0.4-0.6-0.3-0.9-1.3-0.4
				c0.1-0.7-0.8-0.7-1.8,0.1c0.3-1.2-1-0.7-1.7,0.1c-0.1-0.7-0.9-0.3-1-0.1c-0.3-0.6-0.9-0.2-1.4,0.8c0,0-0.9-0.7-1.4-0.5
				c-0.5,0.2-0.4,0.7-0.1,0.9c-0.1,0-0.9,0.4-0.8,0.7c-0.7-0.2-3,0.5-1.1,1.3c-0.1,0-1.3,0.5-1.1,1.1c-0.3,0-0.5,0-0.9,0
				c0.3-0.6-1-0.7-1.3-0.6c0,0-0.3-0.3-1.4-0.3c0.5-0.7-0.7-0.7-2.1-0.4c0-0.7-1.3-0.5-2.6-0.1c0.9-0.5-0.1-1-0.6-0.7
				c0.3-0.2,0.4-0.6-0.1-0.6c0.3-0.4-0.1-0.9-0.8-0.8c0.2-0.3-0.3-0.6-0.6-0.5c0,0-0.1-0.3-0.6-0.2c0.3-0.5-0.2-0.7-0.9-0.3
				c0.1-0.5-0.6-0.5-1.3,0.1c0.2-0.8-0.8-0.6-1.2,0.1c0-0.5-0.6-0.2-0.7,0c-0.2-0.5-0.7-0.2-1,0.6c0,0-0.6-0.5-1-0.4
				c-0.4,0.1-0.3,0.5-0.1,0.6c-0.1,0-0.7,0.3-0.6,0.5c-0.5-0.2-2.2,0.4-0.8,0.9c-0.3,0-1.2,0.6-0.6,1.1c0-0.1-0.8,0.4-0.9,0.8
				c-1,0.1-1.3,0.6-0.2,0.9c-0.1,0.1-0.1,0.2-0.2,0.3c-0.8,0.1-1.5,0.6-0.6,1.1c-0.1-0.1-3.3,1.2-1.2,1.5c-0.4,0-2.6,1.3-0.4,1.3
				c0,0-0.7,0.5-0.1,0.9c0,0,0,0-0.1,0.1c-0.3-0.3-0.8-0.5-1.3-0.7c0.9-1.1-0.8-1.5-2-1.4c0,0,0.9-0.3,0.6-0.9c-0.3-0.6-2-0.2-2-0.2
				c1-0.5,0.3-1-0.4-0.9c0.7-0.9-0.6-1.3-1.9-1.1c0.4-0.7-0.9-0.8-1.3-0.7c0,0-0.3-0.4-1.4-0.3c0.5-0.9-0.7-0.9-2.1-0.4
				c0-0.9-1.4-0.7-2.8,0.2c0.2-1.4-1.9-0.7-2.6,0.2c-0.1-0.7-1.5-0.3-1.6,0c-0.5-0.7-1.5-0.2-2.1,1c0,0-1.4-0.8-2.2-0.5
				c-0.8,0.2-0.5,0.8-0.1,1c-0.1-0.1-1.4,0.4-1.1,0.8c0,0-1.2,0-1.8,0.1c-1.4,0.3-1.3,1.2,0.3,1.4c-0.4,0-2.7,0.9-1.2,1.7
				c-0.2,0.1-0.6,0-0.9,0.1c0.2-0.5-0.5-0.7-0.8-0.5c0,0-0.2-0.3-0.9-0.2c0.3-0.6-0.4-0.8-1.3-0.3c0-0.7-0.8-0.6-1.8,0.1
				c0.2-1-1.1-0.6-1.7,0.2c-0.1-0.6-0.9-0.2-1,0c-0.3-0.5-1-0.2-1.4,0.8c0,0-0.9-0.6-1.4-0.4c-0.5,0.2-0.3,0.6-0.1,0.8
				c0,0-0.3,0.1-0.5,0.2c0.3-0.7-0.3-0.9-1.3-0.3c0.1-0.7-0.8-0.7-1.8,0.2c0.2-1.1-1-0.7-1.6,0.2c0,0,0,0-0.1,0
				c0-0.1-0.3-0.4-0.5-0.3c0.1-0.4-0.5-0.4-0.5-0.4c0.4-0.6-0.2-1.3-1.2-1c0.2-0.6-0.5-0.7-1-0.7c-0.1-0.1-0.4-0.2-0.8-0.1
				c0.5-0.7-0.5-0.8-0.7-0.7c0.7-0.9-0.5-1.4-1.9-1.2c0.4-0.7-0.9-0.9-1.3-0.8c0,0-0.3-0.4-1.4-0.4c0.6-0.9-0.6-1-2.1-0.5
				c0-0.9-1.3-0.8-2.8,0c0.3-1.4-1.8-0.8-2.6,0.1c-0.1-0.8-1.5-0.4-1.6-0.1c-0.5-0.7-1.5-0.3-2.2,0.9c0,0-1.4-0.9-2.2-0.7
				c-0.8,0.2-0.5,0.7-0.1,1c-0.1-0.1-1.4,0.3-1.2,0.8c0,0-1.2-0.1-1.8,0c-1.4,0.2-1.3,1.1,0.2,1.4c0,0-1.6,0.3-1.7,0.9
				c-0.1,0-0.2,0.1-0.2,0.1c0-0.5-0.5-0.5-1.1,0c0,0-0.1-0.1-0.2-0.1c0-0.3-0.3-0.3-0.6-0.2c0.2-0.6-0.4-0.6-1.4-0.2
				c0.1-0.7-0.8-0.6-1.8,0c0.2-1-1.1-0.6-1.7,0.1c-0.1-0.6-0.9-0.3-1-0.1c-0.3-0.6-0.9-0.2-1.4,0.7c0,0-0.9-0.6-1.4-0.5
				c-0.5,0.2-0.4,0.6-0.1,0.8c0,0-0.3,0.1-0.5,0.2c0.4-0.6-0.3-0.9-1.3-0.4c0.1-0.7-0.8-0.7-1.8,0.1c0.3-1.1-1-0.8-1.6,0.1
				c0,0,0,0-0.1,0c0-0.1-0.2-0.4-0.5-0.3c0.2-0.4-0.5-0.5-0.5-0.4c0.4-0.6-0.2-1.3-1.2-1.1c0.3-0.5-0.4-0.8-0.8-0.6
				c0,0-0.2-0.4-0.9-0.3c0.4-0.6-0.3-0.9-1.3-0.4c0.1-0.7-0.8-0.7-1.8,0.1c0.3-1.2-1-0.7-1.7,0.1c-0.1-0.7-0.9-0.3-1-0.1
				c-0.3-0.6-0.9-0.2-1.4,0.8c0,0-0.9-0.7-1.4-0.5c-0.5,0.2-0.4,0.7-0.1,0.9c-0.1,0-0.9,0.4-0.8,0.7c-0.7-0.2-3,0.5-1.1,1.3
				c-0.1,0-1.3,0.5-1.1,1.1c-0.3,0-0.5,0-0.9,0c0.3-0.6-1-0.7-1.3-0.6c0,0-0.3-0.3-1.4-0.3c0.5-0.7-0.7-0.7-2.1-0.4
				c0-0.7-1.3-0.5-2.6-0.1c0.9-0.5-0.1-1-0.6-0.7c0.3-0.2,0.4-0.6-0.1-0.6c0.3-0.4-0.1-0.9-0.8-0.8c0.2-0.3-0.3-0.6-0.6-0.5
				c0,0-0.1-0.3-0.6-0.2c0.3-0.5-0.2-0.7-0.9-0.3c0.1-0.5-0.6-0.5-1.3,0.1c0.2-0.8-0.8-0.6-1.2,0.1c0-0.5-0.6-0.2-0.7,0
				c-0.2-0.5-0.7-0.2-1,0.6c0,0-0.6-0.5-1-0.4c-0.4,0.1-0.3,0.5-0.1,0.6c-0.1,0-0.7,0.3-0.6,0.5c-0.5-0.2-2.2,0.4-0.8,0.9
				c-0.3,0-1.2,0.6-0.6,1.1c0,0-0.1,0-0.2,0.1c0.1-0.9-2-0.6-2-0.6c1-0.5,0.4-1-0.3-0.9c0.7-0.9-0.5-1.4-1.9-1.2
				c0.4-0.7-0.9-0.9-1.3-0.8c0,0-0.3-0.4-1.4-0.4c0.6-0.9-0.6-1-2.1-0.5c0-0.9-1.3-0.8-2.8,0c0.3-1.4-1.8-0.8-2.6,0.1
				c-0.1-0.8-1.5-0.4-1.6-0.1c-0.5-0.7-1.5-0.3-2.2,0.9c0,0-1.4-0.9-2.2-0.7c-0.8,0.2-0.5,0.7-0.1,1c-0.1-0.1-1.4,0.3-1.2,0.8
				c0,0-1.2-0.1-1.8,0c-1.4,0.2-1.3,1.1,0.2,1.4c-0.4,0-2.7,0.7-1.3,1.7c-0.2,0.1-0.6,0-0.9,0c0.3-0.5-0.5-0.7-0.8-0.6
				c0,0-0.2-0.3-0.9-0.3c0.4-0.6-0.3-0.8-1.3-0.3c0.1-0.7-0.8-0.6-1.8,0c0.2-1-1.1-0.6-1.7,0.1c-0.1-0.6-0.9-0.3-1-0.1
				c-0.3-0.6-0.9-0.2-1.4,0.7c0,0-0.9-0.6-1.4-0.5c-0.5,0.2-0.4,0.6-0.1,0.8c0,0-0.3,0.1-0.5,0.2c0.4-0.6-0.3-0.9-1.3-0.4
				c0.1-0.7-0.8-0.7-1.8,0.1c0.3-1.1-1-0.8-1.6,0.1c0,0,0,0-0.1,0c0-0.1-0.2-0.4-0.5-0.3c0.2-0.4-0.5-0.5-0.5-0.4
				c0.4-0.6-0.2-1.3-1.2-1.1c0.3-0.5-0.4-0.8-0.8-0.6c0,0-0.2-0.4-0.9-0.3c0.4-0.6-0.3-0.9-1.3-0.4c0.1-0.7-0.8-0.7-1.8,0.1
				c0.3-1.2-1-0.7-1.7,0.1c-0.1-0.7-0.9-0.3-1-0.1c-0.3-0.6-0.9-0.2-1.4,0.8c0,0-0.9-0.7-1.4-0.5c-0.5,0.2-0.4,0.7-0.1,0.9
				c-0.1,0-0.9,0.4-0.8,0.7c-0.7-0.2-3,0.5-1.1,1.3c-0.1,0-1.3,0.5-1.1,1.1c-0.3,0-0.5,0-0.9,0c0.3-0.6-1-0.7-1.3-0.6
				c0,0-0.3-0.3-1.4-0.3c0.5-0.7-0.7-0.7-2.1-0.4c0-0.7-1.3-0.5-2.6-0.1c0.9-0.5-0.1-1-0.6-0.7c0.3-0.2,0.4-0.6-0.1-0.6
				c0.3-0.4-0.1-0.9-0.8-0.8c0.2-0.3-0.3-0.6-0.6-0.5c0,0-0.1-0.3-0.6-0.2c0.3-0.5-0.2-0.7-0.9-0.3c0.1-0.5-0.6-0.5-1.3,0.1
				c0.2-0.8-0.8-0.6-1.2,0.1c0-0.5-0.6-0.2-0.7,0c-0.2-0.5-0.7-0.2-1,0.6c0,0-0.6-0.5-1-0.4c-0.4,0.1-0.3,0.5-0.1,0.6
				c-0.1,0-0.7,0.3-0.6,0.5c-0.5-0.2-2.2,0.4-0.8,0.9c-0.3,0-1.2,0.6-0.6,1.1c0-0.1-0.8,0.4-0.9,0.8c-1,0.1-1.3,0.6-0.2,0.9
				c-0.1,0.1-0.1,0.2-0.2,0.3c-0.3,0.1-0.7,0.2-0.9,0.4c-18.3-1.2-19.5-3.2-35.1-3.3c-0.2-0.4-0.9-1.2-2-1.5c0.8-1.1-0.8-1.5-2-1.4
				c0,0,0.9-0.3,0.6-0.9c-0.3-0.6-2-0.2-2-0.2c1-0.5,0.3-1-0.4-0.9c0.7-0.9-0.6-1.3-2-1.1c0.4-0.7-0.9-0.8-1.3-0.7
				c0,0-0.3-0.4-1.4-0.3c0.5-0.9-0.7-0.9-2.1-0.3c0-0.9-1.4-0.7-2.8,0.2c0.2-1.4-1.9-0.7-2.6,0.2c-0.2-0.7-1.5-0.3-1.6,0
				c-0.5-0.7-1.5-0.2-2.1,1c0,0-1.4-0.8-2.2-0.5c-0.8,0.2-0.5,0.8-0.1,1c-0.1-0.1-1.4,0.4-1.1,0.8c0,0-1.2,0-1.8,0.1
				c-1.4,0.3-1.3,1.2,0.3,1.4c-0.4,0-2.7,0.9-1.2,1.7c-0.2,0.1-0.6,0-0.9,0.1c0.2-0.5-0.5-0.7-0.9-0.5c0,0-0.2-0.3-0.9-0.2
				c0.3-0.6-0.4-0.8-1.3-0.3c0-0.7-0.9-0.6-1.8,0.2c0.2-1-1.1-0.6-1.7,0.2c-0.1-0.6-0.9-0.2-1,0c-0.3-0.5-1-0.2-1.4,0.8
				c0,0-0.9-0.6-1.4-0.4c-0.5,0.2-0.3,0.6-0.1,0.8c0,0-0.3,0.1-0.5,0.2c0.3-0.7-0.3-0.9-1.3-0.3c0.1-0.7-0.8-0.7-1.8,0.2
				c0.2-1.1-1-0.7-1.6,0.2c0,0,0,0-0.1,0c0-0.1-0.3-0.4-0.5-0.3c0.1-0.4-0.5-0.4-0.5-0.4c0.4-0.6-0.2-1.3-1.2-1
				c0.2-0.6-0.5-0.7-1-0.7c-0.1-0.1-0.4-0.2-0.8-0.1c0.5-0.7-0.5-0.8-0.7-0.7c0.7-0.9-0.5-1.4-1.9-1.2c0.4-0.7-0.9-0.9-1.3-0.8
				c0,0-0.3-0.4-1.4-0.4c0.6-0.9-0.6-1-2.1-0.5c0-0.9-1.3-0.8-2.8,0c0.3-1.4-1.8-0.8-2.6,0.1c-0.1-0.7-1.5-0.3-1.6-0.1
				c-0.5-0.7-1.5-0.3-2.2,0.9c0,0-1.4-0.8-2.2-0.7c-0.8,0.2-0.5,0.7-0.1,1c-0.1-0.1-1.4,0.3-1.2,0.8c0,0-1.2-0.1-1.8,0
				c-1.4,0.2-1.3,1.1,0.2,1.4c0,0-1.6,0.3-1.7,0.9c-0.1,0-0.2,0.1-0.2,0.1c0-0.5-0.5-0.5-1.1,0c0,0-0.1-0.1-0.2-0.1
				c0-0.3-0.3-0.3-0.6-0.2c0.2-0.6-0.4-0.6-1.4-0.2c0.1-0.7-0.8-0.6-1.8,0.1c0.2-1-1.1-0.6-1.7,0.1c-0.1-0.6-0.9-0.3-1-0.1
				c-0.3-0.6-0.9-0.2-1.4,0.7c0,0-0.9-0.6-1.4-0.5c-0.5,0.2-0.4,0.6-0.1,0.8c0,0-0.3,0.1-0.5,0.2c0.4-0.6-0.3-0.9-1.3-0.4
				c0.1-0.7-0.8-0.7-1.8,0.1c0.3-1.1-1-0.8-1.6,0.1c0,0,0,0-0.1,0c0-0.1-0.2-0.4-0.5-0.3c0.2-0.4-0.5-0.5-0.5-0.4
				c0.4-0.6-0.2-1.3-1.2-1.1c0.3-0.5-0.4-0.8-0.8-0.6c0,0-0.2-0.4-0.9-0.3c0.4-0.6-0.3-0.9-1.3-0.4c0.1-0.7-0.8-0.7-1.8,0.1
				c0.3-1.2-1-0.7-1.7,0.1c-0.1-0.7-0.9-0.3-1-0.1c-0.3-0.6-0.9-0.2-1.4,0.9c0,0-0.9-0.7-1.4-0.5c-0.5,0.2-0.4,0.7-0.1,0.9
				c-0.1,0-0.9,0.4-0.8,0.7c-0.7-0.2-3,0.5-1.1,1.3c-1.5,0.4-3.1,0.1-4.7,0.1c0.5-0.7-0.7-0.7-2.1-0.4c0-0.7-1.3-0.5-2.6-0.1
				c0.9-0.5-0.1-1-0.6-0.7c0.3-0.2,0.3-0.7-0.1-0.6c0.3-0.4-0.1-0.9-0.8-0.8c0.2-0.3-0.3-0.6-0.6-0.5c0,0-0.1-0.3-0.6-0.2
				c0.3-0.5-0.2-0.7-0.9-0.3c0.1-0.5-0.6-0.5-1.3,0.1c0.2-0.8-0.8-0.5-1.2,0.1c0-0.5-0.6-0.2-0.7,0c-0.2-0.5-0.7-0.2-1,0.6
				c0,0-0.6-0.5-1-0.4c-0.4,0.1-0.3,0.5-0.1,0.6c-0.1,0-0.7,0.3-0.6,0.5c-0.5-0.2-2.2,0.4-0.8,0.9c-0.3,0-1.2,0.6-0.6,1.1
				c0,0-0.2,0.1-0.4,0.2c-13.6,0.3-23.4,1.2-29.8,3l-6.7-12.4l-20.9,145.7l698.3-4.2V283z M475.4,291.7
				C475.4,291.7,475.4,291.6,475.4,291.7C475.4,291.6,475.4,291.6,475.4,291.7C475.4,291.6,475.4,291.6,475.4,291.7z M176.1,301
				C176.1,301,176.1,301.1,176.1,301c-0.1,0.1-0.1,0.1-0.2,0.1C175.9,301.1,176,301.1,176.1,301z"/>
			<path class="st7" d="M561.6,425.4l698.3,4.2l20.3-105.2l-47.9-22.1c-6.4-1.8-16.2-2.7-29.8-3c-0.2-0.2-0.4-0.2-0.4-0.2
				c0.6-0.5-0.4-1.1-0.6-1.1c1.4-0.6-0.2-1.1-0.8-0.9c0.1-0.2-0.5-0.6-0.6-0.5c0.2-0.2,0.3-0.5-0.1-0.6c-0.4-0.1-1,0.4-1,0.4
				c-0.3-0.8-0.8-1.1-1-0.6c-0.1-0.2-0.7-0.4-0.7,0c-0.4-0.6-1.4-0.9-1.2-0.1c-0.7-0.6-1.4-0.6-1.3-0.1c-0.8-0.4-1.2-0.2-0.9,0.3
				c-0.5-0.1-0.6,0.2-0.6,0.2c-0.3-0.1-0.8,0.1-0.6,0.5c-0.7-0.2-1.2,0.3-0.8,0.8c-0.5-0.1-0.5,0.4-0.1,0.6
				c-0.5-0.3-1.5,0.2-0.6,0.7c-1.3-0.4-2.6-0.6-2.6,0.1c-1.3-0.3-2.6-0.3-2.1,0.4c-1.6,0-3.2,0.3-4.7-0.1c2-0.8-0.3-1.6-1.1-1.3
				c0.1-0.3-0.6-0.8-0.8-0.7c0.3-0.2,0.4-0.7-0.1-0.9c-0.5-0.2-1.4,0.5-1.4,0.5c-0.5-1.1-1.1-1.5-1.4-0.9c-0.2-0.2-1-0.6-1,0.1
				c-0.6-0.9-1.9-1.3-1.7-0.1c-1-0.8-1.9-0.8-1.8-0.1c-1-0.6-1.7-0.3-1.3,0.4c-0.7-0.1-0.9,0.3-0.9,0.3c-0.4-0.2-1.1,0.2-0.8,0.6
				c-1-0.2-1.6,0.5-1.2,1.1c0,0-0.7,0-0.5,0.4c-0.2-0.1-0.4,0.2-0.5,0.3c0,0,0,0-0.1,0c-0.7-0.8-1.9-1.2-1.6-0.1
				c-1-0.8-1.9-0.8-1.8-0.1c-1-0.6-1.7-0.3-1.3,0.4c-0.2-0.1-0.5-0.2-0.5-0.2c0.3-0.2,0.4-0.6-0.1-0.8c-0.5-0.2-1.4,0.5-1.4,0.5
				c-0.5-1-1.1-1.3-1.4-0.7c-0.1-0.2-1-0.5-1,0.1c-0.6-0.7-1.9-1.1-1.7-0.1c-1-0.7-1.9-0.7-1.8-0.1c-0.9-0.4-1.6-0.4-1.4,0.2
				c-0.3-0.2-0.5-0.1-0.6,0.2c-0.1,0-0.1,0.1-0.2,0.1c-0.6-0.4-1.1-0.4-1.1,0c-0.1-0.1-0.2-0.1-0.2-0.1c-0.1-0.6-1.7-0.9-1.7-0.9
				c1.6-0.3,1.6-1.2,0.2-1.4c-0.6-0.1-1.8,0-1.8,0c0.2-0.5-1.1-0.8-1.2-0.8c0.4-0.2,0.6-0.8-0.1-1c-0.8-0.2-2.2,0.7-2.2,0.7
				c-0.7-1.2-1.7-1.6-2.2-0.9c-0.2-0.2-1.5-0.6-1.6,0.1c-0.8-0.8-2.9-1.5-2.6-0.1c-1.5-0.8-2.8-0.9-2.8,0c-1.4-0.5-2.6-0.4-2.1,0.5
				c-1.1-0.1-1.4,0.4-1.4,0.4c-0.4-0.1-1.7,0.1-1.3,0.8c-1.3-0.1-2.6,0.3-1.9,1.2c-0.2,0-1.2,0.1-0.7,0.7c-0.4-0.1-0.7,0-0.8,0.1
				c-0.5,0-1.2,0.1-1,0.7c-1-0.3-1.6,0.4-1.2,1c0,0-0.7,0-0.5,0.4c-0.2-0.1-0.5,0.2-0.5,0.3c0,0,0,0-0.1,0c-0.6-0.9-1.8-1.3-1.6-0.2
				c-1-0.8-1.8-0.9-1.8-0.2c-1-0.6-1.7-0.4-1.3,0.3c-0.2-0.1-0.5-0.2-0.5-0.2c0.3-0.2,0.4-0.6-0.1-0.8c-0.5-0.2-1.4,0.4-1.4,0.4
				c-0.4-1-1-1.4-1.4-0.8c-0.1-0.2-0.9-0.6-1,0c-0.5-0.8-1.9-1.2-1.7-0.2c-0.9-0.7-1.8-0.8-1.8-0.2c-1-0.5-1.7-0.4-1.3,0.3
				c-0.7-0.1-0.9,0.2-0.9,0.2c-0.3-0.2-1.1,0.1-0.9,0.5c-0.3-0.1-0.7,0-0.9-0.1c1.5-0.9-0.9-1.7-1.2-1.7c1.6-0.2,1.7-1.1,0.3-1.4
				c-0.6-0.1-1.8-0.1-1.8-0.1c0.2-0.5-1-0.9-1.1-0.8c0.4-0.2,0.7-0.8-0.1-1c-0.8-0.2-2.2,0.5-2.2,0.5c-0.6-1.3-1.6-1.7-2.1-1
				c-0.1-0.2-1.5-0.7-1.6,0c-0.8-0.9-2.8-1.6-2.6-0.2c-1.4-0.8-2.8-1.1-2.8-0.2c-1.4-0.6-2.6-0.5-2.1,0.3c-1.1-0.1-1.4,0.3-1.4,0.3
				c-0.4-0.2-1.7,0-1.3,0.7c-1.3-0.2-2.6,0.2-2,1.1c-0.7-0.1-1.3,0.4-0.4,0.9c0,0-1.6-0.4-2,0.2c-0.3,0.6,0.6,0.9,0.6,0.9
				c-1.2-0.1-2.9,0.3-2,1.4c-1.1,0.3-1.8,1.1-2,1.5c-15.7,0.1-16.9,2.1-35.1,3.3c-0.2-0.2-0.5-0.3-0.9-0.4c0-0.1-0.1-0.2-0.2-0.3
				c1-0.3,0.8-0.9-0.2-0.9c-0.1-0.4-0.9-0.8-0.9-0.8c0.6-0.5-0.4-1.1-0.6-1.1c1.4-0.6-0.3-1.1-0.8-0.9c0.1-0.2-0.5-0.6-0.6-0.5
				c0.2-0.2,0.3-0.5-0.1-0.6c-0.4-0.1-1,0.4-1,0.4c-0.3-0.8-0.8-1.1-1-0.6c-0.1-0.2-0.7-0.4-0.7,0c-0.4-0.6-1.4-0.9-1.2-0.1
				c-0.7-0.6-1.4-0.6-1.3-0.1c-0.8-0.4-1.2-0.2-0.9,0.3c-0.5-0.1-0.6,0.2-0.6,0.2c-0.3-0.1-0.8,0.1-0.6,0.5
				c-0.7-0.2-1.2,0.3-0.8,0.8c-0.5-0.1-0.5,0.4-0.1,0.6c-0.5-0.3-1.5,0.2-0.6,0.7c-1.3-0.4-2.6-0.6-2.6,0.1
				c-1.3-0.3-2.6-0.3-2.1,0.4c-1.1,0-1.4,0.3-1.4,0.3c-0.3-0.1-1.7,0-1.3,0.6c-0.3,0-0.6,0-0.9,0c0.2-0.6-1.1-1.1-1.1-1.1
				c2-0.8-0.3-1.6-1.1-1.3c0.1-0.3-0.6-0.8-0.8-0.7c0.3-0.2,0.4-0.7-0.1-0.9c-0.5-0.2-1.4,0.5-1.4,0.5c-0.5-1.1-1.1-1.5-1.4-0.8
				c-0.2-0.2-1-0.6-1,0.1c-0.6-0.9-1.9-1.3-1.7-0.1c-1-0.8-1.9-0.8-1.8-0.1c-1-0.6-1.7-0.3-1.3,0.4c-0.7-0.1-0.9,0.3-0.9,0.3
				c-0.4-0.2-1.1,0.2-0.8,0.6c-1-0.2-1.6,0.5-1.2,1.1c0,0-0.7,0-0.5,0.4c-0.2-0.1-0.4,0.2-0.5,0.3c0,0,0,0-0.1,0
				c-0.7-0.8-1.9-1.2-1.6-0.1c-1-0.8-1.9-0.8-1.8-0.1c-1-0.6-1.7-0.3-1.3,0.4c-0.2-0.1-0.5-0.2-0.5-0.2c0.3-0.2,0.4-0.6-0.1-0.8
				c-0.5-0.2-1.4,0.5-1.4,0.5c-0.5-1-1.1-1.3-1.4-0.7c-0.1-0.2-1-0.5-1,0.1c-0.6-0.7-1.9-1.1-1.7-0.1c-1-0.7-1.9-0.7-1.8,0
				c-1-0.5-1.7-0.3-1.3,0.3c-0.7-0.1-0.9,0.3-0.9,0.3c-0.3-0.1-1.1,0.1-0.8,0.6c-0.3,0-0.7,0-0.9,0c1.4-0.9-1-1.6-1.3-1.7
				c1.6-0.3,1.6-1.2,0.2-1.4c-0.6-0.1-1.8,0-1.8,0c0.2-0.5-1.1-0.8-1.2-0.8c0.4-0.2,0.6-0.8-0.1-1c-0.8-0.2-2.2,0.7-2.2,0.7
				c-0.7-1.2-1.7-1.6-2.2-0.9c-0.2-0.2-1.5-0.6-1.6,0.1c-0.8-0.8-2.9-1.5-2.6-0.1c-1.5-0.8-2.8-0.9-2.8,0c-1.5-0.5-2.6-0.4-2.1,0.5
				c-1.1-0.1-1.4,0.4-1.4,0.4c-0.4-0.1-1.7,0.1-1.3,0.8c-1.3-0.1-2.6,0.3-1.9,1.2c-0.7-0.1-1.3,0.5-0.3,0.9c0,0-2.1-0.4-2,0.6
				c-0.1-0.1-0.2-0.1-0.2-0.1c0.6-0.5-0.4-1.1-0.6-1.1c1.4-0.6-0.3-1.1-0.8-0.9c0.1-0.2-0.5-0.6-0.6-0.5c0.2-0.2,0.3-0.5-0.1-0.6
				c-0.4-0.1-1,0.4-1,0.4c-0.3-0.8-0.8-1.1-1-0.6c-0.1-0.2-0.7-0.4-0.7,0c-0.4-0.6-1.4-0.9-1.2-0.1c-0.7-0.6-1.4-0.6-1.3-0.1
				c-0.8-0.4-1.2-0.2-0.9,0.3c-0.5-0.1-0.6,0.2-0.6,0.2c-0.3-0.1-0.8,0.1-0.6,0.5c-0.7-0.2-1.2,0.3-0.8,0.8
				c-0.5-0.1-0.5,0.4-0.1,0.6c-0.5-0.3-1.5,0.2-0.6,0.7c-1.3-0.4-2.6-0.6-2.6,0.1c-1.3-0.3-2.6-0.3-2.1,0.4c-1.1,0-1.4,0.3-1.4,0.3
				c-0.3-0.1-1.7,0-1.3,0.6c-0.3,0-0.6,0-0.9,0c0.2-0.6-1.1-1.1-1.1-1.1c2-0.8-0.3-1.6-1.1-1.3c0.1-0.3-0.6-0.8-0.8-0.7
				c0.3-0.2,0.4-0.7-0.1-0.9c-0.5-0.2-1.4,0.5-1.4,0.5c-0.5-1.1-1.1-1.5-1.4-0.8c-0.2-0.2-1-0.6-1,0.1c-0.6-0.9-1.9-1.3-1.7-0.1
				c-1-0.8-1.9-0.8-1.8-0.1c-1-0.6-1.7-0.3-1.3,0.4c-0.7-0.1-0.9,0.3-0.9,0.3c-0.4-0.2-1.1,0.2-0.8,0.6c-1-0.2-1.6,0.5-1.2,1.1
				c0,0-0.7,0-0.5,0.4c-0.2-0.1-0.4,0.2-0.5,0.3c0,0,0,0-0.1,0c-0.7-0.8-1.9-1.2-1.6-0.1c-1-0.8-1.9-0.8-1.8-0.1
				c-1-0.6-1.7-0.3-1.3,0.4c-0.2-0.1-0.5-0.2-0.5-0.2c0.3-0.2,0.4-0.6-0.1-0.8c-0.5-0.2-1.4,0.5-1.4,0.5c-0.5-1-1.1-1.3-1.4-0.7
				c-0.1-0.2-1-0.5-1,0.1c-0.6-0.7-1.9-1.1-1.7-0.1c-1-0.7-1.9-0.7-1.8,0c-0.9-0.4-1.6-0.4-1.4,0.2c-0.3-0.2-0.5-0.1-0.6,0.2
				c-0.1,0-0.1,0.1-0.2,0.1c-0.6-0.4-1.1-0.4-1.1,0c-0.1-0.1-0.2-0.1-0.2-0.1c-0.1-0.6-1.7-0.9-1.7-0.9c1.6-0.3,1.6-1.2,0.2-1.4
				c-0.6-0.1-1.8,0-1.8,0c0.2-0.5-1.1-0.8-1.2-0.8c0.4-0.2,0.6-0.8-0.1-1c-0.8-0.2-2.2,0.7-2.2,0.7c-0.7-1.2-1.7-1.6-2.2-0.9
				c-0.2-0.2-1.5-0.6-1.6,0.1c-0.8-0.8-2.9-1.5-2.6-0.1c-1.5-0.8-2.8-0.9-2.8,0c-1.5-0.5-2.6-0.4-2.1,0.5c-1.1-0.1-1.4,0.4-1.4,0.4
				c-0.4-0.1-1.7,0.1-1.3,0.8c-1.3-0.1-2.6,0.3-1.9,1.2c-0.2,0-1.2,0.1-0.7,0.7c-0.4-0.1-0.7,0-0.8,0.1c-0.5,0-1.2,0.1-1,0.7
				c-1-0.3-1.6,0.4-1.2,1c0,0-0.7,0-0.5,0.4c-0.2-0.1-0.5,0.2-0.5,0.3c0,0,0,0-0.1,0c-0.6-0.9-1.8-1.3-1.6-0.2
				c-1-0.8-1.8-0.9-1.8-0.2c-1-0.6-1.7-0.4-1.3,0.3c-0.2-0.1-0.5-0.2-0.5-0.2c0.3-0.2,0.4-0.6-0.1-0.8c-0.5-0.2-1.4,0.4-1.4,0.4
				c-0.4-1-1-1.3-1.4-0.8c-0.1-0.2-0.9-0.6-1,0c-0.5-0.8-1.9-1.2-1.7-0.2c-0.9-0.7-1.8-0.8-1.8-0.1c-1-0.5-1.7-0.4-1.3,0.3
				c-0.7-0.1-0.9,0.2-0.9,0.2c-0.3-0.2-1.1,0.1-0.8,0.5c-0.3-0.1-0.7,0-0.9-0.1c1.5-0.9-0.9-1.7-1.2-1.7c1.6-0.2,1.7-1.1,0.3-1.4
				c-0.6-0.1-1.8-0.1-1.8-0.1c0.2-0.5-1-0.9-1.1-0.8c0.4-0.2,0.7-0.8-0.1-1c-0.8-0.2-2.2,0.5-2.2,0.5c-0.6-1.3-1.6-1.7-2.1-1
				c-0.1-0.2-1.5-0.7-1.6,0c-0.8-0.9-2.8-1.6-2.6-0.2c-1.4-0.8-2.8-1-2.8-0.2c-1.4-0.6-2.6-0.5-2.1,0.4c-1.1-0.1-1.4,0.3-1.4,0.3
				c-0.4-0.2-1.7,0-1.3,0.7c-1.3-0.2-2.6,0.2-1.9,1.1c-0.7-0.1-1.3,0.4-0.4,0.9c0,0-1.7-0.4-2,0.2c-0.3,0.6,0.6,0.9,0.6,0.9
				c-1.2-0.1-2.9,0.4-2,1.4c-0.5,0.1-0.9,0.4-1.3,0.7c-0.1,0-0.1-0.1-0.1-0.1c0.6-0.5-0.1-0.9-0.1-0.9c2.2,0,0.1-1.3-0.4-1.3
				c2.2-0.3-1.1-1.6-1.2-1.5c0.9-0.5,0.2-1-0.6-1.1c0-0.1-0.1-0.2-0.2-0.3c1-0.3,0.8-0.9-0.2-0.9c-0.1-0.4-0.9-0.8-0.9-0.8
				c0.6-0.5-0.4-1.1-0.6-1.1c1.4-0.6-0.3-1.1-0.8-0.9c0.1-0.2-0.5-0.6-0.6-0.5c0.2-0.2,0.3-0.5-0.1-0.6c-0.4-0.1-1,0.4-1,0.4
				c-0.3-0.8-0.8-1.1-1-0.6c-0.1-0.2-0.7-0.4-0.7,0c-0.4-0.6-1.4-0.9-1.2-0.1c-0.7-0.6-1.4-0.6-1.3-0.1c-0.8-0.4-1.2-0.2-0.9,0.3
				c-0.5-0.1-0.6,0.2-0.6,0.2c-0.3-0.1-0.8,0.1-0.6,0.5c-0.7-0.2-1.2,0.3-0.8,0.8c-0.5-0.1-0.5,0.4-0.1,0.6
				c-0.5-0.3-1.5,0.2-0.6,0.7c-1.3-0.4-2.6-0.6-2.6,0.1c-1.3-0.3-2.6-0.3-2.1,0.4c-1.1,0-1.4,0.3-1.4,0.3c-0.3-0.1-1.7,0-1.3,0.6
				c-0.3,0-0.6,0-0.9,0c0.2-0.6-1.1-1.1-1.1-1.1c2-0.8-0.3-1.6-1.1-1.3c0.1-0.3-0.6-0.8-0.8-0.7c0.3-0.2,0.4-0.7-0.1-0.9
				c-0.5-0.2-1.4,0.5-1.4,0.5c-0.5-1.1-1.1-1.5-1.4-0.8c-0.2-0.2-1-0.6-1,0.1c-0.6-0.9-1.9-1.3-1.7-0.1c-1-0.8-1.9-0.8-1.8-0.1
				c-1-0.6-1.7-0.3-1.3,0.4c-0.7-0.1-0.9,0.3-0.9,0.3c-0.4-0.2-1.1,0.2-0.8,0.6c-1-0.2-1.6,0.5-1.2,1.1c0,0-0.7,0-0.5,0.4
				c-0.2-0.1-0.4,0.2-0.5,0.3c0,0,0,0-0.1,0c-0.7-0.8-1.9-1.2-1.6-0.1c-1-0.8-1.9-0.8-1.8-0.1c-1-0.6-1.7-0.3-1.3,0.4
				c-0.2-0.1-0.5-0.2-0.5-0.2c0.3-0.2,0.4-0.6-0.1-0.8c-0.5-0.2-1.4,0.5-1.4,0.5c-0.5-1-1.1-1.3-1.4-0.7c-0.1-0.2-1-0.5-1,0.1
				c-0.6-0.7-1.9-1.1-1.7-0.1c-1-0.7-1.9-0.7-1.8,0c-0.9-0.4-1.6-0.4-1.4,0.2c-0.3-0.2-0.5-0.1-0.6,0.2c-0.1,0-0.1,0.1-0.2,0.1
				c-0.6-0.4-1.1-0.4-1.1,0c-0.1-0.1-0.2-0.1-0.2-0.1c-0.1-0.6-1.7-0.9-1.7-0.9c1.6-0.3,1.6-1.2,0.2-1.4c-0.6-0.1-1.8,0-1.8,0
				c0.2-0.5-1.1-0.8-1.2-0.8c0.4-0.2,0.6-0.8-0.1-1c-0.8-0.2-2.2,0.7-2.2,0.7c-0.7-1.2-1.7-1.6-2.2-0.9c-0.2-0.2-1.5-0.6-1.6,0.1
				c-0.8-0.8-2.9-1.5-2.6-0.1c-1.5-0.8-2.8-0.9-2.8,0c-1.5-0.5-2.6-0.4-2.1,0.5c-1.1-0.1-1.4,0.4-1.4,0.4c-0.4-0.1-1.7,0.1-1.3,0.8
				c-1.3-0.1-2.6,0.3-1.9,1.2c-0.2,0-1.2,0.1-0.7,0.7c-0.4-0.1-0.7,0-0.8,0.1c-0.5,0-1.2,0.1-1,0.7c-1-0.3-1.6,0.4-1.2,1
				c0,0-0.7,0-0.5,0.4c-0.2-0.1-0.5,0.2-0.5,0.3c0,0,0,0-0.1,0c-0.6-0.9-1.8-1.3-1.6-0.2c-1-0.8-1.8-0.9-1.8-0.2
				c-1-0.6-1.7-0.4-1.3,0.3c-0.2-0.1-0.5-0.2-0.5-0.2c0.3-0.2,0.4-0.6-0.1-0.8c-0.5-0.2-1.4,0.4-1.4,0.4c-0.4-1-1-1.3-1.4-0.8
				c-0.1-0.2-0.9-0.6-1,0c-0.5-0.8-1.9-1.2-1.7-0.2c-0.9-0.7-1.8-0.8-1.8-0.1c-1-0.5-1.7-0.4-1.3,0.3c-0.7-0.1-0.9,0.2-0.9,0.2
				c-0.3-0.2-1.1,0.1-0.8,0.5c-0.3-0.1-0.7,0-0.9-0.1c1.5-0.9-0.9-1.7-1.2-1.7c1.6-0.2,1.7-1.1,0.3-1.4c-0.6-0.1-1.8-0.1-1.8-0.1
				c0.2-0.5-1-0.9-1.1-0.8c0.4-0.2,0.7-0.8-0.1-1c-0.8-0.2-2.2,0.5-2.2,0.5c-0.6-1.3-1.6-1.7-2.1-1c-0.1-0.2-1.5-0.7-1.6,0
				c-0.8-0.9-2.8-1.6-2.6-0.2c-1.4-0.8-2.8-1-2.8-0.2c-1.4-0.6-2.6-0.5-2.1,0.4c-1.1-0.1-1.4,0.3-1.4,0.3c-0.4-0.2-1.7,0-1.3,0.7
				c-1.3-0.2-2.6,0.2-1.9,1.1c-0.7-0.1-1.3,0.4-0.4,0.9c0,0-1.7-0.4-2,0.2c-0.3,0.6,0.6,0.9,0.6,0.9c-1.2-0.1-2.9,0.4-2,1.4
				c-1.2,0.4-2.6,1.5-1.8,2.2c-0.3,0.1-0.5,0.3-0.7,0.5c-0.3-0.4-1-0.6-1-0.6c2-0.8-0.3-1.6-1.1-1.3c0.1-0.3-0.6-0.8-0.8-0.7
				c0.3-0.2,0.4-0.7-0.1-0.9c-0.5-0.2-1.4,0.5-1.4,0.5c-0.5-1.1-1.1-1.5-1.4-0.8c-0.2-0.2-1-0.6-1,0.1c-0.6-0.9-1.9-1.3-1.7-0.1
				c-1-0.8-1.9-0.8-1.8-0.1c-1-0.6-1.7-0.3-1.3,0.4c-0.7-0.1-0.9,0.3-0.9,0.3c-0.4-0.2-1.1,0.2-0.8,0.6c-1-0.2-1.6,0.5-1.2,1.1
				c0,0-0.7,0-0.5,0.4c-0.2-0.1-0.4,0.2-0.5,0.3c0,0,0,0-0.1,0c-0.7-0.8-1.9-1.2-1.6-0.1c-1-0.8-1.9-0.8-1.8-0.1
				c-1-0.6-1.7-0.3-1.3,0.4c-0.2-0.1-0.5-0.2-0.5-0.2c0.3-0.2,0.4-0.6-0.1-0.8c-0.5-0.2-1.4,0.5-1.4,0.5c-0.5-1-1.1-1.3-1.4-0.7
				c-0.1-0.2-1-0.5-1,0.1c-0.6-0.7-1.9-1.1-1.7-0.1c-1-0.7-1.9-0.7-1.8,0c-1-0.5-1.7-0.3-1.3,0.3c-0.7-0.1-0.9,0.3-0.9,0.3
				c-0.3-0.1-1.1,0.1-0.8,0.6c-0.3,0-0.7,0-0.9,0c1.4-0.9-1-1.6-1.3-1.7c1.6-0.3,1.6-1.2,0.2-1.4c-0.6-0.1-1.8,0-1.8,0
				c0.2-0.5-1.1-0.8-1.2-0.8c0.4-0.2,0.6-0.8-0.1-1c-0.8-0.2-2.2,0.7-2.2,0.7c-0.7-1.2-1.7-1.6-2.2-0.9c-0.2-0.2-1.5-0.6-1.6,0.1
				c-0.8-0.8-2.9-1.5-2.6-0.1c-1.5-0.8-2.8-0.9-2.8,0c-0.5-0.2-0.9-0.3-1.2-0.3c-0.1-0.5-1.4-0.9-1.4-0.9c2.2-0.3-1.1-1.6-1.2-1.5
				c0.9-0.5,0.2-1-0.6-1.1c0-0.1-0.1-0.2-0.2-0.3c1-0.3,0.8-0.9-0.2-0.9c-0.1-0.4-0.9-0.8-0.9-0.8c0.6-0.5-0.4-1.1-0.6-1.1
				c1.4-0.6-0.3-1.1-0.8-0.9c0.1-0.2-0.5-0.6-0.6-0.5c0.2-0.2,0.3-0.5-0.1-0.6c-0.4-0.1-1,0.4-1,0.4c-0.3-0.8-0.8-1.1-1-0.6
				c-0.1-0.2-0.7-0.4-0.7,0c-0.4-0.6-1.4-0.9-1.2-0.1c-0.7-0.6-1.4-0.6-1.3-0.1c-0.8-0.4-1.2-0.2-0.9,0.3c-0.5-0.1-0.6,0.2-0.6,0.2
				c-0.3-0.1-0.8,0.1-0.6,0.5c-0.7-0.2-1.2,0.3-0.8,0.8c-0.5-0.1-0.5,0.4-0.1,0.6c-0.5-0.3-1.5,0.2-0.6,0.7
				c-1.3-0.4-2.6-0.6-2.6,0.1c-1.3-0.3-2.6-0.3-2.1,0.4c-1.1,0-1.4,0.3-1.4,0.3c-0.3-0.1-1.7,0-1.3,0.6c-0.3,0-0.6,0-0.9,0
				c0.2-0.6-1.1-1.1-1.1-1.1c2-0.8-0.3-1.6-1.1-1.3c0.1-0.3-0.6-0.8-0.8-0.7c0.3-0.2,0.4-0.7-0.1-0.9c-0.5-0.2-1.4,0.5-1.4,0.5
				c-0.5-1.1-1.1-1.5-1.4-0.8c-0.2-0.2-1-0.6-1,0.1c-0.6-0.9-1.9-1.3-1.7-0.1c-1-0.8-1.9-0.8-1.8-0.1c-1-0.6-1.7-0.3-1.3,0.4
				c-0.7-0.1-0.9,0.3-0.9,0.3c-0.4-0.2-1.1,0.2-0.8,0.6c-1-0.2-1.6,0.5-1.2,1.1c0,0-0.7,0-0.5,0.4c-0.2-0.1-0.4,0.2-0.5,0.3
				c0,0,0,0-0.1,0c-0.7-0.8-1.9-1.2-1.6-0.1c-1-0.8-1.9-0.8-1.8-0.1c-1-0.6-1.7-0.3-1.3,0.4c-0.2-0.1-0.5-0.2-0.5-0.2
				c0.3-0.2,0.4-0.6-0.1-0.8c-0.5-0.2-1.4,0.5-1.4,0.5c-0.5-1-1.1-1.3-1.4-0.7c-0.1-0.2-1-0.5-1,0.1c-0.6-0.7-1.9-1.1-1.7-0.1
				c-1-0.7-1.9-0.7-1.8,0c-1-0.5-1.7-0.3-1.3,0.3c-0.7-0.1-0.9,0.3-0.9,0.3c-0.3-0.1-1.1,0.1-0.8,0.6c-0.3,0-0.7,0-0.9,0
				c1.4-0.9-1-1.6-1.3-1.7c1.6-0.3,1.6-1.2,0.2-1.4c-0.6-0.1-1.8,0-1.8,0c0.2-0.5-1.1-0.8-1.2-0.8c0.4-0.2,0.6-0.8-0.1-1
				c-0.8-0.2-2.2,0.7-2.2,0.7c-0.7-1.2-1.7-1.6-2.2-0.9c-0.2-0.2-1.5-0.6-1.6,0.1c-0.8-0.8-2.9-1.5-2.6-0.1c-1.5-0.8-2.8-0.9-2.8,0
				c-1.5-0.5-2.6-0.4-2.1,0.5c-1.1-0.1-1.4,0.4-1.4,0.4c-0.4-0.1-1.7,0.1-1.3,0.8c-0.6,0-1,0-1.4,0.1c-15.8-9.6-29.5,0.7-29.5,0.7
				V425.4z M667.6,291.6C667.6,291.6,667.6,291.6,667.6,291.6C667.6,291.6,667.6,291.7,667.6,291.6
				C667.6,291.6,667.6,291.6,667.6,291.6z M967.1,301.1c0,0-0.1,0-0.1,0c0,0,0,0,0-0.1C967,301.1,967.1,301.1,967.1,301.1z"/>
			<path class="st7" d="M150.6,300.9c-0.4,0-1.1,0.2-1.7,0.7c0.2-1.3-1.4-0.7-2.1,0.2c-0.1-0.7-1.1-0.3-1.3,0
				c-0.4-0.7-1.2-0.2-1.7,1c0,0-1.2-0.8-1.8-0.5c-0.6,0.2-0.4,0.8-0.1,1c0,0-0.4,0.1-0.6,0.2c0.4-0.8-0.4-1.1-1.7-0.4
				c0.1-0.9-1-0.8-2.2,0.2c0.2-1.4-1.3-0.9-2.1,0.2c0,0-0.1,0-0.1,0c0-0.2-0.3-0.5-0.6-0.4c0.2-0.5-0.7-0.5-0.7-0.5
				c0.5-0.8-0.3-1.6-1.5-1.2c0.3-0.7-0.6-0.9-1.2-0.9c-0.2-0.1-0.4-0.2-1-0.1c0.7-0.8-0.6-1-0.9-0.9c0.9-1.1-0.7-1.7-2.4-1.6
				c0.5-0.9-1.1-1.1-1.6-1c0,0-0.3-0.5-1.8-0.5c0.7-1.1-0.8-1.2-2.6-0.6c0.1-1.1-1.7-1-3.5,0c0.4-1.8-2.3-1-3.3,0.1
				c-0.1-0.9-1.8-0.4-2-0.2c-0.6-0.9-1.9-0.4-2.7,1.1c0,0-1.8-1.1-2.7-0.8c-1,0.2-0.7,0.9-0.2,1.2c-0.1-0.1-1.7,0.4-1.5,1
				c0,0-1.5-0.1-2.3,0c-1.7,0.3-1.7,1.4,0.3,1.8c0,0-2.1,0.4-2.2,1.2c-0.1,0-0.2,0.1-0.3,0.2c0.1-0.6-0.6-0.6-1.4,0
				c0,0-0.1-0.1-0.2-0.1c-0.1-0.3-0.4-0.4-0.7-0.2c0.2-0.8-0.6-0.8-1.7-0.3c0.1-0.8-1-0.8-2.3,0.1c0.3-1.3-1.4-0.8-2.1,0.1
				c-0.1-0.7-1.1-0.3-1.3-0.1c-0.4-0.7-1.2-0.3-1.8,0.9c0,0-1.1-0.8-1.7-0.6c-0.6,0.2-0.5,0.7-0.1,1c0,0-0.4,0.1-0.6,0.2
				c0.5-0.8-0.3-1.2-1.6-0.5c0.1-0.9-1-0.9-2.3,0.1c0.3-1.4-1.2-1-2.1,0.1c0,0-0.1,0-0.1,0c0-0.2-0.3-0.5-0.6-0.4
				c0.2-0.5-0.6-0.6-0.7-0.5c0.6-0.7-0.2-1.6-1.5-1.3c0.3-0.6-0.5-1-1-0.8c0,0-0.2-0.5-1.1-0.4c0.5-0.8-0.3-1.2-1.6-0.5
				c0.1-0.9-1-0.9-2.3,0.1c0.3-1.5-1.3-0.9-2.1,0.1c-0.1-0.8-1.1-0.4-1.3-0.1c-0.4-0.8-1.2-0.3-1.8,1.1c0,0-1.1-0.9-1.7-0.7
				c-0.6,0.2-0.5,0.8-0.1,1.1c-0.2-0.1-1.1,0.5-1,0.9c-0.9-0.3-3.8,0.6-1.3,1.6c-0.1,0-1.7,0.6-1.4,1.3c-0.3,0-0.7,0-1.1,0
				c0.4-0.7-1.3-0.9-1.6-0.8c0,0-0.3-0.4-1.8-0.4c0.6-0.9-0.9-0.9-2.6-0.5c0-0.9-1.7-0.7-3.3-0.2c1.1-0.7-0.1-1.3-0.7-0.9
				c0.4-0.2,0.4-0.8-0.2-0.7c0.4-0.5-0.1-1.2-1.1-1c0.2-0.4-0.4-0.8-0.7-0.6c0,0-0.1-0.3-0.8-0.3c0.3-0.6-0.2-0.8-1.2-0.3
				c0.1-0.6-0.7-0.6-1.6,0.1c0.2-1-1-0.7-1.5,0.1c0-0.6-0.8-0.3-0.9-0.1c-0.3-0.6-0.9-0.2-1.3,0.8c0,0-0.8-0.7-1.2-0.5
				c-0.4,0.2-0.3,0.6-0.1,0.8c-0.1-0.1-0.8,0.4-0.7,0.6c-0.7-0.2-2.8,0.5-1,1.2c-0.3,0-1.6,0.8-0.8,1.4c0,0-0.1,0-0.3,0.1
				c0.1-1.2-2.5-0.8-2.5-0.7c1.3-0.6,0.5-1.3-0.4-1.2c0.9-1.1-0.7-1.7-2.4-1.6c0.3-0.6-0.3-0.9-0.9-1v25h120.5V300.9z M35.5,303.3
				c-0.1,0-0.1,0-0.2,0C35.3,303.3,35.4,303.2,35.5,303.3C35.5,303.2,35.5,303.2,35.5,303.3z"/>
			<g>
				<path class="st8" d="M627.3,213.6c-0.1,0.7-0.6,1.2-0.9,1.8c-0.3,0.5-0.7,0.8-1.2,1c-0.1,0.1-0.2,0.2-0.2,0.3
					c-0.3,0.6-0.5,1.3-0.8,1.9c-0.2,0.3-0.4,0.7-0.6,1c-0.2,0.2-0.2,0.4,0,0.6c0.3,0.2,0.6,0.5,1,0.6c0.4,0.2,0.9,0.3,1.4,0.5
					c-0.4,0.7-0.7,1.4-1.3,1.9c-0.1,0.1-0.3,0-0.4,0c-0.3-0.4-0.5-0.8-0.8-1.2c-0.2-0.3-0.5-0.6-0.7-0.9c-0.1,0.1-0.2,0.1-0.2,0.1
					c-0.5,0.9-1.3,1.4-2.2,1.8c-0.4,0.2-0.8,0.3-1.1,0.6c-0.2,0.2-0.4,0.4-0.5,0.6c0,0,0,0.1-0.1,0.2c-0.4,0.4-0.8,0.8-1.3,1.1
					c-0.3,0.2-0.6,0.4-1,0.6c-0.1-0.2-0.2-0.5-0.2-0.7c0.1-1.4,0.3-2.8,1.1-4.1c0.3-0.4,0.6-0.7,1-0.9c0.5-0.3,1-0.7,1.5-1.1
					c0.3-0.3,0.3-0.4-0.1-0.6c-0.2-0.2-0.5-0.4-0.7-0.6c-0.2-0.2-0.1-0.4,0.2-0.4c0.2,0,0.5,0,0.7,0.2c0.5,0.3,0.7,0.3,1.1-0.1
					c0.5-0.7,0.9-1.3,1-2.2c0-0.1,0.1-0.2,0.2-0.3c1-0.7,1.9-1.4,3.1-1.7c0.5-0.1,1.1,0,1.6,0C627.1,213.5,627.2,213.5,627.3,213.6z
					"/>
				<path class="st8" d="M571.7,195.9c0.2,0,0.5,0,0.7,0c0.6-0.1,1,0.3,0.8,0.9c0,0.2-0.1,0.3-0.1,0.5c-0.2-0.1-0.3-0.3-0.5-0.3
					c-0.2,0-0.4,0.1-0.5,0.1c-0.5,0.1-1.1,0.3-1.6,0.4c-0.5,0.1-1,0.1-1.5-0.1c-0.9-0.3-1.8-0.3-2.7-0.4c-0.5,0-0.9-0.1-1.4-0.2
					c-0.3-0.1-0.5-0.3-0.4-0.7c1,0,2,0.3,2.9-0.4c-0.3-0.4-0.5-0.8-0.8-1.2c-0.3-0.5-0.3-1-0.1-1.5c-0.7-0.5-0.7-0.5-0.4-0.7
					c-0.1-0.2-0.3-0.4,0.1-0.5c0.1-0.2-0.4-0.4,0-0.6c0,0,0-0.1,0-0.1c-0.1-0.3,0-0.6,0.2-0.8c0-0.1,0-0.2,0-0.3
					c0-0.1,0.1-0.1,0.2-0.2c0,0,0.1,0,0.1,0.1c0-0.2,0-0.3,0-0.5c0,0,0.1,0,0.1,0c0.1,0.1,0.1,0.3,0.2,0.4c0-0.1,0-0.2,0.1-0.3
					c0,0,0.1,0,0.1,0c0.1,0.2,0.1,0.5,0.2,0.7c0.1-0.2,0.1-0.3,0.2-0.4c0,0,0.1,0,0.1,0c0,0.1,0.1,0.1,0,0.2c-0.1,0.7,0.1,1.4,0.5,2
					c0.4,0.6,0.9,1.2,1.3,1.9c0.2,0.3,0.4,0.7,0.5,1c0.5-0.3,0.6-1.1,1.3-1.2c0.3-0.7,0.3-0.7,0.6-0.5c0.1-0.2,0.2-0.4,0.3-0.6
					c0,0,0.2,0,0.2,0c0.1-0.2,0.2-0.4,0.3-0.5c0.1,0.1,0.2,0.1,0.2,0.2c0.1-0.2,0.3-0.3,0.5-0.5c0.1,0.2,0.1,0.3,0.2,0.5
					c0.2-0.2,0.2-0.7,0.7-0.8c-0.1,0.4-0.2,0.7-0.3,1.1c0.3-0.3,0.3-0.7,0.8-0.7c0,0.9-0.2,1.7-1,2.3c-0.6,0.4-1.3,0.8-2,1.2
					c-0.2,0.1-0.3,0.3-0.4,0.4C571.6,195.8,571.7,195.8,571.7,195.9z"/>
				<path class="st8" d="M738.3,203c-0.1-0.7,0.2-0.9,1-0.8c0.1,0,0.2,0,0.2-0.1c0-0.1,0-0.3-0.1-0.4c-0.2-0.2-0.5-0.4-0.8-0.6
					c-0.3-0.2-0.6-0.5-0.9-0.7c-0.6-0.6-0.8-1.4-0.6-2.3c0.2,0.2,0.3,0.3,0.5,0.5c0-0.2-0.1-0.3-0.1-0.5c0-0.1,0-0.2,0.1-0.3
					c0.1,0,0.2,0.1,0.3,0.1c0.1,0.2,0.2,0.4,0.3,0.6c0-0.2,0.1-0.3,0.1-0.4c0.4,0,0.3,0.3,0.4,0.5c0.1,0,0.3-0.1,0.3-0.1
					c0.1,0.2,0.2,0.3,0.2,0.5c0.5-0.1,0.3,0.3,0.4,0.5c0.4-0.1,0.4,0,0.5,0.5c0.3,0.2,0.5,0.4,0.7,0.5c0.3,0.2,0.5,0.3,0.7,0.3
					c0.5-0.6,1-1.2,1.6-1.8c0.6-0.6,1-1.2,0.9-2c0,0,0-0.1,0.1-0.1c0,0.1,0.1,0.2,0.1,0.4c0.1-0.2,0.2-0.4,0.4-0.7
					c0,0.2,0.1,0.2,0.1,0.3c0.1-0.1,0.1-0.2,0.3-0.3c0,0.2,0,0.4,0,0.5c0.1,0,0.2,0,0.2,0c0,0.6,0.4,1.2,0,1.8
					c0.1,0.1,0.2,0.1,0.2,0.2c0,0.6,0,0.6-0.5,0.8c0.2,1.1-0.5,1.7-1.2,2.4c0.6,0.5,1.2,0.7,2,0.7c0.1,0,0.3,0,0.4,0
					c0.3,0,0.4,0.1,0.3,0.4c-0.1,0.1-0.1,0.3-0.1,0.4c-0.1,0.5-0.1,0.6-0.7,0.5c-0.4-0.1-0.9-0.2-1.3-0.4c-0.7-0.3-1.3-0.4-2-0.2
					c-0.6,0.1-1.1,0-1.7-0.2c-0.5-0.2-0.9-0.4-1.4-0.6C739,203.2,738.7,203.1,738.3,203z"/>
			</g>
			<path class="st6" d="M704.4,265c2.5,0.3,4.7,1.6,7.1,2.5c0.9,0.3,1.9,0.6,2.8,0.8c1.2,0.2,2.3-0.1,3.4-0.3c1.8-0.3,3.6-0.7,5.4-1
				c2.2-0.5,4.4-0.4,6.6,0.3c1.4,0.4,2.8,0.7,4.2,0.7c1.2,0,2.2,0.6,3.1,1.3c1.1,0.8,1.9,1.7,2.6,2.8c1.5,2.2,2.1,4.7,2.3,7.4
				c0,0.9,0.1,1.9,0.2,2.8c0.1,0.6,0.3,1.2,0.6,1.7c0.3,0.6,0.7,1.2,1.2,1.7c0.4,0.4,0.6,0.9,0.8,1.4c0,0-0.1,0-0.1,0.1
				c-0.1-0.1-0.3-0.3-0.4-0.4c0,0,0,0-0.1,0c0.1,0.2,0.2,0.4,0.3,0.6c-0.2-0.1-0.3-0.2-0.5-0.3c0,0,0,0-0.1,0
				c0.1,0.2,0.1,0.3,0.2,0.5c0,0,0,0,0,0c-0.2-0.3-0.4-0.6-0.6-0.9c0,0,0,0-0.1,0c0.1,0.2,0.2,0.4,0.3,0.7c-0.6-0.5-0.8-0.8-0.8-1.5
				c0-0.1,0-0.3-0.1-0.4c-0.7-1-1.2-2.2-1.5-3.4c0,0,0-0.1-0.1-0.1c-0.1,0.3-0.1,0.7-0.2,1c-0.2,1-0.5,2-0.8,3
				c-0.3,1.2-0.2,2.4,0.3,3.6c0,0.1,0.1,0.1,0.1,0.2c0.8,1.3,0.7,2.6,0.1,3.9c-0.2,0.4-0.3,0.8-0.5,1.2c-0.3,0.7-0.2,1.4,0.1,2.1
				c0.2,0.4,0.4,0.7,0.6,1.1c0.1,0.2,0.1,0.4,0.2,0.5c0.1,0.6,0.1,0.7-0.5,0.7c-1.7,0-3.4,0-5.1,0c-0.4,0-0.5-0.2-0.5-0.6
				c0-0.5,0.4-0.8,0.8-1c0.4-0.2,0.8-0.4,1.1-0.7c0.5-0.5,0.6-1.1,0.3-1.7c-0.4-0.7-0.7-1.4-1.1-2.1c-0.1,0.1-0.2,0.2-0.2,0.3
				c-0.6,0.8-1.2,1.6-1.8,2.3c-0.4,0.5-0.5,1.1-0.3,1.7c0.1,0.3,0.2,0.7,0.3,1.1c0.1,0.4,0,0.6-0.4,0.6c-1.7,0.1-3.4,0.1-5.1,0.1
				c-0.1,0-0.3-0.1-0.4-0.1c-0.3-0.1-0.4-0.3-0.5-0.6c0-0.3,0.1-0.5,0.3-0.6c0.2-0.1,0.4-0.2,0.6-0.3c1.3-0.5,2-1.4,2.2-2.8
				c0.2-2,0.2-4.1-0.2-6.1c-0.2-1-0.8-1.9-1.4-2.6c-0.2-0.2-0.4-0.3-0.7-0.1c-0.4,0.3-0.8,0.5-1.1,0.8c-1.4,1.2-3,1.8-4.7,2.3
				c-2.5,0.8-5.1,0.8-7.6,0.5c-0.6-0.1-1.1-0.1-1.7-0.2c-0.8-0.2-1.6-0.4-2.4-0.6c-0.1,0.5-0.2,1.1-0.3,1.7c0,0.2-0.1,0.3,0,0.5
				c0.3,1.4,0,2.8,0,4.3c0,0.3,0,0.6,0,0.9c0,0.5,0.2,0.9,0.5,1.3c0.2,0.2,0.3,0.4,0.4,0.7c0.2,0.5,0,0.8-0.5,0.9
				c-0.4,0-0.8,0.1-1.3,0.1c-1.3,0-2.6,0-3.9,0c0,0-0.1,0-0.1,0c-0.6,0.3-1.2,0.3-1.9,0.2c-1.2,0-2.4,0-3.6-0.1
				c-0.6,0-0.8-0.4-0.6-1c0.1-0.2,0.3-0.5,0.6-0.6c1-0.5,1.4-1.2,1.5-2.3c0.1-1.2,0.2-2.3,0.2-3.5c0-0.3-0.2-0.7-0.3-1
				c-0.3-0.7-0.7-1.5-1.1-2.2c-0.1-0.1-0.2-0.2-0.3-0.3c-1.7-0.8-3.5-1.5-5.2-2.3c-0.5-0.3-1.1-0.6-1.5-1c-0.7-0.5-1.4-0.9-2.2-1.1
				c-0.3-0.1-0.7-0.1-0.9,0.1c-1.1,0.6-2.3,1.2-3.4,1.9c-1,0.6-1.9,1.4-3.1,1.6c-0.5,0.1-1,0.2-1.5,0.2c-0.9,0.1-1.8,0.1-2.7,0.1
				c-0.9,0-1.7-0.1-2.5-0.6c0,0-0.1-0.1-0.1-0.1c-0.7,0.2-0.9-0.3-1-0.7c-0.2-0.6-0.3-1.2-0.4-1.8c-0.1-0.6,0-1.2,0-1.8
				c0-0.1-0.1-0.3-0.2-0.4c-3-1.8-5.1-4.4-6.4-7.6c-0.1-0.2-0.2-0.4-0.2-0.6c0-0.2,0-0.3,0-0.5c0.3-0.2,0.4,0,0.6,0.2
				c0.3,0.4,0.5,0.8,0.8,1.1c1.3,1.7,3.1,2.6,5.1,3c0.9,0.2,1.9,0.3,2.8,0.4c0-0.3,0-0.4,0-0.5c0.1-1.1,0.3-2.2,0.5-3.2
				c0-0.2,0.2-0.5,0.4-0.7c0.2,0.2,0.4,0.4,0.5,0.6c0.4,0.6,0.8,1.2,1.4,1.6c1,0.7,2.1,0.6,2.9-0.3c0.4-0.4,0.8-0.9,1.1-1.4
				c0.5-0.8,1-1.7,1.5-2.5c-0.3-0.2-0.5-0.3-0.7-0.5c-0.3-0.3-0.7-0.6-0.8-0.9c-0.4-0.9-0.4-1.9-0.1-2.9c0.1-0.3,0.3-0.4,0.6-0.2
				c0.5,0.3,1,0.6,1.5,0.9c0.1-0.4,0.2-0.8,0.4-1.2c0.1-0.3,0.3-0.3,0.6-0.1c0.4,0.4,0.8,0.7,1.2,1c0.4,0.4,0.8,0.8,0.9,1.3
				c0.1,0.4,0.2,0.8,0.3,1.2c0.3-0.1,0.6-0.2,0.9-0.4c1.9-1.1,3.9-2.1,5.8-3.2c1.5-0.8,3-1.6,4.7-2c0.5-0.1,0.9-0.2,1.4-0.3
				C703.3,265,703.9,265,704.4,265z M705.9,298.2c0.3-0.3,0.6-0.7,0.9-0.9c0.4-0.3,0.6-0.7,0.6-1.1c0.1-1.1-0.2-2-1-2.7
				c0,0.1-0.1,0.1-0.1,0.2c-0.4,1-0.8,1.9-1.2,2.9c-0.1,0.2,0,0.5,0.1,0.7C705.4,297.6,705.7,297.9,705.9,298.2z"/>
			<polygon class="st4" points="1704.3,288.8 1704.3,295.6 1611.6,295.6 1611.6,288.8 1621.1,288.8 1621.1,282.1 1629.3,282.1 
				1629.3,274.5 1635.4,274.5 1635.4,260.1 1614.4,253.1 1640.9,241.5 1640.9,236.6 1620.1,227.6 1644.9,218.3 1644.9,213.5 
				1628.2,207.4 1648.5,199.1 1648.5,195.4 1636.9,190.2 1652.7,183.2 1652.7,181.1 1644.2,177.7 1655.5,170.7 1655.5,166.7 
				1657.4,166.7 1658,163 1658.6,166.7 1660.5,166.7 1660.5,170.7 1671.8,177.7 1663.2,181.1 1663.2,183.2 1679,190.2 1667.4,195.4 
				1667.4,199.1 1687.7,207.4 1671.1,213.5 1671.1,218.3 1695.8,227.6 1675.1,236.6 1675.1,241.5 1701.6,253.1 1680.6,260.1 
				1680.6,274.5 1686.7,274.5 1686.7,282.1 1694.8,282.1 1694.8,288.8 			"/>
			<g>
				<ellipse class="st9" cx="1469" cy="244.5" rx="3.1" ry="2.4"/>
				<circle class="st9" cx="1469" cy="241.8" r="1.1"/>
				<ellipse class="st9" cx="1469" cy="241.8" rx="0.5" ry="3"/>
				<g>
					<polygon class="st9" points="1491.8,253.9 1472.9,243.8 1469.3,243.8 1468.2,243.8 1464.7,243.8 1445.8,253.9 1443.3,253.5 
						1445.1,254.9 1468.6,254.9 1469,254.9 1492.5,254.9 1494.3,253.5 					"/>
					<rect x="1449.7" y="257.9" class="st9" width="38.1" height="1.6"/>
					<path class="st9" d="M1486.3,260.7h-35c-0.9,0-1.6-0.7-1.6-1.6l0,0h38.1l0,0C1487.9,260,1487.2,260.7,1486.3,260.7z"/>
					<rect x="1450.8" y="273.1" class="st9" width="36" height="4.2"/>
					<rect x="1449.2" y="277.2" class="st9" width="39.2" height="0.9"/>
					<g>
						<rect x="1450.5" y="260.3" class="st9" width="36.5" height="1.3"/>
						<rect x="1450.9" y="260.3" class="st9" width="1.5" height="12.9"/>
						<rect x="1462.3" y="260.3" class="st9" width="1.5" height="12.9"/>
						<rect x="1473.6" y="260.3" class="st9" width="1.5" height="12.9"/>
						<rect x="1484.9" y="260.3" class="st9" width="1.5" height="12.9"/>
						<g>
							<path class="st9" d="M1452,263.8c0,0,0.8,0,1.2-0.8c0.3-0.8,0.5-0.9,1.5-0.9c1,0,1.4-0.5,1.4-0.5h-4
								C1452.2,261.5,1452.1,263.8,1452,263.8z"/>
							<path class="st9" d="M1462.9,263.8c0,0-0.8,0-1.2-0.8s-0.5-0.9-1.5-0.9s-1.4-0.5-1.4-0.5h4
								C1462.7,261.5,1462.9,263.8,1462.9,263.8z"/>
						</g>
						<g>
							<path class="st9" d="M1463.2,263.8c0,0,0.8,0,1.2-0.8c0.3-0.8,0.5-0.9,1.5-0.9s1.4-0.5,1.4-0.5h-4
								C1463.3,261.5,1463.2,263.8,1463.2,263.8z"/>
							<path class="st9" d="M1474,263.8c0,0-0.8,0-1.2-0.8s-0.5-0.9-1.5-0.9s-1.4-0.5-1.4-0.5h4C1473.9,261.5,1474,263.8,1474,263.8
								z"/>
						</g>
						<g>
							<path class="st9" d="M1474.8,263.8c0,0,0.8,0,1.2-0.8s0.5-0.9,1.5-0.9s1.4-0.5,1.4-0.5h-4
								C1475,261.5,1474.9,263.8,1474.8,263.8z"/>
							<path class="st9" d="M1485.7,263.8c0,0-0.8,0-1.2-0.8s-0.5-0.9-1.5-0.9s-1.4-0.5-1.4-0.5h4
								C1485.5,261.5,1485.6,263.8,1485.7,263.8z"/>
						</g>
					</g>
					<rect x="1451.1" y="255.3" class="st9" width="35.4" height="2.7"/>
					<g>
						<rect x="1456.1" y="255.3" class="st9" width="1.4" height="2.7"/>
						<polygon class="st9" points="1451.4,258 1450,258 1448.3,255.3 1449.8,255.3 						"/>
						<rect x="1464.1" y="255.3" class="st9" width="1.4" height="2.7"/>
						<rect x="1472.2" y="255.3" class="st9" width="1.4" height="2.7"/>
						<rect x="1480.2" y="255.3" class="st9" width="1.4" height="2.7"/>
						<polygon class="st9" points="1487.5,258 1486.1,258 1487.5,255.3 1488.9,255.3 						"/>
					</g>
					<rect x="1446.6" y="254.7" class="st9" width="44.3" height="1.3"/>
				</g>
			</g>
			<g>
				<g>
					<polygon class="st4" points="1515.2,241.2 1515.2,281.4 1546.4,281.4 1546.4,238.3 					"/>
				</g>
				<rect x="1518.9" y="269.8" class="st8" width="4.7" height="4.5"/>
				<rect x="1538.3" y="269.8" class="st8" width="4.7" height="4.5"/>
				<g>
					<g>
						<g>
							<path class="st8" d="M1521,255.1v8.5h6.1v-8.5H1521z"/>
						</g>
					</g>
					<rect x="1522.1" y="256" class="st10" width="1.8" height="2.8"/>
					<rect x="1524.5" y="256" class="st10" width="1.8" height="2.8"/>
				</g>
				<g>
					<g>
						<g>
							<path class="st8" d="M1521,243.5v8.5h6.1v-8.5H1521z"/>
						</g>
					</g>
					<rect x="1522.1" y="244.3" class="st8" width="1.8" height="2.8"/>
					<rect x="1524.5" y="244.3" class="st8" width="1.8" height="2.8"/>
				</g>
				<g>
					<g>
						<g>
							<path class="st8" d="M1533.5,255.1v8.5h6.1v-8.5H1533.5z"/>
						</g>
					</g>
					<rect x="1534.6" y="256" class="st8" width="1.8" height="2.8"/>
					<rect x="1537" y="256" class="st8" width="1.8" height="2.8"/>
				</g>
				<g>
					<g>
						<g>
							<path class="st8" d="M1533.5,243.5v8.5h6.1v-8.5H1533.5z"/>
						</g>
					</g>
					<rect x="1534.6" y="244.3" class="st11" width="1.8" height="2.8"/>
					<rect x="1537" y="244.3" class="st11" width="1.8" height="2.8"/>
				</g>
				<path class="st8" d="M1526.4,267.7v1.4h0.9v10.8h7.2V269h0.9v-1.4H1526.4z M1530.5,278.6h-2.1v-3.7h2.1V278.6z M1530.5,272.9
					h-2.1v-3.7h2.1V272.9z M1533.3,278.6h-2.1v-3.7h2.1V278.6z M1533.3,272.9h-2.1v-3.7h2.1V272.9z"/>
				<path class="st12" d="M1542,232.6c-0.1,0-7.7,0-11.6,0.1c-3.5,0-12-0.1-12-0.1l-8.6,9.3h1.8l2.8,3.2l0.6-0.5l-2.3-2.6h11.6h11.6
					h12.2l-2.3,2.6l0.6,0.5l2.8-3.2h1.8L1542,232.6z"/>
			</g>
			<g>
				<g>
					<polygon class="st13" points="1683,236.5 1683,281.4 1717.7,281.4 1717.7,233.3 					"/>
				</g>
				<rect x="1687" y="268.5" class="st8" width="5.2" height="5"/>
				<rect x="1708.7" y="268.5" class="st8" width="5.2" height="5"/>
				<g>
					<g>
						<g>
							<path class="st8" d="M1689.4,252v9.5h6.9V252H1689.4z"/>
						</g>
					</g>
					<rect x="1690.6" y="253" class="st8" width="2" height="3.1"/>
					<rect x="1693.2" y="253" class="st8" width="2" height="3.1"/>
				</g>
				<g>
					<g>
						<g>
							<path class="st8" d="M1689.4,239.1v9.5h6.9v-9.5H1689.4z"/>
						</g>
					</g>
					<rect x="1690.6" y="240.1" class="st10" width="2" height="3.1"/>
					<rect x="1693.2" y="240.1" class="st10" width="2" height="3.1"/>
				</g>
				<g>
					<g>
						<g>
							<path class="st8" d="M1703.4,252v9.5h6.9V252H1703.4z"/>
						</g>
					</g>
					<rect x="1704.5" y="253" class="st8" width="2" height="3.1"/>
					<rect x="1707.2" y="253" class="st8" width="2" height="3.1"/>
				</g>
				<g>
					<g>
						<g>
							<path class="st8" d="M1703.4,239.1v9.5h6.9v-9.5H1703.4z"/>
						</g>
					</g>
					<rect x="1704.5" y="240.1" class="st10" width="2" height="3.1"/>
					<rect x="1707.2" y="240.1" class="st10" width="2" height="3.1"/>
				</g>
				<path class="st8" d="M1695.4,266.1v1.5h1v12h8v-12h1v-1.5H1695.4z M1700,278.3h-2.4v-4.1h2.4V278.3z M1700,272h-2.4v-4.1h2.4
					V272z M1703.1,278.3h-2.4v-4.1h2.4V278.3z M1703.1,272h-2.4v-4.1h2.4V272z"/>
				<path class="st12" d="M1712.9,227c-0.1,0-8.5,0-13,0.1c-3.9,0-13.4-0.1-13.4-0.1l-9.6,10.4h2l3.1,3.5l0.7-0.6l-2.6-2.9h12.9
					h12.9h13.6l-2.6,2.9l0.7,0.6l3.1-3.5h2L1712.9,227z"/>
			</g>
			<g>
				<g>
					<polygon class="st4" points="1618.3,239.4 1618.3,277.5 1647.9,277.5 1647.9,236.7 					"/>
				</g>
				<path class="st8" d="M1629,264.5v1.3h0.9V276h6.8v-10.2h0.9v-1.3H1629z"/>
				<path class="st8" d="M1643.7,231.3c0,0-7.3,0-11,0.1c-3.3,0-11.4-0.1-11.4-0.1l-8.2,8.8h1.7l2.7,3l0.6-0.5l-2.2-2.5h11h11h11.6
					l-2.2,2.5l0.6,0.5l2.7-3h1.7L1643.7,231.3z"/>
				<polygon class="st8" points="1649.6,249.3 1616.5,249.3 1612.9,252.6 1615.6,252.6 1618.3,255.7 1618.9,255.2 1616.6,252.6 
					1649.5,252.6 1647.2,255.2 1647.8,255.7 1650.6,252.6 1653.3,252.6 				"/>
				<polygon class="st8" points="1626.4,267.5 1626.4,266.7 1621.6,266.7 1621.6,267.5 1622.3,267.5 1622.3,270.2 1621.6,270.2 
					1621.6,271 1626.4,271 1626.4,270.2 1625.7,270.2 1625.7,267.5 				"/>
				<polygon class="st8" points="1636.6,255.8 1636.6,254.5 1629,254.5 1629,255.8 1630.2,255.8 1630.2,260 1629,260 1629,261.3 
					1636.6,261.3 1636.6,260 1635.6,260 1635.6,255.8 				"/>
				<polygon class="st8" points="1627.2,255.8 1627.2,254.5 1619.6,254.5 1619.6,255.8 1620.7,255.8 1620.7,260 1619.6,260 
					1619.6,261.3 1627.2,261.3 1627.2,260 1626.1,260 1626.1,255.8 				"/>
				<polygon class="st8" points="1645.7,255.8 1645.7,254.5 1638.2,254.5 1638.2,255.8 1639.3,255.8 1639.3,260 1638.2,260 
					1638.2,261.3 1645.7,261.3 1645.7,260 1644.7,260 1644.7,255.8 				"/>
				<polygon class="st8" points="1636.6,242.6 1636.6,241.3 1629,241.3 1629,242.6 1630.2,242.6 1630.2,246.8 1629,246.8 
					1629,248.1 1636.6,248.1 1636.6,246.8 1635.6,246.8 1635.6,242.6 				"/>
				<polygon class="st8" points="1627.2,242.6 1627.2,241.3 1619.6,241.3 1619.6,242.6 1620.7,242.6 1620.7,246.8 1619.6,246.8 
					1619.6,248.1 1627.2,248.1 1627.2,246.8 1626.1,246.8 1626.1,242.6 				"/>
				<polygon class="st8" points="1645.7,242.6 1645.7,241.3 1638.2,241.3 1638.2,242.6 1639.3,242.6 1639.3,246.8 1638.2,246.8 
					1638.2,248.1 1645.7,248.1 1645.7,246.8 1644.7,246.8 1644.7,242.6 				"/>
				<polygon class="st8" points="1644.4,267.5 1644.4,266.7 1639.6,266.7 1639.6,267.5 1640.3,267.5 1640.3,270.2 1639.6,270.2 
					1639.6,271 1644.4,271 1644.4,270.2 1643.7,270.2 1643.7,267.5 				"/>
			</g>
			<g>
				<g>
					<rect x="1730.1" y="253.1" class="st12" width="29.5" height="26.5"/>
				</g>
				<path class="st8" d="M1740.8,266.6v1.3h0.9v10.2h6.8v-10.2h0.9v-1.3H1740.8z"/>
				<polygon class="st8" points="1760.6,246.8 1729,246.8 1725.6,254.9 1728.2,254.9 1730.8,257.8 1731.3,257.3 1729.2,254.9 
					1760.5,254.9 1758.3,257.3 1758.9,257.8 1761.5,254.9 1764.1,254.9 				"/>
				<polygon class="st8" points="1738.1,269.6 1738.1,268.8 1733.4,268.8 1733.4,269.6 1734.1,269.6 1734.1,272.2 1733.4,272.2 
					1733.4,273.1 1738.1,273.1 1738.1,272.2 1737.5,272.2 1737.5,269.6 				"/>
				<polygon class="st8" points="1748.4,257.9 1748.4,256.6 1740.8,256.6 1740.8,257.9 1741.9,257.9 1741.9,262.1 1740.8,262.1 
					1740.8,263.4 1748.4,263.4 1748.4,262.1 1747.3,262.1 1747.3,257.9 				"/>
				<polygon class="st8" points="1738.9,257.9 1738.9,256.6 1731.4,256.6 1731.4,257.9 1732.5,257.9 1732.5,262.1 1731.4,262.1 
					1731.4,263.4 1738.9,263.4 1738.9,262.1 1737.9,262.1 1737.9,257.9 				"/>
				<polygon class="st8" points="1757.5,257.9 1757.5,256.6 1750,256.6 1750,257.9 1751.1,257.9 1751.1,262.1 1750,262.1 
					1750,263.4 1757.5,263.4 1757.5,262.1 1756.5,262.1 1756.5,257.9 				"/>
				<polygon class="st8" points="1756.2,269.6 1756.2,268.8 1751.4,268.8 1751.4,269.6 1752.1,269.6 1752.1,272.2 1751.4,272.2 
					1751.4,273.1 1756.2,273.1 1756.2,272.2 1755.5,272.2 1755.5,269.6 				"/>
			</g>
			<g>
				<g>
					<rect x="1392" y="254.9" class="st12" width="33.4" height="30"/>
				</g>
				<path class="st8" d="M1404.1,270.1v1.5h1v11.6h7.7v-11.6h1v-1.5H1404.1z"/>
				<polygon class="st8" points="1426.5,247.8 1390.8,247.8 1386.9,256.9 1389.8,256.9 1392.7,260.2 1393.4,259.6 1390.9,256.9 
					1426.4,256.9 1423.9,259.6 1424.5,260.2 1427.5,256.9 1430.4,256.9 				"/>
				<polygon class="st8" points="1401.1,273.6 1401.1,272.6 1395.7,272.6 1395.7,273.6 1396.5,273.6 1396.5,276.6 1395.7,276.6 
					1395.7,277.5 1401.1,277.5 1401.1,276.6 1400.3,276.6 1400.3,273.6 				"/>
				<polygon class="st8" points="1412.6,260.3 1412.6,258.8 1404.1,258.8 1404.1,260.3 1405.4,260.3 1405.4,265.1 1404.1,265.1 
					1404.1,266.6 1412.6,266.6 1412.6,265.1 1411.5,265.1 1411.5,260.3 				"/>
				<polygon class="st8" points="1402,260.3 1402,258.8 1393.4,258.8 1393.4,260.3 1394.7,260.3 1394.7,265.1 1393.4,265.1 
					1393.4,266.6 1402,266.6 1402,265.1 1400.8,265.1 1400.8,260.3 				"/>
				<polygon class="st8" points="1423,260.3 1423,258.8 1414.4,258.8 1414.4,260.3 1415.7,260.3 1415.7,265.1 1414.4,265.1 
					1414.4,266.6 1423,266.6 1423,265.1 1421.8,265.1 1421.8,260.3 				"/>
				<polygon class="st8" points="1421.5,273.6 1421.5,272.6 1416.1,272.6 1416.1,273.6 1416.9,273.6 1416.9,276.6 1416.1,276.6 
					1416.1,277.5 1421.5,277.5 1421.5,276.6 1420.7,276.6 1420.7,273.6 				"/>
			</g>
			<path class="st9" d="M1603.9,274.3h-0.4v-1.3h-10.4v-4h-4.8v-12.7h0.1c0.7,0,1.3-0.5,1.6-1.1h1.4v-1.4h-2.1l6.9-5.6
				c2.3,0,3.9,0,4,0c0.3,0,1-0.9,1-0.9s0,0.2,1-0.3c1-0.5,0.3-1.5,0.3-1.2c0,0.4-1.3,0.3-1.3,0.3l-20.6-11l-0.7-0.4v-2.3h0.2
				c0.7,0,1.3-0.5,1.4-1.2h1.6v-1.2h-2.3l6.8-6h3.7l0.4-0.7c0.9,0,0.9-1.1,0.7-1.4c-0.2-0.3-0.2,0.5-0.4,0.6
				c-0.2,0.1-0.7-0.3-0.7-0.3l-16.1-8.6h-0.9c-0.2-0.5-0.6-1.7-0.7-2.7c-0.1-1.3-1.4-1.2-1.4-1.2v-0.4h0.6v-0.4h-0.7l0-0.4
				c0,0,0.2,0,0.4-0.5c0.2-0.5-0.1-0.7-0.1-0.7s0,0,0.1-0.3c0.1-0.3-0.3-0.5-0.3-0.5c0.2-0.9-0.4-0.7-0.4-0.7
				c0.2-0.4-0.2-1.2-0.2-1.3v0c0,0,0,0,0,0c0,0,0,0,0,0v0c0,0-0.4,0.9-0.2,1.3c0,0-0.6-0.1-0.4,0.7c0,0-0.5,0.2-0.3,0.5
				c0.1,0.3,0.1,0.3,0.1,0.3s-0.3,0.2-0.1,0.7c0.2,0.5,0.4,0.5,0.4,0.5l0,0.4h-0.7v0.4h0.6v0.4c0,0-1.3-0.1-1.4,1.2
				c0,1-0.5,2.2-0.7,2.7h-0.9l-16.1,8.6c0,0-0.5,0.4-0.7,0.3c-0.2-0.1-0.2-0.8-0.4-0.6c-0.2,0.3-0.3,1.4,0.7,1.4l0.4,0.7h3.7l6.8,6
				h-2.6v1.2h1.5c0.1,0.6,0.6,1.1,1.3,1.2v2.7h0l-20.6,11c0,0-1.2,0-1.3-0.3c0-0.4-0.7,0.7,0.3,1.2c1,0.5,1,0.3,1,0.3s0.6,0.8,1,0.9
				c0.1,0,1.6,0,4,0l6.9,5.6h-2.2v1.4h1.4c0.2,0.6,0.8,1.1,1.6,1.1h0.1v12.7h-4.7v4h-11v1.3h-0.4c-0.4,0-0.7,0.3-0.7,0.7
				c0,0.4,0.3,0.7,0.7,0.7h0.4v3.1h64.3v-3.1h0.4c0.4,0,0.7-0.3,0.7-0.7C1604.6,274.6,1604.3,274.3,1603.9,274.3z M1580,228.9v-4.7
				h5.1L1580,228.9z M1563.2,224.3v4.5l-4.9-4.5H1563.2z M1593.4,248.3l-5,4v-4C1590.2,248.3,1591.9,248.3,1593.4,248.3z
				 M1554.8,248.3v3.8l-4.7-3.8C1551.5,248.3,1553.1,248.3,1554.8,248.3z"/>
			<path class="st9" d="M1794.8,282.9v1.3v1.5v0h53.5v0v-1.5v-1.3h-2.9v-2.7h-2.7v-1.3v-1.3h-2.7v-2.3h-2.8v-2.7h-3.2v-7.9
				c0.2,0,0.4-0.2,0.4-0.4c0,0,0-0.1,0-0.1l1.2-1.9h9.7v-0.6c0-0.8-0.5-1.5-1.3-1.6c-0.1-0.8-0.8-1.5-1.6-1.5l-14.2-6.5l0.8-0.9h-1
				l3.4-5h0.6v-0.3c0-0.3-0.2-0.6-0.5-0.7c0-0.4-0.3-0.6-0.7-0.6l-6.1-2.8h-0.6V241h0.7v-0.6h-1.1v-0.2c0-0.8-0.6-1.4-1.4-1.4h-0.1
				v-1.1c0-0.1-0.1-0.2-0.2-0.2c-0.1,0-0.2,0.1-0.2,0.2v1.1c-0.7,0.1-1.3,0.7-1.3,1.4v0.2h-1.1v0.6h0.7v0.5h-0.6l-6.1,2.8
				c-0.4,0-0.7,0.3-0.7,0.6c-0.3,0.1-0.5,0.4-0.5,0.7v0.3h0.6l3.1,5h-0.7l0.6,1l-14.1,6.5c-0.8,0-1.5,0.7-1.6,1.5
				c-0.7,0.2-1.3,0.9-1.3,1.6v0.6h9.3l1.2,2.1c0,0.2,0.2,0.4,0.4,0.4h0v7.8h-3.6v1.3v1.4h-2.9v1.3v1h-2.3v1.3v1.3h-2.9v2.7H1794.8z
				 M1832.6,263.8l0.7-1.6h1.5l-1,1.6c0,0-0.1,0-0.1,0H1832.6z M1831.8,262.2h1l-0.7,1.6h-0.3V262.2z M1816.1,249.7l-2.3-3.7h2.3
				V249.7z M1827.6,245.9h2.4l-2.4,3.4v-1.5V245.9z M1825.8,270.5v-2h-0.5c0-0.3,0.3-0.6,0.6-0.6h1c0.3,0,0.6,0.2,0.6,0.6h-0.5v2
				h0.5c-0.1,0.3-0.3,0.5-0.6,0.5h-1c-0.3,0-0.5-0.2-0.6-0.5H1825.8z M1819.6,267.9c0-0.3,0.3-0.6,0.6-0.6h2.9
				c0.3,0,0.6,0.3,0.6,0.6v4.2c0,0.3-0.3,0.6-0.6,0.6h-2.9c-0.3,0-0.6-0.3-0.6-0.6V267.9z M1818,246.5h7.7v0.5h-1.4v2.4h1.4v0.5
				h-7.7v-0.5h1.4v-2.4h-1.4V246.5z M1816.3,270.5v-2h-0.5c0-0.3,0.3-0.6,0.6-0.6h1c0.3,0,0.6,0.2,0.6,0.6h-0.5v2h0.5
				c-0.1,0.3-0.3,0.5-0.6,0.5h-1c-0.3,0-0.5-0.2-0.6-0.5H1816.3z M1811.2,263.6l-0.6-1.4h0.6V263.6z M1810.8,263.8h-1.1
				c-0.1,0-0.1,0-0.2,0l-1-1.6h1.5L1810.8,263.8z"/>
			<path class="st9" d="M1784.9,242.1c0.6-0.3,0.9-0.6,0.9-1c0-0.5-0.7-1-1.8-1.3c0-0.9-0.2-1.5-2-1.3c0-0.1,0-1.1,0-1.2
				c0,0,1.2-0.9,1.4-1c0.2-0.1,0.3-0.3,0.3-0.6c-0.1-0.6-0.3-0.9-0.6-0.5c-0.1,0.1,0.1,0.5-0.1,0.6c-0.3,0.2-1.1,0.4-1.1,0.5
				c0,0-0.2-0.9-0.3-1.1c0.2-0.1,0.4-0.3,0.4-0.7c0-0.4-0.1-0.8-0.3-1l0-0.1l-1.3-1.1c0,0-1,1.5-0.6,1.8c0.2,0.1,0.5,0.3,0.8,0.4
				c0,0.1,0,0.2,0.1,0.3c-0.5,0.1-0.8,0.8-0.8,1.5c0,0.1,0,2.6,0.2,3c0,0.1,0,0.1-0.1,0.2c-0.3,0-0.7,0.1-1,0.1
				c-0.7-3.4,0.6-6,0.6-6c0.1-0.3,0.1-0.6-0.1-0.8c-0.1-0.1-0.4-0.5-0.4-0.7c0-0.1,0-0.2,0.1-0.3c0.5-0.5,1.2-0.4,1.3-0.4
				c0.4,0.1,0.7-0.2,0.8-0.5c0.1-0.4-0.2-0.7-0.5-0.8c-0.1,0-1.5-0.3-2.5,0.8c-0.3,0.4-0.5,0.8-0.5,1.2c0,0.5,0.3,1,0.5,1.3
				c-0.4,1-1.2,3.4-0.5,6.5c-0.8,0.3-1.4,0.7-1.4,1.1c0,0.4,0.4,0.7,0.9,1c-0.6,0.4-0.9,0.8-0.9,1.3c0,0.5,0.3,1,0.9,1.3
				c0.3,0.8,0.9,1.4,1.7,1.7v7.6h-0.3c-0.6,0-1.1,0.5-1.1,1.1v1c0,0.6,0.5,1.1,1.1,1.1h0.3v28.6h4.5v-28.6h0.5
				c0.6,0,1.1-0.5,1.1-1.1v-1c0-0.6-0.5-1.1-1.1-1.1h-0.5v-7.6c0.8-0.3,1.4-0.9,1.7-1.7c0.6-0.4,0.9-0.8,0.9-1.3
				C1785.8,242.9,1785.5,242.4,1784.9,242.1z"/>
			<path class="st9" d="M1043.9,342.3c0,0,272.1-65.9,425.2-66.9s470.2,3.4,470.2,3.4l9.1,67.9L1043.9,342.3z"/>
			<path class="st14" d="M1299.5,318.3c0,0,404.6-37.5,572.9-9.1l44.6,32.4l-595.2,14.2L1299.5,318.3z"/>
			<path class="st8" d="M1004.4,300c0,0,370.1-4.1,538.4,21.3c168.3,25.3,379.2-31.4,379.2-31.4V435h-919.7L1004.4,300z"/>
		</g>
	</g>
</g>
<g id="Layer_2">
</g>
</svg>
