<?xml version="1.0" encoding="utf-8"?>
<!-- Generator: Adobe Illustrator 24.3.0, SVG Export Plug-In . SVG Version: 6.00 Build 0)  -->
<svg version="1.1" xmlns="http://www.w3.org/2000/svg" xmlns:xlink="http://www.w3.org/1999/xlink" x="0px" y="0px"
	 viewBox="0 0 332.9 75.6" style="enable-background:new 0 0 332.9 75.6;" xml:space="preserve">
<style type="text/css">
	.st0{fill:url(#SVGID_1_);}
	.st1{fill:url(#SVGID_2_);}
	.st2{fill:url(#SVGID_3_);}
	.st3{fill:#3360C4;}
	.st4{fill:url(#SVGID_4_);}
	.st5{fill:url(#SVGID_5_);}
	.st6{fill:url(#SVGID_6_);}
	.st7{fill:url(#SVGID_7_);}
	.st8{fill:url(#SVGID_8_);}
	.st9{fill:url(#SVGID_9_);}
</style>
<g id="Background">
</g>
<g id="Objects">
	<g>
		<g>
			<linearGradient id="SVGID_1_" gradientUnits="userSpaceOnUse" x1="62.756" y1="166.1158" x2="57.9076" y2="-112.1834">
				<stop  offset="0" style="stop-color:#4172C2"/>
				<stop  offset="1" style="stop-color:#77CCFC"/>
			</linearGradient>
			<path class="st0" d="M70.6,63.4c2.6-2.8,3.9-7.4,2.6-11.3c-0.9-2.7-2.8-4.6-4.7-6.3c-1.9-1.6-4-3.1-5.7-5.2
				c-1.6-2.1-2.7-5.1-2.1-7.8c0.4-1.7,1.3-3.2,2.6-4c0.8-0.5,1.6-0.7,2.5-0.8c-2-0.4-4.1,0.1-5.7,1.4c-4.2,3.7-8.3,7.4-12.5,11.3
				C55.3,47.6,63,54.9,70.6,63.4z"/>
		</g>
	</g>
	<linearGradient id="SVGID_2_" gradientUnits="userSpaceOnUse" x1="39.1555" y1="18.3861" x2="49.7999" y2="18.3861">
		<stop  offset="0" style="stop-color:#FFC557"/>
		<stop  offset="0.7028" style="stop-color:#F98D30"/>
		<stop  offset="1" style="stop-color:#F7741E"/>
	</linearGradient>
	<path class="st1" d="M49.8,18.4c0,2.9-2.4,5.3-5.3,5.3c-2.9,0-5.3-2.4-5.3-5.3c0-2.9,2.4-5.3,5.3-5.3
		C47.4,13.1,49.8,15.4,49.8,18.4z"/>
	<linearGradient id="SVGID_3_" gradientUnits="userSpaceOnUse" x1="28.2827" y1="166.7164" x2="23.4343" y2="-111.5829">
		<stop  offset="0" style="stop-color:#4172C2"/>
		<stop  offset="1" style="stop-color:#77CCFC"/>
	</linearGradient>
	<path class="st2" d="M40.6,75.9c2.8-3.4,4-8.7,2.6-13.1c-1.1-3.2-3.4-5.6-5.7-7.6c-2.4-2-4.9-3.8-6.9-6.3c-2-2.6-3.3-6.1-2.6-9.5
		c0.4-2.1,1.6-3.9,3.2-4.9c0.9-0.6,2-0.9,3-0.9c-2.4-0.5-5,0.1-6.9,1.8C21.2,40.7,15.1,46.2,9.1,52C14.2,65,26.2,74.4,40.6,75.9z"/>
	<g>
		<path class="st3" d="M38.9,36.9l-1.4-1.3c-0.1-0.1-0.1-0.1-0.2-0.2c-1-0.8-2.3-0.9-3.3-0.3l0.3,0c-1.4,0.9-2.5,2.5-2.9,4.4
			c-0.6,2.6,0.4,5.4,2.9,8.2c2.1,2.4,4.2,4.5,6.7,6.6c2.8,2.4,4.6,4.9,5.6,7.8c1.4,4,1,9.8-2,13.4c0,0,0.4-0.1,0.4-0.1
			c7.2,0,13.8-2,19.8-5.9c1.5-1.1,2.9-2.3,4.3-3.5C59,54.9,48.8,45.8,38.9,36.9z"/>
		<path class="st3" d="M81.8,41.9c-4.1-3.9-8.4-7.7-12.5-11.4c0,0-1-0.8-1-0.8c-0.9-0.8-2.4-0.9-3.3-0.2c-1,0.8-1.5,1.9-1.8,3.2
			c-0.4,2.1,0.3,4.4,2.4,6.7c1.7,2,3.5,3.7,5.5,5.4c2.3,2,3.8,4.1,4.6,6.5c0.7,2,0.8,4.4,0.5,6.6C79.5,53,81.2,47.8,81.8,41.9z"/>
	</g>
	<g>
		<linearGradient id="SVGID_4_" gradientUnits="userSpaceOnUse" x1="46.7138" y1="166.3952" x2="41.8654" y2="-111.904">
			<stop  offset="0" style="stop-color:#4172C2"/>
			<stop  offset="1" style="stop-color:#77CCFC"/>
		</linearGradient>
		<path class="st4" d="M44.5,0C23.5,0,6.4,17.1,6.4,38.1c0,3.7,0.5,7.3,1.5,10.7l3.2-2.9c-0.6-2.5-0.9-5.1-0.9-7.7
			c0-18.9,15.3-34.2,34.2-34.2c17.7,0,32.3,13.5,34,30.8c1.3,1.2,2.7,2.5,4,3.7c0-0.1,0-0.2,0-0.3C82.5,17.1,65.5,0,44.5,0z"/>
	</g>
	<g>
		<path class="st3" d="M100.4,46.6V8h9.7c5.9,18.2,7.2,22.5,7.6,24.3h0.2c-0.4-4.9-0.5-11.2-0.5-17.2V8h7.8v38.6h-9.6
			c-6.1-20-7.2-23.9-7.7-25.6h-0.2c0.3,4.6,0.5,11.8,0.5,18.1v7.5H100.4z"/>
		<path class="st3" d="M151.3,30.3h-11.7v9.2h13.2l-1,7.2H131V8h20.9v7.3h-12.2v7.8h11.7V30.3z"/>
		<path class="st3" d="M156.6,8h12.7c6.7,0,11.5,3.7,11.5,11.7c0,8.1-4.3,11.8-11.9,11.8h-3.5v15.1h-8.8V8z M165.4,24.8h2.3
			c3.1,0,4.2-1.5,4.2-5.1c0-3.6-1.5-5-4-5h-2.5V24.8z"/>
		<path class="st3" d="M190.1,38.4l-1.3,8.3h-8.9L187.5,8H200l7.7,38.6h-9.2l-1.4-8.3H190.1z M195.9,30.9
			c-0.9-5.6-1.7-11.9-2.2-15.5h-0.3c-0.4,3.7-1.3,9.8-2.2,15.5H195.9z"/>
		<path class="st3" d="M210.6,8h8.9v31.4h12.2l-0.8,7.2h-20.3V8z"/>
	</g>
	<g>
		<linearGradient id="SVGID_5_" gradientUnits="userSpaceOnUse" x1="236.525" y1="21.5692" x2="332.3787" y2="148.7768">
			<stop  offset="0" style="stop-color:#FFC557"/>
			<stop  offset="0.7028" style="stop-color:#F98D30"/>
			<stop  offset="1" style="stop-color:#F7741E"/>
		</linearGradient>
		<path class="st5" d="M239,22.8h5.9v9.7h4.5v-9.7h5.9v25.7h-5.9v-11h-4.5v11H239V22.8z"/>
		<linearGradient id="SVGID_6_" gradientUnits="userSpaceOnUse" x1="247.3369" y1="13.4222" x2="343.1906" y2="140.6299">
			<stop  offset="0" style="stop-color:#FFC557"/>
			<stop  offset="0.7028" style="stop-color:#F98D30"/>
			<stop  offset="1" style="stop-color:#F7741E"/>
		</linearGradient>
		<path class="st6" d="M264.2,43l-0.9,5.5h-5.9l5.1-25.7h8.3l5.1,25.7h-6.1l-0.9-5.5H264.2z M268.1,38.1c-0.6-3.8-1.1-7.9-1.5-10.3
			h-0.2c-0.3,2.5-0.9,6.5-1.5,10.3H268.1z"/>
		<linearGradient id="SVGID_7_" gradientUnits="userSpaceOnUse" x1="261.8069" y1="2.5188" x2="357.6605" y2="129.7265">
			<stop  offset="0" style="stop-color:#FFC557"/>
			<stop  offset="0.7028" style="stop-color:#F98D30"/>
			<stop  offset="1" style="stop-color:#F7741E"/>
		</linearGradient>
		<path class="st7" d="M280.3,48.5l-5.6-25.7h6.3l1.7,10c0.5,3.3,1,6.9,1.3,9.9h0.2c0.3-3.1,0.9-6.5,1.4-9.8l1.6-10.1h6.1l-5.6,25.7
			H280.3z"/>
		<linearGradient id="SVGID_8_" gradientUnits="userSpaceOnUse" x1="271.6864" y1="-4.9257" x2="367.5401" y2="122.282">
			<stop  offset="0" style="stop-color:#FFC557"/>
			<stop  offset="0.7028" style="stop-color:#F98D30"/>
			<stop  offset="1" style="stop-color:#F7741E"/>
		</linearGradient>
		<path class="st8" d="M308.9,37.6h-7.8v6.1h8.8l-0.7,4.8h-13.9V22.8h13.9v4.8h-8.1v5.2h7.8V37.6z"/>
		<linearGradient id="SVGID_9_" gradientUnits="userSpaceOnUse" x1="283.3951" y1="-13.7484" x2="379.2487" y2="113.4593">
			<stop  offset="0" style="stop-color:#FFC557"/>
			<stop  offset="0.7028" style="stop-color:#F98D30"/>
			<stop  offset="1" style="stop-color:#F7741E"/>
		</linearGradient>
		<path class="st9" d="M312.4,48.5V22.8h6.5c3.9,12.1,4.8,15,5.1,16.2h0.1c-0.3-3.2-0.3-7.5-0.3-11.5v-4.7h5.2v25.7h-6.4
			c-4.1-13.4-4.8-16-5.1-17.1h-0.1c0.2,3.1,0.3,7.9,0.3,12.1v5H312.4z"/>
	</g>
	<g>
		<path class="st3" d="M102.7,65l0.8-4c0-0.1,0-0.2,0-0.4l-2.2-6.6h2.3c0.4,1.6,1.2,3.9,1.4,5.1c0.7-1.2,2.5-3.5,3.6-5.1h2.3l-5,6.8
			c-0.1,0.1-0.1,0.2-0.2,0.4l-0.8,3.9H102.7z"/>
		<path class="st3" d="M117.4,60.1c0,1.9-1.1,5-4.5,5c-2.2,0-3.3-1.4-3.3-3.4c0-2.2,1.4-5.2,4.4-5.2C116,56.6,117.4,57.7,117.4,60.1
			z M111.9,61.8c0,1.1,0.5,1.7,1.3,1.7c1.5,0,2.1-2.2,2.1-3.6c0-1.1-0.4-1.6-1.3-1.6C112.5,58.3,111.9,60.4,111.9,61.8z"/>
		<path class="st3" d="M126.2,62.8c-0.2,0.7-0.3,1.5-0.4,2.2h-2.1c0-0.2,0.1-0.8,0.2-1.1c-0.6,0.9-1.5,1.3-2.5,1.3
			c-1.5,0-2.3-1-2-2.9l1.1-5.5h2.1l-1.1,5.2c-0.2,0.9,0,1.4,0.8,1.4c0.9,0,1.7-0.7,2.1-2.6l0.8-4h2.1L126.2,62.8z"/>
		<path class="st3" d="M129.7,59.2c0.2-0.8,0.3-1.7,0.5-2.4h2c0,0.2-0.1,0.8-0.2,1.5c0.5-1,1.3-1.7,2.7-1.7l-0.4,2.2
			c-1.5,0-2.5,0.8-2.9,2.7l-0.7,3.6h-2.1L129.7,59.2z"/>
		<path class="st3" d="M142.5,62.4l-1.3,2.6h-2.3l5.7-11h2.8l1.4,11h-2.2l-0.3-2.6H142.5z M146.2,60.6c-0.2-2.3-0.4-3.8-0.5-4.8h0
			c-0.5,1.1-1.4,2.9-2.3,4.8H146.2z"/>
		<path class="st3" d="M160.2,53.4l-1.9,9.4c-0.2,0.8-0.3,1.5-0.4,2.2h-2c0-0.3,0.1-0.6,0.1-1c-0.5,0.7-1.3,1.1-2.3,1.1
			c-1.7,0-2.7-1.3-2.7-3.3c0-2.5,1.5-5.3,4.3-5.3c1.1,0,1.9,0.5,2.1,0.9l0.8-4.1H160.2z M153.1,61.7c0,1.1,0.4,1.7,1.3,1.7
			c1.3,0,2-1.1,2.3-2.8c0.3-1.4-0.1-2.2-1.3-2.2C153.9,58.4,153.1,60.2,153.1,61.7z"/>
		<path class="st3" d="M163.6,56.8c0.3,3.5,0.4,5.2,0.4,6.2h0c0.5-1.2,1.4-2.9,2.9-6.2h2.2l-4.3,8.2h-2.4l-0.9-8.2H163.6z"/>
		<path class="st3" d="M171.9,61.4c0,0.2-0.1,0.3-0.1,0.5c0,0.9,0.3,1.6,1.3,1.6c0.9,0,1.2-0.5,1.5-1h2.2c-0.4,1.2-1.5,2.7-3.9,2.7
			c-2.2,0-3.2-1.4-3.2-3.4c0-2.2,1.2-5.2,4.3-5.2c2.4,0,3.2,1.5,3.2,3.2c0,0.7-0.1,1.1-0.2,1.6H171.9z M175.3,59.9
			c0-0.2,0-0.3,0-0.4c0-0.7-0.3-1.3-1.2-1.3c-1,0-1.6,0.6-1.8,1.7H175.3z"/>
		<path class="st3" d="M180,58.9c0.1-0.7,0.3-1.4,0.4-2.1h2.1c0,0.2-0.1,0.8-0.2,1c0.4-0.5,1.1-1.2,2.4-1.2c1.6,0,2.5,1,2,3.4l-1,5
			h-2.1l1-5c0.2-0.9,0-1.6-0.9-1.6c-1,0-1.7,0.8-2,2.3l-0.9,4.3h-2.1L180,58.9z"/>
		<path class="st3" d="M189.2,56.8h1.2l0.5-2.2h2.1l-0.5,2.2h1.5l-0.4,1.7h-1.5l-0.8,4.2c-0.1,0.5-0.1,0.9,0.6,0.9
			c0.2,0,0.5,0,0.7-0.1l-0.3,1.6c-0.5,0.2-1,0.2-1.4,0.2c-1.7,0-1.9-1-1.6-2.4l0.9-4.3h-1.2L189.2,56.8z"/>
		<path class="st3" d="M201.6,62.8c-0.2,0.7-0.3,1.5-0.4,2.2h-2.1c0-0.2,0.1-0.8,0.2-1.1c-0.6,0.9-1.5,1.3-2.5,1.3
			c-1.5,0-2.3-1-2-2.9l1.1-5.5h2.1l-1.1,5.2c-0.2,0.9,0,1.4,0.8,1.4c0.9,0,1.7-0.7,2.1-2.6l0.8-4h2.1L201.6,62.8z"/>
		<path class="st3" d="M205.1,59.2c0.2-0.8,0.3-1.7,0.5-2.4h2c0,0.2-0.1,0.8-0.2,1.5c0.5-1,1.3-1.7,2.7-1.7l-0.4,2.2
			c-1.5,0-2.5,0.8-2.9,2.7L206,65h-2.1L205.1,59.2z"/>
		<path class="st3" d="M213,61.4c0,0.2-0.1,0.3-0.1,0.5c0,0.9,0.3,1.6,1.3,1.6c0.9,0,1.2-0.5,1.5-1h2.2c-0.4,1.2-1.5,2.7-3.9,2.7
			c-2.2,0-3.2-1.4-3.2-3.4c0-2.2,1.2-5.2,4.3-5.2c2.4,0,3.2,1.5,3.2,3.2c0,0.7-0.1,1.1-0.2,1.6H213z M216.4,59.9c0-0.2,0-0.3,0-0.4
			c0-0.7-0.3-1.3-1.2-1.3c-1,0-1.6,0.6-1.8,1.7H216.4z"/>
		<path class="st3" d="M226.8,54h2.2l-0.9,4.3h4.2l0.9-4.3h2.2L233,65h-2.2l1-4.9h-4.2l-1,4.9h-2.2L226.8,54z"/>
		<path class="st3" d="M242.9,63c-0.2,0.9-0.4,1.8-0.4,2h-2c0-0.2,0.1-0.7,0.1-0.9c-0.4,0.5-0.9,1.1-2.4,1.1c-1.6,0-2.2-1.1-2.2-2.1
			c0-2.3,2-2.9,3.7-3.1c0.7-0.1,1.3-0.1,1.8-0.1l0.1-0.4c0.1-0.6,0.1-1.4-1-1.4c-1,0-1.2,0.6-1.4,1H237c0.3-1.3,1.2-2.5,3.7-2.5
			c1.9,0,3.4,0.8,2.9,3L242.9,63z M241.1,61.3c-0.5,0-1,0-1.4,0.1c-1.2,0.2-1.6,0.6-1.6,1.3c0,0.5,0.3,0.8,1,0.8
			c1.5,0,1.8-1.2,2-2.1L241.1,61.3z"/>
		<path class="st3" d="M247.8,56.8c0.3,3.5,0.4,5.2,0.4,6.2h0c0.5-1.2,1.4-2.9,2.9-6.2h2.2L249,65h-2.4l-0.9-8.2H247.8z"/>
		<path class="st3" d="M256.1,61.4c0,0.2-0.1,0.3-0.1,0.5c0,0.9,0.3,1.6,1.3,1.6c0.9,0,1.2-0.5,1.5-1h2.2c-0.4,1.2-1.5,2.7-3.9,2.7
			c-2.2,0-3.2-1.4-3.2-3.4c0-2.2,1.2-5.2,4.3-5.2c2.4,0,3.2,1.5,3.2,3.2c0,0.7-0.1,1.1-0.2,1.6H256.1z M259.4,59.9
			c0-0.2,0-0.3,0-0.4c0-0.7-0.3-1.3-1.2-1.3c-1,0-1.6,0.6-1.8,1.7H259.4z"/>
		<path class="st3" d="M264.2,58.9c0.1-0.7,0.3-1.4,0.4-2.1h2.1c0,0.2-0.1,0.8-0.2,1c0.4-0.5,1.1-1.2,2.4-1.2c1.6,0,2.5,1,2,3.4
			l-1,5h-2.1l1-5c0.2-0.9,0-1.6-0.9-1.6c-1,0-1.7,0.8-2,2.3L265,65h-2.1L264.2,58.9z"/>
		<path class="st3" d="M279.9,62.4l-1.3,2.6h-2.3l5.7-11h2.8l1.4,11H284l-0.3-2.6H279.9z M283.6,60.6c-0.2-2.3-0.4-3.8-0.5-4.8h0
			c-0.5,1.1-1.4,2.9-2.3,4.8H283.6z"/>
		<path class="st3" d="M290.5,56.8c0.1,2.8,0.1,5.1,0,6.1h0c0.4-1,0.8-2,2.6-6.1h2c0,4.1,0,5.2-0.1,6.1h0c0.3-0.8,1-2.6,2.6-6.1h2.2
			l-4,8.2h-2.3c-0.1-2.8-0.1-4.4,0-5.5h0c-0.4,1.1-1.1,2.6-2.4,5.5h-2.3l-0.4-8.2H290.5z"/>
		<path class="st3" d="M306.9,63c-0.2,0.9-0.4,1.8-0.4,2h-2c0-0.2,0.1-0.7,0.1-0.9c-0.4,0.5-0.9,1.1-2.4,1.1c-1.6,0-2.2-1.1-2.2-2.1
			c0-2.3,2-2.9,3.7-3.1c0.7-0.1,1.3-0.1,1.8-0.1l0.1-0.4c0.1-0.6,0.1-1.4-1-1.4c-1,0-1.2,0.6-1.4,1H301c0.3-1.3,1.2-2.5,3.7-2.5
			c1.9,0,3.4,0.8,2.9,3L306.9,63z M305.2,61.3c-0.5,0-1,0-1.4,0.1c-1.2,0.2-1.6,0.6-1.6,1.3c0,0.5,0.3,0.8,1,0.8
			c1.5,0,1.8-1.2,2-2.1L305.2,61.3z"/>
		<path class="st3" d="M311,56.8h2.1l-1.7,8.2h-2.1L311,56.8z M311.7,53.4h2.1l-0.4,2h-2.1L311.7,53.4z"/>
		<path class="st3" d="M315.1,56.8h1.2l0.5-2.2h2.1l-0.5,2.2h1.5l-0.4,1.7H318l-0.8,4.2c-0.1,0.5-0.1,0.9,0.6,0.9
			c0.2,0,0.5,0,0.7-0.1l-0.3,1.6c-0.5,0.2-1,0.2-1.4,0.2c-1.7,0-1.9-1-1.6-2.4l0.9-4.3h-1.2L315.1,56.8z"/>
		<path class="st3" d="M322.6,62.5c0.1,0.7,0.5,1.1,1.4,1.1c0.8,0,1.2-0.4,1.2-0.9c0-0.5-0.4-0.8-1.4-1.1c-1.9-0.6-2.5-1.3-2.5-2.3
			c0-1.5,1.1-2.6,3.3-2.6c2.2,0,3.2,1.2,3.2,2.5h-2.1c0-0.4-0.2-0.9-1.2-0.9c-0.5,0-1,0.2-1,0.8c0,0.4,0.4,0.6,1.4,0.9
			c1.9,0.6,2.5,1.4,2.5,2.5c0,1.9-1.7,2.8-3.6,2.8c-2.1,0-3.4-1-3.3-2.7H322.6z"/>
	</g>
</g>
</svg>
