<?xml version="1.0" encoding="utf-8"?>
<!-- Generator: Adobe Illustrator 24.3.0, SVG Export Plug-In . SVG Version: 6.00 Build 0)  -->
<svg version="1.1" xmlns="http://www.w3.org/2000/svg" xmlns:xlink="http://www.w3.org/1999/xlink" x="0px" y="0px"
	 viewBox="0 0 320.9 75.9" style="enable-background:new 0 0 320.9 75.9;" xml:space="preserve">
<style type="text/css">
	.st0{fill:#F4F3F2;}
</style>
<g id="Background">
</g>
<g id="Objects">
	<g>
		<g>
			<path class="st0" d="M62.7,63.4c2.6-2.8,3.9-7.4,2.6-11.3c-0.9-2.7-2.8-4.6-4.7-6.3c-1.9-1.6-4-3.1-5.7-5.2
				c-1.6-2.1-2.7-5.1-2.1-7.8c0.4-1.7,1.3-3.2,2.6-4c0.8-0.5,1.6-0.7,2.5-0.8c-2-0.4-4.1,0.1-5.7,1.4c-4.2,3.7-8.3,7.4-12.5,11.3
				C47.3,47.6,55,54.9,62.7,63.4z"/>
		</g>
	</g>
	<path class="st0" d="M41.8,18.4c0,2.9-2.4,5.3-5.3,5.3c-2.9,0-5.3-2.4-5.3-5.3c0-2.9,2.4-5.3,5.3-5.3
		C39.5,13.1,41.8,15.4,41.8,18.4z"/>
	<path class="st0" d="M32.6,75.9c2.8-3.4,4-8.7,2.6-13.1c-1.1-3.2-3.4-5.6-5.7-7.6c-2.4-2-4.9-3.8-6.9-6.3c-2-2.6-3.3-6.1-2.6-9.5
		c0.4-2.1,1.6-3.9,3.2-4.9c0.9-0.6,2-0.9,3-0.9c-2.4-0.5-5,0.1-6.9,1.8C13.3,40.7,7.2,46.2,1.1,52C6.2,65,18.2,74.4,32.6,75.9z"/>
	<g>
		<path class="st0" d="M30.9,36.9l-1.4-1.3c-0.1-0.1-0.1-0.1-0.2-0.2c-1-0.8-2.3-0.9-3.3-0.3l0.3,0c-1.4,0.9-2.5,2.5-2.9,4.4
			c-0.6,2.6,0.4,5.4,2.9,8.2c2.1,2.4,4.2,4.5,6.7,6.6c2.8,2.4,4.6,4.9,5.6,7.8c1.4,4,1,9.8-2,13.4c0,0,0.4-0.1,0.4-0.1
			c7.2,0,13.8-2,19.8-5.9c1.5-1.1,2.9-2.3,4.3-3.5C51,54.9,40.8,45.8,30.9,36.9z"/>
		<path class="st0" d="M73.9,41.9c-4.1-3.9-8.4-7.7-12.5-11.4c0,0-1-0.8-1-0.8c-0.9-0.8-2.4-0.9-3.3-0.2c-1,0.8-1.5,1.9-1.8,3.2
			c-0.4,2.1,0.3,4.4,2.4,6.7c1.7,2,3.5,3.7,5.5,5.4c2.3,2,3.8,4.1,4.6,6.5c0.7,2,0.8,4.4,0.5,6.6C71.5,53,73.3,47.8,73.9,41.9z"/>
	</g>
	<g>
		<path class="st0" d="M36.5,0C15.5,0-1.5,17.1-1.5,38.1c0,3.7,0.5,7.3,1.5,10.7l3.2-2.9c-0.6-2.5-0.9-5.1-0.9-7.7
			c0-18.9,15.3-34.2,34.2-34.2c17.7,0,32.3,13.5,34,30.8c1.3,1.2,2.7,2.5,4,3.7c0-0.1,0-0.2,0-0.3C74.6,17.1,57.5,0,36.5,0z"/>
	</g>
	<g>
		<path class="st0" d="M92.4,46.6V8h9.7c5.9,18.2,7.2,22.5,7.6,24.3h0.2c-0.4-4.9-0.5-11.2-0.5-17.2V8h7.8v38.6h-9.6
			c-6.1-20-7.2-23.9-7.7-25.6h-0.2c0.3,4.6,0.5,11.8,0.5,18.1v7.5H92.4z"/>
		<path class="st0" d="M143.4,30.3h-11.7v9.2h13.2l-1,7.2H123V8h20.9v7.3h-12.2v7.8h11.7V30.3z"/>
		<path class="st0" d="M148.6,8h12.7c6.7,0,11.5,3.7,11.5,11.7c0,8.1-4.3,11.8-11.9,11.8h-3.5v15.1h-8.8V8z M157.4,24.8h2.3
			c3.1,0,4.2-1.5,4.2-5.1c0-3.6-1.5-5-4-5h-2.5V24.8z"/>
		<path class="st0" d="M182.1,38.4l-1.3,8.3h-8.9L179.5,8H192l7.7,38.6h-9.2l-1.4-8.3H182.1z M188,30.9c-0.9-5.6-1.7-11.9-2.2-15.5
			h-0.3c-0.4,3.7-1.3,9.8-2.2,15.5H188z"/>
		<path class="st0" d="M202.6,8h8.9v31.4h12.2l-0.8,7.2h-20.3V8z"/>
	</g>
	<g>
		<path class="st0" d="M231,22.8h5.9v9.7h4.5v-9.7h5.9v25.7h-5.9v-11h-4.5v11H231V22.8z"/>
		<path class="st0" d="M256.2,43l-0.9,5.5h-5.9l5.1-25.7h8.3l5.1,25.7h-6.1l-0.9-5.5H256.2z M260.1,38.1c-0.6-3.8-1.1-7.9-1.5-10.3
			h-0.2c-0.3,2.5-0.9,6.5-1.5,10.3H260.1z"/>
		<path class="st0" d="M272.3,48.5l-5.6-25.7h6.3l1.7,10c0.5,3.3,1,6.9,1.3,9.9h0.2c0.3-3.1,0.9-6.5,1.4-9.8l1.6-10.1h6.1l-5.6,25.7
			H272.3z"/>
		<path class="st0" d="M300.9,37.6h-7.8v6.1h8.8l-0.7,4.8h-13.9V22.8h13.9v4.8h-8.1v5.2h7.8V37.6z"/>
		<path class="st0" d="M304.4,48.5V22.8h6.5c3.9,12.1,4.8,15,5.1,16.2h0.1c-0.3-3.2-0.3-7.5-0.3-11.5v-4.7h5.2v25.7h-6.4
			c-4.1-13.4-4.8-16-5.1-17.1h-0.1c0.2,3.1,0.3,7.9,0.3,12.1v5H304.4z"/>
	</g>
	<g>
		<path class="st0" d="M94.7,65l0.8-4c0-0.1,0-0.2,0-0.4L93.3,54h2.3c0.4,1.6,1.2,3.9,1.4,5.1c0.7-1.2,2.5-3.5,3.6-5.1h2.3l-5,6.8
			c-0.1,0.1-0.1,0.2-0.2,0.4L96.9,65H94.7z"/>
		<path class="st0" d="M109.5,60.1c0,1.9-1.1,5-4.5,5c-2.2,0-3.3-1.4-3.3-3.4c0-2.2,1.4-5.2,4.4-5.2
			C108.1,56.6,109.5,57.7,109.5,60.1z M103.9,61.8c0,1.1,0.5,1.7,1.3,1.7c1.5,0,2.1-2.2,2.1-3.6c0-1.1-0.4-1.6-1.3-1.6
			C104.5,58.3,103.9,60.4,103.9,61.8z"/>
		<path class="st0" d="M118.2,62.8c-0.2,0.7-0.3,1.5-0.4,2.2h-2.1c0-0.2,0.1-0.8,0.2-1.1c-0.6,0.9-1.5,1.3-2.5,1.3
			c-1.5,0-2.3-1-2-2.9l1.1-5.5h2.1l-1.1,5.2c-0.2,0.9,0,1.4,0.8,1.4c0.9,0,1.7-0.7,2.1-2.6l0.8-4h2.1L118.2,62.8z"/>
		<path class="st0" d="M121.8,59.2c0.2-0.8,0.3-1.7,0.5-2.4h2c0,0.2-0.1,0.8-0.2,1.5c0.5-1,1.3-1.7,2.7-1.7l-0.4,2.2
			c-1.5,0-2.5,0.8-2.9,2.7l-0.7,3.6h-2.1L121.8,59.2z"/>
		<path class="st0" d="M134.6,62.4l-1.3,2.6h-2.3l5.7-11h2.8l1.4,11h-2.2l-0.3-2.6H134.6z M138.2,60.6c-0.2-2.3-0.4-3.8-0.5-4.8h0
			c-0.5,1.1-1.4,2.9-2.3,4.8H138.2z"/>
		<path class="st0" d="M152.2,53.4l-1.9,9.4c-0.2,0.8-0.3,1.5-0.4,2.2h-2c0-0.3,0.1-0.6,0.1-1c-0.5,0.7-1.3,1.1-2.3,1.1
			c-1.7,0-2.7-1.3-2.7-3.3c0-2.5,1.5-5.3,4.3-5.3c1.1,0,1.9,0.5,2.1,0.9l0.8-4.1H152.2z M145.2,61.7c0,1.1,0.4,1.7,1.3,1.7
			c1.3,0,2-1.1,2.3-2.8c0.3-1.4-0.1-2.2-1.3-2.2C146,58.4,145.2,60.2,145.2,61.7z"/>
		<path class="st0" d="M155.6,56.8c0.3,3.5,0.4,5.2,0.4,6.2h0c0.5-1.2,1.4-2.9,2.9-6.2h2.2l-4.3,8.2h-2.4l-0.9-8.2H155.6z"/>
		<path class="st0" d="M164,61.4c0,0.2-0.1,0.3-0.1,0.5c0,0.9,0.3,1.6,1.3,1.6c0.9,0,1.2-0.5,1.5-1h2.2c-0.4,1.2-1.5,2.7-3.9,2.7
			c-2.2,0-3.2-1.4-3.2-3.4c0-2.2,1.2-5.2,4.3-5.2c2.4,0,3.2,1.5,3.2,3.2c0,0.7-0.1,1.1-0.2,1.6H164z M167.3,59.9c0-0.2,0-0.3,0-0.4
			c0-0.7-0.3-1.3-1.2-1.3c-1,0-1.6,0.6-1.8,1.7H167.3z"/>
		<path class="st0" d="M172.1,58.9c0.1-0.7,0.3-1.4,0.4-2.1h2.1c0,0.2-0.1,0.8-0.2,1c0.4-0.5,1.1-1.2,2.4-1.2c1.6,0,2.5,1,2,3.4
			l-1,5h-2.1l1-5c0.2-0.9,0-1.6-0.9-1.6c-1,0-1.7,0.8-2,2.3l-0.9,4.3h-2.1L172.1,58.9z"/>
		<path class="st0" d="M181.2,56.8h1.2l0.5-2.2h2.1l-0.5,2.2h1.5l-0.4,1.7h-1.5l-0.8,4.2c-0.1,0.5-0.1,0.9,0.6,0.9
			c0.2,0,0.5,0,0.7-0.1l-0.3,1.6c-0.5,0.2-1,0.2-1.4,0.2c-1.7,0-1.9-1-1.6-2.4l0.9-4.3h-1.2L181.2,56.8z"/>
		<path class="st0" d="M193.6,62.8c-0.2,0.7-0.3,1.5-0.4,2.2h-2.1c0-0.2,0.1-0.8,0.2-1.1c-0.6,0.9-1.5,1.3-2.5,1.3
			c-1.5,0-2.3-1-2-2.9l1.1-5.5h2.1l-1.1,5.2c-0.2,0.9,0,1.4,0.8,1.4c0.9,0,1.7-0.7,2.1-2.6l0.8-4h2.1L193.6,62.8z"/>
		<path class="st0" d="M197.1,59.2c0.2-0.8,0.3-1.7,0.5-2.4h2c0,0.2-0.1,0.8-0.2,1.5c0.5-1,1.3-1.7,2.7-1.7l-0.4,2.2
			c-1.5,0-2.5,0.8-2.9,2.7L198,65h-2.1L197.1,59.2z"/>
		<path class="st0" d="M205.1,61.4c0,0.2-0.1,0.3-0.1,0.5c0,0.9,0.3,1.6,1.3,1.6c0.9,0,1.2-0.5,1.5-1h2.2c-0.4,1.2-1.5,2.7-3.9,2.7
			c-2.2,0-3.2-1.4-3.2-3.4c0-2.2,1.2-5.2,4.3-5.2c2.4,0,3.2,1.5,3.2,3.2c0,0.7-0.1,1.1-0.2,1.6H205.1z M208.4,59.9
			c0-0.2,0-0.3,0-0.4c0-0.7-0.3-1.3-1.2-1.3c-1,0-1.6,0.6-1.8,1.7H208.4z"/>
		<path class="st0" d="M218.8,54h2.2l-0.9,4.3h4.2l0.9-4.3h2.2l-2.3,11h-2.2l1-4.9h-4.2l-1,4.9h-2.2L218.8,54z"/>
		<path class="st0" d="M234.9,63c-0.2,0.9-0.4,1.8-0.4,2h-2c0-0.2,0.1-0.7,0.1-0.9c-0.4,0.5-0.9,1.1-2.4,1.1c-1.6,0-2.2-1.1-2.2-2.1
			c0-2.3,2-2.9,3.7-3.1c0.7-0.1,1.3-0.1,1.8-0.1l0.1-0.4c0.1-0.6,0.1-1.4-1-1.4c-1,0-1.2,0.6-1.4,1H229c0.3-1.3,1.2-2.5,3.7-2.5
			c1.9,0,3.4,0.8,2.9,3L234.9,63z M233.2,61.3c-0.5,0-1,0-1.4,0.1c-1.2,0.2-1.6,0.6-1.6,1.3c0,0.5,0.3,0.8,1,0.8
			c1.5,0,1.8-1.2,2-2.1L233.2,61.3z"/>
		<path class="st0" d="M239.8,56.8c0.3,3.5,0.4,5.2,0.4,6.2h0c0.5-1.2,1.4-2.9,2.9-6.2h2.2L241,65h-2.4l-0.9-8.2H239.8z"/>
		<path class="st0" d="M248.2,61.4c0,0.2-0.1,0.3-0.1,0.5c0,0.9,0.3,1.6,1.3,1.6c0.9,0,1.2-0.5,1.5-1h2.2c-0.4,1.2-1.5,2.7-3.9,2.7
			c-2.2,0-3.2-1.4-3.2-3.4c0-2.2,1.2-5.2,4.3-5.2c2.4,0,3.2,1.5,3.2,3.2c0,0.7-0.1,1.1-0.2,1.6H248.2z M251.5,59.9
			c0-0.2,0-0.3,0-0.4c0-0.7-0.3-1.3-1.2-1.3c-1,0-1.6,0.6-1.8,1.7H251.5z"/>
		<path class="st0" d="M256.2,58.9c0.1-0.7,0.3-1.4,0.4-2.1h2.1c0,0.2-0.1,0.8-0.2,1c0.4-0.5,1.1-1.2,2.4-1.2c1.6,0,2.5,1,2,3.4
			l-1,5h-2.1l1-5c0.2-0.9,0-1.6-0.9-1.6c-1,0-1.7,0.8-2,2.3l-0.9,4.3H255L256.2,58.9z"/>
		<path class="st0" d="M272,62.4l-1.3,2.6h-2.3l5.7-11h2.8l1.4,11h-2.2l-0.3-2.6H272z M275.6,60.6c-0.2-2.3-0.4-3.8-0.5-4.8h0
			c-0.5,1.1-1.4,2.9-2.3,4.8H275.6z"/>
		<path class="st0" d="M282.6,56.8c0.1,2.8,0.1,5.1,0,6.1h0c0.4-1,0.8-2,2.6-6.1h2c0,4.1,0,5.2-0.1,6.1h0c0.3-0.8,1-2.6,2.6-6.1h2.2
			l-4,8.2h-2.3c-0.1-2.8-0.1-4.4,0-5.5h0c-0.4,1.1-1.1,2.6-2.4,5.5h-2.3l-0.4-8.2H282.6z"/>
		<path class="st0" d="M299,63c-0.2,0.9-0.4,1.8-0.4,2h-2c0-0.2,0.1-0.7,0.1-0.9c-0.4,0.5-0.9,1.1-2.4,1.1c-1.6,0-2.2-1.1-2.2-2.1
			c0-2.3,2-2.9,3.7-3.1c0.7-0.1,1.3-0.1,1.8-0.1l0.1-0.4c0.1-0.6,0.1-1.4-1-1.4c-1,0-1.2,0.6-1.4,1h-2.1c0.3-1.3,1.2-2.5,3.7-2.5
			c1.9,0,3.4,0.8,2.9,3L299,63z M297.2,61.3c-0.5,0-1,0-1.4,0.1c-1.2,0.2-1.6,0.6-1.6,1.3c0,0.5,0.3,0.8,1,0.8c1.5,0,1.8-1.2,2-2.1
			L297.2,61.3z"/>
		<path class="st0" d="M303.1,56.8h2.1l-1.7,8.2h-2.1L303.1,56.8z M303.8,53.4h2.1l-0.4,2h-2.1L303.8,53.4z"/>
		<path class="st0" d="M307.1,56.8h1.2l0.5-2.2h2.1l-0.5,2.2h1.5l-0.4,1.7h-1.5l-0.8,4.2c-0.1,0.5-0.1,0.9,0.6,0.9
			c0.2,0,0.5,0,0.7-0.1l-0.3,1.6c-0.5,0.2-1,0.2-1.4,0.2c-1.7,0-1.9-1-1.6-2.4l0.9-4.3h-1.2L307.1,56.8z"/>
		<path class="st0" d="M314.6,62.5c0.1,0.7,0.5,1.1,1.4,1.1c0.8,0,1.2-0.4,1.2-0.9c0-0.5-0.4-0.8-1.4-1.1c-1.9-0.6-2.5-1.3-2.5-2.3
			c0-1.5,1.1-2.6,3.3-2.6c2.2,0,3.2,1.2,3.2,2.5h-2.1c0-0.4-0.2-0.9-1.2-0.9c-0.5,0-1,0.2-1,0.8c0,0.4,0.4,0.6,1.4,0.9
			c1.9,0.6,2.5,1.4,2.5,2.5c0,1.9-1.7,2.8-3.6,2.8c-2.1,0-3.4-1-3.3-2.7H314.6z"/>
	</g>
</g>
</svg>
