<?xml version="1.0" encoding="utf-8"?>
<!-- Generator: Adobe Illustrator 24.3.0, SVG Export Plug-In . SVG Version: 6.00 Build 0)  -->
<svg version="1.1" xmlns="http://www.w3.org/2000/svg" xmlns:xlink="http://www.w3.org/1999/xlink" x="0px" y="0px"
	 viewBox="0 0 81.6 80.6" style="enable-background:new 0 0 81.6 80.6;" xml:space="preserve">
<style type="text/css">
	.st0{fill:url(#SVGID_1_);}
	.st1{fill:url(#SVGID_2_);}
	.st2{fill:url(#SVGID_3_);}
	.st3{fill:#3360C4;}
	.st4{fill:url(#SVGID_4_);}
</style>
<g id="Background">
</g>
<g id="Objects">
	<g>
		<g>
			<linearGradient id="SVGID_1_" gradientUnits="userSpaceOnUse" x1="58.6957" y1="167.9901" x2="53.8473" y2="-110.3091">
				<stop  offset="0" style="stop-color:#4172C2"/>
				<stop  offset="1" style="stop-color:#77CCFC"/>
			</linearGradient>
			<path class="st0" d="M66.6,65.2c2.6-2.8,3.9-7.4,2.6-11.3c-0.9-2.7-2.8-4.6-4.7-6.3c-1.9-1.6-4-3.1-5.7-5.2
				c-1.6-2.1-2.7-5.1-2.1-7.8c0.4-1.7,1.3-3.2,2.6-4c0.8-0.5,1.6-0.7,2.5-0.8c-2-0.4-4.1,0.1-5.7,1.4c-4.2,3.7-8.3,7.4-12.5,11.3
				C51.2,49.5,58.9,56.8,66.6,65.2z"/>
		</g>
	</g>
	<linearGradient id="SVGID_2_" gradientUnits="userSpaceOnUse" x1="35.0952" y1="20.2605" x2="45.7397" y2="20.2605">
		<stop  offset="0" style="stop-color:#FFC557"/>
		<stop  offset="0.7028" style="stop-color:#F98D30"/>
		<stop  offset="1" style="stop-color:#F7741E"/>
	</linearGradient>
	<path class="st1" d="M45.7,20.3c0,2.9-2.4,5.3-5.3,5.3c-2.9,0-5.3-2.4-5.3-5.3c0-2.9,2.4-5.3,5.3-5.3
		C43.4,14.9,45.7,17.3,45.7,20.3z"/>
	<linearGradient id="SVGID_3_" gradientUnits="userSpaceOnUse" x1="24.2224" y1="168.5907" x2="19.374" y2="-109.7085">
		<stop  offset="0" style="stop-color:#4172C2"/>
		<stop  offset="1" style="stop-color:#77CCFC"/>
	</linearGradient>
	<path class="st2" d="M36.5,77.8c2.8-3.4,4-8.7,2.6-13.1C38,61.4,35.7,59,33.4,57c-2.4-2-4.9-3.8-6.9-6.3c-2-2.6-3.3-6.1-2.6-9.5
		c0.4-2.1,1.6-3.9,3.2-4.9c0.9-0.6,2-0.9,3-0.9c-2.4-0.5-5,0.1-6.9,1.8C17.2,42.6,11.1,48,5,53.9C10.1,66.8,22.1,76.3,36.5,77.8z"/>
	<g>
		<path class="st3" d="M34.8,38.8l-1.4-1.3c-0.1-0.1-0.1-0.1-0.2-0.2c-1-0.8-2.3-0.9-3.3-0.3l0.3,0c-1.4,0.9-2.5,2.5-2.9,4.4
			c-0.6,2.6,0.4,5.4,2.9,8.2c2.1,2.4,4.2,4.5,6.7,6.6c2.8,2.4,4.6,4.9,5.6,7.8c1.4,4,1,9.8-2,13.4c0,0,0.4-0.1,0.4-0.1
			c7.2,0,13.8-2,19.8-5.9c1.5-1.1,2.9-2.3,4.3-3.5C54.9,56.8,44.7,47.7,34.8,38.8z"/>
		<path class="st3" d="M77.8,43.8c-4.1-3.9-8.4-7.7-12.5-11.4c0,0-1-0.8-1-0.8c-0.9-0.8-2.4-0.9-3.3-0.2c-1,0.8-1.5,1.9-1.8,3.2
			c-0.4,2.1,0.3,4.4,2.4,6.7c1.7,2,3.5,3.7,5.5,5.4c2.3,2,3.8,4.1,4.6,6.5c0.7,2,0.8,4.4,0.5,6.6C75.4,54.9,77.2,49.6,77.8,43.8z"/>
	</g>
	<g>
		<linearGradient id="SVGID_4_" gradientUnits="userSpaceOnUse" x1="42.6535" y1="168.2696" x2="37.8051" y2="-110.0296">
			<stop  offset="0" style="stop-color:#4172C2"/>
			<stop  offset="1" style="stop-color:#77CCFC"/>
		</linearGradient>
		<path class="st4" d="M40.4,1.9c-21,0-38.1,17.1-38.1,38.1c0,3.7,0.5,7.3,1.5,10.7l3.2-2.9c-0.6-2.5-0.9-5.1-0.9-7.7
			c0-18.9,15.3-34.2,34.2-34.2c17.7,0,32.3,13.5,34,30.8c1.3,1.2,2.7,2.5,4,3.7c0-0.1,0-0.2,0-0.3C78.5,18.9,61.4,1.9,40.4,1.9z"/>
	</g>
</g>
</svg>
