<!DOCTYPE svg PUBLIC "-//W3C//DTD SVG 1.1//EN" "http://www.w3.org/Graphics/SVG/1.1/DTD/svg11.dtd">

<!-- Uploaded to: SVG Repo, www.svgrepo.com, Transformed by: SVG Repo Mixer Tools -->
<svg fill="#8392a5"  width="75px" version="1.1" id="Layer_1" xmlns="http://www.w3.org/2000/svg" xmlns:xlink="http://www.w3.org/1999/xlink" viewBox="0 0 512 512" xml:space="preserve" stroke="#8392a5">

<g id="SVGRepo_bgCarrier" stroke-width="0"/>

<g id="SVGRepo_tracerCarrier" stroke-linecap="round" stroke-linejoin="round"/>

<g id="SVGRepo_iconCarrier"> <g> <g> <path d="M510.063,156.723c-1.621-1.98-4.036-3.123-6.596-3.123h-59.733c-2.85,0-5.513,1.425-7.1,3.797L422.101,179.2H309.427 c-31.181-17.254-63.693-26.061-96.094-26.573v-16.094c0-0.017-0.009-0.026-0.009-0.034c49.451-0.188,95.718-1.929,130.995-4.992 c60.595-5.274,65.28-11.853,65.28-20.574s-4.685-15.3-65.28-20.574c-37.308-3.243-86.861-5.026-139.52-5.026 c-52.659,0-102.212,1.784-139.52,5.026C4.685,95.633,0,102.212,0,110.933s4.685,15.3,65.28,20.574 c35.277,3.063,81.544,4.813,130.995,4.992c0,0.009-0.009,0.017-0.009,0.034v16.572c-28.57,2.15-56.849,10.803-83.84,26.052 C43.622,218.035,1.237,287.684,0,332.569c0,0.077,0,0.154,0,0.23C0,368.171,34.287,384,68.267,384H76.8v25.6H25.6 c-4.71,0-8.533,3.823-8.533,8.533s3.823,8.533,8.533,8.533h213.333c4.71,0,8.533-3.823,8.533-8.533s-3.823-8.533-8.533-8.533 h-51.2v-26.641c69.419-7.706,124.023-61.636,127.795-128.137L409.6,240.35v7.117c0,4.71,3.823,8.533,8.533,8.533H486.4 c4.07,0,7.569-2.867,8.363-6.861l17.067-85.333C512.341,161.297,511.684,158.703,510.063,156.723z M35.226,110.933 c29.619-4.412,88.994-8.533,169.574-8.533s139.955,4.122,169.574,8.533c-29.619,4.412-88.994,8.533-169.574,8.533 S64.845,115.345,35.226,110.933z M93.867,213.333c0.427,0.068,78.319,0,78.319,0l-48.87,76.8h-94.14 C41.762,264.047,64.99,236.057,93.867,213.333z M170.667,409.6h-76.8V384h76.8V409.6z M479.403,238.933h-52.736V230.4 c0-2.492-1.084-4.855-2.978-6.477c-1.886-1.613-4.395-2.321-6.852-1.954l-110.933,17.067c-4.164,0.64-7.236,4.216-7.236,8.431 c0,65.877-57.421,119.467-128,119.467h-102.4c-2.091,0-51.089-0.384-51.2-34.022c0.23-7.731,2.014-16.452,5.129-25.711H128 c2.918,0,5.632-1.493,7.202-3.951l59.733-93.867c1.673-2.628,1.775-5.956,0.282-8.695c-1.502-2.722-4.369-4.42-7.484-4.42h-70.63 c1.246-0.742,2.449-1.536,3.712-2.253c41.114-23.228,106.095-41.89,182.178,1.152c1.289,0.725,2.739,1.101,4.207,1.101h119.467 c2.85,0,5.513-1.425,7.1-3.797l14.532-21.803h44.757L479.403,238.933z"/> </g> </g> </g>

</svg>