<?xml version="1.0" encoding="utf-8"?>
<!-- Generator: Adobe Illustrator 14.0.0, SVG Export Plug-In . SVG Version: 6.00 Build 43363)  -->
<!DOCTYPE svg PUBLIC "-//W3C//DTD SVG 1.1//EN" "http://www.w3.org/Graphics/SVG/1.1/DTD/svg11.dtd">
<svg version="1.1" id="Capa_1" xmlns="http://www.w3.org/2000/svg" xmlns:xlink="http://www.w3.org/1999/xlink" x="0px" y="0px"
	 width="512px" height="512px" viewBox="0 0 512 512" enable-background="new 0 0 512 512" xml:space="preserve">
<g>
	<path fill="none" stroke="#5E4C43" stroke-width="16" stroke-linecap="round" stroke-linejoin="round" stroke-miterlimit="10" d="
		M67.5,414.5C67.5,310.394,151.894,226,256,226c104.105,0,188.5,84.394,188.5,188.5"/>
	<path fill="none" stroke="#5E4C43" stroke-width="16" stroke-linecap="round" stroke-linejoin="round" stroke-miterlimit="10" d="
		M226,414.5H37.5v60c-16.569,0-30,13.431-30,30h497c0-16.569-13.431-30-30-30h-407"/>
	
		<polyline fill="none" stroke="#5E4C43" stroke-width="16" stroke-linecap="round" stroke-linejoin="round" stroke-miterlimit="10" points="
		474.5,474.5 474.5,414.5 286,414.5 	"/>
	<path fill="none" stroke="#5E4C43" stroke-width="16" stroke-linecap="round" stroke-linejoin="round" stroke-miterlimit="10" d="
		M286,474.5v-90c0-16.569-13.432-30-30-30c-16.569,0-30,13.431-30,30v90"/>
	<path fill="none" stroke="#5E4C43" stroke-width="16" stroke-linecap="round" stroke-linejoin="round" stroke-miterlimit="10" d="
		M226,384.5h-30c-8.284,0-15,6.716-15,15s6.716,15,15,15"/>
	<path fill="none" stroke="#5E4C43" stroke-width="16" stroke-linecap="round" stroke-linejoin="round" stroke-miterlimit="10" d="
		M286,384.5h30c8.284,0,15,6.716,15,15s-6.716,15-15,15"/>
	
		<line fill="none" stroke="#5E4C43" stroke-width="16" stroke-linecap="round" stroke-linejoin="round" stroke-miterlimit="10" x1="196" y1="414.5" x2="196" y2="474.5"/>
	<path fill="none" stroke="#5E4C43" stroke-width="16" stroke-linecap="round" stroke-linejoin="round" stroke-miterlimit="10" d="
		M316,384.5c0-16.569-6.716-31.57-17.575-42.428L256,299.646l-42.425,42.426C202.716,352.93,196,367.931,196,384.5"/>
	
		<line fill="none" stroke="#5E4C43" stroke-width="16" stroke-linecap="round" stroke-linejoin="round" stroke-miterlimit="10" x1="316" y1="474.5" x2="316" y2="414.5"/>
	
		<line fill="none" stroke="#5E4C43" stroke-width="16" stroke-linecap="round" stroke-linejoin="round" stroke-miterlimit="10" x1="196" y1="196" x2="196" y2="235.755"/>
	
		<line fill="none" stroke="#5E4C43" stroke-width="16" stroke-linecap="round" stroke-linejoin="round" stroke-miterlimit="10" x1="316" y1="235.754" x2="316" y2="196"/>
	<path fill="none" stroke="#5E4C43" stroke-width="16" stroke-linecap="round" stroke-linejoin="round" stroke-miterlimit="10" d="
		M166,166c0,16.569,13.431,30,30,30h120c16.568,0,30-13.431,30-30H166z"/>
	
		<line fill="none" stroke="#5E4C43" stroke-width="16" stroke-linecap="round" stroke-linejoin="round" stroke-miterlimit="10" x1="316" y1="166" x2="286" y2="82.5"/>
	<path fill="none" stroke="#5E4C43" stroke-width="16" stroke-linecap="round" stroke-linejoin="round" stroke-miterlimit="10" d="
		M256,82.5h30c16.568,0,30-13.431,30-30H196c0,16.569,13.431,30,30,30L196,166"/>
	<path fill="none" stroke="#5E4C43" stroke-width="16" stroke-linecap="round" stroke-linejoin="round" stroke-miterlimit="10" d="
		M271,52.5v-30c0-8.284-6.716-15-15-15s-15,6.716-15,15v30"/>
</g>
</svg>
