<svg width="43" height="37" viewBox="0 0 43 37" fill="none" xmlns="http://www.w3.org/2000/svg">
<path fill-rule="evenodd" clip-rule="evenodd" d="M26.1707 14.4507C24.7361 14.7219 23.6757 15.1558 22.2224 16.0663C21.5396 16.4939 20.6181 17.0706 20.1744 17.3479C18.749 18.2384 17.8997 18.4839 15.7914 18.6141C14.7312 18.6796 13.4301 18.8366 12.9 18.9632C11.6279 19.2669 9.45362 20.0562 8.51741 20.5542L7.76758 20.9529L9.25879 27.106C10.0789 30.4903 10.7851 33.294 10.828 33.3368C10.9653 33.4734 18.0754 34.4766 20.675 34.726C22.283 34.8802 24.2029 34.9493 26.0129 34.9178L28.8397 34.8688L30.1 34.2476C32.8539 32.89 35.7839 30.0572 39.2462 25.4042C41.7389 22.0542 43 19.9399 43 19.1104C43 17.9737 42.1012 16.642 41.3338 16.642C40.4099 16.642 40.1424 16.8962 36.6357 21.1075C35.4597 22.5199 34.1586 23.9698 33.7443 24.3293C32.7842 25.1627 30.9217 26.0758 29.5518 26.3846C27.982 26.7384 26.7616 26.6645 23.9466 26.0452L21.4259 25.4907L21.3777 24.975C21.2871 24.0064 21.7212 23.2489 23.1035 21.9639C24.9654 20.233 26.9042 18.5524 28.1176 17.6179C28.6989 17.17 29.2161 16.6935 29.2667 16.5592C29.4325 16.1183 29.3632 15.4109 29.1117 14.9766C28.6599 14.1964 28.0723 14.0913 26.1707 14.4507ZM34.6389 15.4375C34.2677 15.7698 33.6046 16.951 32.2399 19.7106C31.2026 21.8081 30.1617 23.8111 29.927 24.1617L29.5001 24.7991L30.1083 24.5801C32.0489 23.8817 33.0741 22.9858 36.0134 19.4199C37.5983 17.4972 37.6466 17.417 37.5123 16.9393C37.2079 15.8563 36.3209 14.9781 35.5315 14.9781C35.3199 14.9781 34.9245 15.1815 34.6389 15.4375ZM2.74399 21.0336C0.550103 21.6086 0 21.8939 0 22.457C0 22.5588 0.528751 24.8145 1.17479 27.4698C1.82098 30.125 2.55939 33.1823 2.81576 34.2638C3.31411 36.366 3.51755 36.8291 4.01264 36.9895C4.19547 37.0486 5.2635 36.8556 6.57425 36.5265C8.93495 35.9337 9.48966 35.6416 9.48966 34.9912C9.48966 34.7963 8.75495 31.5921 7.85699 27.8706C6.42005 21.9155 6.17895 21.0633 5.84696 20.7638C5.63938 20.5765 5.35661 20.4297 5.21842 20.4372C5.08023 20.4448 3.96668 20.7131 2.74399 21.0336ZM4.71117 22.3653C4.93344 22.5093 7.77811 34.0924 7.66497 34.3931C7.62257 34.5059 7.00084 34.7445 6.28349 34.9233C5.23592 35.1845 4.94263 35.211 4.79287 35.0582C4.50032 34.7597 1.76107 23.2558 1.939 23.0728C2.021 22.9884 2.60254 22.7713 3.23123 22.5904C4.59863 22.197 4.47912 22.2151 4.71117 22.3653Z" fill="#929292"/>
<path d="M22.8712 4.0637C22.7299 2.47396 23.5465 1.04122 24.9828 0.358887C26.2558 -0.245699 27.5105 -0.0865745 28.7544 0.837474L29.4111 1.32529L30.0889 0.837171C31.3385 -0.0628264 32.6001 -0.239045 33.8063 0.318046C35.2756 0.996448 35.9477 2.08204 35.9529 3.78478C35.9558 4.74936 35.8967 5.02118 35.5583 5.5999C35.3395 5.97427 33.8702 7.59169 32.2933 9.19399L29.4259 12.1076L26.4437 9.04273C24.8034 7.35724 23.3463 5.74587 23.2056 5.46195C23.0649 5.17804 22.9144 4.54894 22.8712 4.0637Z" fill="#2D74FF"/>
</svg>
