<svg width="42" height="31" viewBox="0 0 42 31" fill="none" xmlns="http://www.w3.org/2000/svg">
<path fill-rule="evenodd" clip-rule="evenodd" d="M0.936727 0.203081C0.352585 0.564184 0.171251 1.10418 0.0636377 2.80234C-0.0759216 5.00664 0.0222713 7.74305 0.277942 8.77226C1.2568 12.713 4.41885 15.745 8.38159 16.5427L9.04713 16.6767L9.37663 17.2927C10.4875 19.3701 11.2452 22.7686 11.4583 26.6301C11.637 29.8651 11.6575 30.0522 11.8724 30.4107C12.2714 31.0759 13.1805 31.1991 13.7985 30.6717C14.2711 30.2685 14.3261 29.9423 14.2348 28.0837C14.1737 26.8376 14.1841 26.3835 14.2766 26.2667C14.3444 26.1811 14.5672 25.7715 14.7718 25.3565C15.4157 24.0503 16.3136 22.6708 17.3198 21.4421L17.5722 21.134L18.1914 21.7152C19.4872 22.9317 21.6532 24.2895 23.0386 24.7537C25.8144 25.6841 29.3619 24.7356 32.1244 22.3247C34.1702 20.5392 35.734 18.0752 38.136 12.8523C39.4512 9.9922 40.307 8.74018 41.3259 8.18524C41.7625 7.94737 42 7.53737 42 7.02178C42 5.95217 41.0498 5.43648 39.9054 5.885C39.1851 6.1674 36.9963 6.11923 34.8497 5.7737C27.7293 4.62789 25.5792 4.47983 22.8188 4.94518C18.3223 5.7032 15.6577 8.7135 15.0337 13.74C14.929 14.5838 14.9344 14.7522 15.0755 15.0287C15.4289 15.7217 16.1549 16.0207 16.81 15.7432C17.2737 15.5467 17.5622 15.0797 17.646 14.39C17.9256 12.091 18.5765 10.4565 19.6343 9.39698C20.3549 8.67519 20.9923 8.2848 21.9996 7.94831C23.2356 7.5355 23.9829 7.43863 25.8905 7.44382C27.8168 7.44912 29.0318 7.57786 32.5459 8.14879C33.7567 8.34554 35.185 8.55859 35.72 8.62244C36.255 8.68619 36.7931 8.75773 36.9158 8.7814C37.1279 8.82231 37.1069 8.88813 36.4808 10.148C36.1191 10.8761 35.2732 12.6164 34.6013 14.0154C33.1908 16.9522 32.4457 18.143 31.1753 19.4909C29.7369 21.0173 28.2563 21.8914 26.4835 22.2608C25.2237 22.5233 24.3429 22.4403 23.2795 21.9586C22.5828 21.6432 20.7392 20.3894 20.0725 19.7778L19.5277 19.278L19.7653 19.0438C20.8488 17.9755 24.0839 16.0843 27.6938 14.4088C28.5677 14.0033 28.8354 13.7294 28.9288 13.1456C29.0033 12.6804 28.733 12.089 28.3284 11.8316C27.7832 11.4846 27.2853 11.5975 25.4297 12.4894C22.1347 14.073 19.7352 15.5364 17.9311 17.0628C16.7172 18.0897 15.0208 19.9082 14.2512 21.0075L13.619 21.9107L13.5034 21.3114C13.1781 19.6257 12.35 17.1634 11.6107 15.6843L11.3525 15.1675L11.5506 14.3059C11.9017 12.7798 11.9957 11.783 11.9345 10.2386C11.8681 8.56648 11.7191 7.90096 11.1351 6.66732C10.6502 5.64309 9.71892 4.58688 8.68774 3.89187C8.30777 3.63563 7.05819 2.96534 5.91099 2.4023C4.70462 1.81019 3.54924 1.16429 3.1708 0.870467C2.15918 0.0851364 2.00815 0.000207738 1.62377 8.83996e-08C1.42667 -0.000103736 1.11755 0.0912621 0.936727 0.203081ZM3.82518 4.39698C4.38833 4.67326 5.35777 5.15002 5.97949 5.45641C7.8983 6.40194 8.80611 7.44984 9.15587 9.12298C9.39864 10.2847 9.32482 12.2292 8.98898 13.5159L8.88894 13.899L8.35374 13.7394C5.60106 12.9191 3.65695 10.961 2.90284 8.2494C2.71342 7.56831 2.54877 3.78192 2.71168 3.8546C2.76093 3.87651 3.26203 4.1206 3.82518 4.39698Z" fill="#3360c4"/>
</svg>
